NTR.ufo
<glyph name="exclam" format="1">
  <advance width="290"/>
  <unicode hex="0021"/>
  <outline>
    <contour>
      <point x="224" y="51" type="line" smooth="yes" name="hr00"/>
      <point x="227" y="57"/>
      <point x="228" y="62"/>
      <point x="228" y="66" type="curve" smooth="yes"/>
      <point x="228" y="74"/>
      <point x="224" y="80"/>
      <point x="215" y="84" type="curve" smooth="yes"/>
      <point x="206" y="88"/>
      <point x="191" y="90"/>
      <point x="171" y="90" type="curve" smooth="yes"/>
      <point x="164" y="90"/>
      <point x="158" y="87"/>
      <point x="153" y="80" type="curve" smooth="yes"/>
      <point x="147" y="72"/>
      <point x="140" y="58"/>
      <point x="131" y="38" type="curve" smooth="yes"/>
      <point x="127" y="28"/>
      <point x="125" y="20"/>
      <point x="125" y="15" type="curve" smooth="yes"/>
      <point x="125" y="8"/>
      <point x="128" y="2"/>
      <point x="135" y="-1" type="curve" smooth="yes"/>
      <point x="142" y="-5"/>
      <point x="155" y="-8"/>
      <point x="173" y="-9" type="curve" smooth="yes"/>
      <point x="180" y="-9"/>
      <point x="187" y="-8"/>
      <point x="193" y="-5" type="curve" smooth="yes"/>
      <point x="200" y="-2"/>
      <point x="205" y="5"/>
      <point x="209" y="14" type="curve" smooth="yes"/>
    </contour>
    <contour>
      <point x="225" y="513" type="curve"/>
      <point x="225" y="534"/>
      <point x="218" y="551"/>
      <point x="205" y="564" type="curve" smooth="yes"/>
      <point x="194" y="575"/>
      <point x="180" y="581"/>
      <point x="163" y="581" type="curve" smooth="yes"/>
      <point x="155" y="581"/>
      <point x="149" y="577"/>
      <point x="144" y="570" type="curve" smooth="yes"/>
      <point x="139" y="563"/>
      <point x="136" y="554"/>
      <point x="136" y="544" type="curve" smooth="yes"/>
      <point x="141" y="384" type="line"/>
      <point x="138" y="201" type="line" smooth="yes"/>
      <point x="138" y="177"/>
      <point x="144" y="158"/>
      <point x="156" y="143" type="curve" smooth="yes"/>
      <point x="166" y="131"/>
      <point x="177" y="125"/>
      <point x="189" y="125" type="curve" smooth="yes"/>
      <point x="193" y="125"/>
      <point x="196" y="126"/>
      <point x="198" y="128" type="curve" smooth="yes"/>
      <point x="200" y="129"/>
      <point x="201" y="132"/>
      <point x="201" y="135" type="curve" smooth="yes"/>
      <point x="201" y="278"/>
      <point x="209" y="404"/>
    </contour>
  </outline>
</glyph>
<glyph name="quotedbl" format="1">
  <advance width="505"/>
  <unicode hex="0022"/>
  <outline>
    <contour>
      <point x="400" y="503" type="line" name="hr00"/>
      <point x="442" y="503" type="line"/>
      <point x="402" y="766" type="line"/>
      <point x="281" y="766" type="line"/>
    </contour>
    <contour>
      <point x="181" y="503" type="line"/>
      <point x="223" y="503" type="line"/>
      <point x="183" y="766" type="line"/>
      <point x="62" y="766" type="line"/>
    </contour>
  </outline>
</glyph>
<glyph name="numbersign" format="1">
  <advance width="890"/>
  <unicode hex="0023"/>
  <outline>
    <contour>
      <point x="507" y="274" type="line" name="hr00"/>
      <point x="330" y="274" type="line"/>
      <point x="387" y="450" type="line"/>
      <point x="563" y="450" type="line"/>
    </contour>
    <contour>
      <point x="296" y="450" type="line"/>
      <point x="238" y="274" type="line"/>
      <point x="62" y="274" type="line"/>
      <point x="62" y="183" type="line"/>
      <point x="210" y="183" type="line"/>
      <point x="151" y="0" type="line"/>
      <point x="242" y="0" type="line"/>
      <point x="301" y="183" type="line"/>
      <point x="477" y="183" type="line"/>
      <point x="418" y="0" type="line"/>
      <point x="510" y="0" type="line"/>
      <point x="568" y="183" type="line"/>
      <point x="760" y="183" type="line"/>
      <point x="760" y="274" type="line"/>
      <point x="597" y="274" type="line"/>
      <point x="655" y="450" type="line"/>
      <point x="827" y="450" type="line"/>
      <point x="827" y="541" type="line"/>
      <point x="685" y="541" type="line"/>
      <point x="735" y="698" type="line"/>
      <point x="643" y="698" type="line"/>
      <point x="593" y="541" type="line"/>
      <point x="417" y="541" type="line"/>
      <point x="467" y="698" type="line"/>
      <point x="376" y="698" type="line"/>
      <point x="326" y="541" type="line"/>
      <point x="130" y="541" type="line"/>
      <point x="130" y="450" type="line"/>
    </contour>
  </outline>
</glyph>
<glyph name="dollar" format="1">
  <advance width="712"/>
  <unicode hex="0024"/>
  <outline>
    <contour>
      <point x="331" y="470" type="line" name="hr00"/>
      <point x="296" y="482"/>
      <point x="267" y="499"/>
      <point x="245" y="520" type="curve" smooth="yes"/>
      <point x="223" y="542"/>
      <point x="212" y="565"/>
      <point x="212" y="589" type="curve" smooth="yes"/>
      <point x="212" y="617"/>
      <point x="224" y="642"/>
      <point x="247" y="663" type="curve" smooth="yes"/>
      <point x="270" y="683"/>
      <point x="298" y="693"/>
      <point x="331" y="693" type="curve"/>
    </contour>
    <contour>
      <point x="387" y="324" type="line"/>
      <point x="430" y="308"/>
      <point x="465" y="288"/>
      <point x="491" y="263" type="curve" smooth="yes"/>
      <point x="518" y="238"/>
      <point x="531" y="214"/>
      <point x="531" y="189" type="curve" smooth="yes"/>
      <point x="531" y="149"/>
      <point x="517" y="115"/>
      <point x="488" y="86" type="curve" smooth="yes"/>
      <point x="461" y="58"/>
      <point x="427" y="44"/>
      <point x="387" y="44" type="curve"/>
    </contour>
    <contour>
      <point x="100" y="550" type="curve" smooth="yes"/>
      <point x="100" y="507"/>
      <point x="121" y="467"/>
      <point x="163" y="428" type="curve" smooth="yes"/>
      <point x="206" y="389"/>
      <point x="262" y="359"/>
      <point x="331" y="339" type="curve"/>
      <point x="331" y="44" type="line"/>
      <point x="287" y="47"/>
      <point x="244" y="65"/>
      <point x="202" y="99" type="curve" smooth="yes"/>
      <point x="161" y="132"/>
      <point x="127" y="178"/>
      <point x="100" y="234" type="curve"/>
      <point x="62" y="234" type="line"/>
      <point x="100" y="13" type="line"/>
      <point x="137" y="13" type="line"/>
      <point x="140" y="22"/>
      <point x="147" y="29"/>
      <point x="156" y="34" type="curve" smooth="yes"/>
      <point x="165" y="40"/>
      <point x="176" y="43"/>
      <point x="187" y="43" type="curve" smooth="yes"/>
      <point x="198" y="43"/>
      <point x="219" y="35"/>
      <point x="250" y="20" type="curve" smooth="yes"/>
      <point x="265" y="13"/>
      <point x="292" y="7"/>
      <point x="331" y="3" type="curve"/>
      <point x="331" y="-114" type="line"/>
      <point x="387" y="-114" type="line"/>
      <point x="387" y="1" type="line"/>
      <point x="460" y="4"/>
      <point x="522" y="25"/>
      <point x="573" y="64" type="curve" smooth="yes"/>
      <point x="624" y="104"/>
      <point x="650" y="151"/>
      <point x="650" y="205" type="curve" smooth="yes"/>
      <point x="650" y="257"/>
      <point x="625" y="306"/>
      <point x="576" y="351" type="curve" smooth="yes"/>
      <point x="527" y="396"/>
      <point x="464" y="429"/>
      <point x="387" y="448" type="curve"/>
      <point x="387" y="693" type="line"/>
      <point x="436" y="684"/>
      <point x="481" y="664"/>
      <point x="521" y="633" type="curve" smooth="yes"/>
      <point x="561" y="601"/>
      <point x="591" y="562"/>
      <point x="612" y="515" type="curve"/>
      <point x="637" y="515" type="line"/>
      <point x="612" y="736" type="line"/>
      <point x="581" y="736" type="line"/>
      <point x="578" y="726"/>
      <point x="572" y="718"/>
      <point x="561" y="713" type="curve"/>
      <point x="551" y="707"/>
      <point x="539" y="704"/>
      <point x="525" y="704" type="curve" smooth="yes"/>
      <point x="509" y="704"/>
      <point x="486" y="709"/>
      <point x="456" y="718" type="curve" smooth="yes"/>
      <point x="426" y="728"/>
      <point x="403" y="733"/>
      <point x="387" y="733" type="curve"/>
      <point x="387" y="855" type="line"/>
      <point x="331" y="855" type="line"/>
      <point x="331" y="736" type="line"/>
      <point x="267" y="736"/>
      <point x="212" y="717"/>
      <point x="167" y="681" type="curve" smooth="yes"/>
      <point x="122" y="645"/>
      <point x="100" y="602"/>
    </contour>
  </outline>
</glyph>
<glyph name="percent" format="1">
  <advance width="881"/>
  <unicode hex="0025"/>
  <outline>
    <contour>
      <point x="318" y="349" type="curve" smooth="yes" name="hr00"/>
      <point x="319" y="312"/>
      <point x="310" y="283"/>
      <point x="295" y="261" type="curve" smooth="yes"/>
      <point x="278" y="238"/>
      <point x="254" y="226"/>
      <point x="223" y="226" type="curve" smooth="yes"/>
      <point x="190" y="226"/>
      <point x="166" y="239"/>
      <point x="153" y="265" type="curve" smooth="yes"/>
      <point x="141" y="288"/>
      <point x="135" y="325"/>
      <point x="135" y="376" type="curve" smooth="yes"/>
      <point x="135" y="407"/>
      <point x="142" y="432"/>
      <point x="157" y="451" type="curve" smooth="yes"/>
      <point x="173" y="471"/>
      <point x="195" y="481"/>
      <point x="223" y="481" type="curve" smooth="yes"/>
      <point x="260" y="481"/>
      <point x="286" y="468"/>
      <point x="300" y="443" type="curve" smooth="yes"/>
      <point x="311" y="424"/>
      <point x="317" y="393"/>
    </contour>
    <contour>
      <point x="631" y="523" type="curve" smooth="yes"/>
      <point x="631" y="532"/>
      <point x="627" y="540"/>
      <point x="618" y="548" type="curve" smooth="yes"/>
      <point x="610" y="555"/>
      <point x="600" y="558"/>
      <point x="588" y="559" type="curve"/>
      <point x="240" y="-24" type="line"/>
      <point x="240" y="-31"/>
      <point x="243" y="-38"/>
      <point x="250" y="-45" type="curve"/>
      <point x="255" y="-52"/>
      <point x="261" y="-56"/>
      <point x="267" y="-56" type="curve"/>
      <point x="296" y="-25"/>
      <point x="331" y="32"/>
      <point x="380" y="113" type="curve" smooth="yes"/>
      <point x="618" y="501" type="line"/>
      <point x="621" y="504"/>
      <point x="624" y="508"/>
      <point x="627" y="513" type="curve" smooth="yes"/>
      <point x="630" y="517"/>
      <point x="631" y="520"/>
    </contour>
    <contour>
      <point x="392" y="366" type="curve" smooth="yes"/>
      <point x="391" y="421"/>
      <point x="373" y="460"/>
      <point x="345" y="486" type="curve" smooth="yes"/>
      <point x="319" y="511"/>
      <point x="280" y="523"/>
      <point x="227" y="523" type="curve" smooth="yes"/>
      <point x="180" y="523"/>
      <point x="141" y="510"/>
      <point x="112" y="485" type="curve" smooth="yes"/>
      <point x="79" y="455"/>
      <point x="62" y="410"/>
      <point x="62" y="350" type="curve" smooth="yes"/>
      <point x="62" y="295"/>
      <point x="75" y="253"/>
      <point x="100" y="224" type="curve" smooth="yes"/>
      <point x="127" y="192"/>
      <point x="166" y="176"/>
      <point x="218" y="176" type="curve" smooth="yes"/>
      <point x="268" y="176"/>
      <point x="309" y="191"/>
      <point x="340" y="221" type="curve" smooth="yes"/>
      <point x="375" y="256"/>
      <point x="394" y="304"/>
    </contour>
    <contour>
      <point x="745" y="148" type="curve" smooth="yes"/>
      <point x="746" y="111"/>
      <point x="737" y="82"/>
      <point x="721" y="60" type="curve" smooth="yes"/>
      <point x="704" y="37"/>
      <point x="681" y="25"/>
      <point x="650" y="25" type="curve" smooth="yes"/>
      <point x="617" y="25"/>
      <point x="594" y="38"/>
      <point x="580" y="64" type="curve" smooth="yes"/>
      <point x="568" y="87"/>
      <point x="561" y="124"/>
      <point x="561" y="175" type="curve" smooth="yes"/>
      <point x="561" y="207"/>
      <point x="568" y="232"/>
      <point x="583" y="251" type="curve" smooth="yes"/>
      <point x="599" y="271"/>
      <point x="621" y="281"/>
      <point x="650" y="281" type="curve" smooth="yes"/>
      <point x="687" y="281"/>
      <point x="712" y="268"/>
      <point x="726" y="243" type="curve" smooth="yes"/>
      <point x="736" y="224"/>
      <point x="743" y="192"/>
    </contour>
    <contour>
      <point x="818" y="165" type="curve" smooth="yes"/>
      <point x="817" y="221"/>
      <point x="799" y="261"/>
      <point x="772" y="286" type="curve" smooth="yes"/>
      <point x="745" y="311"/>
      <point x="706" y="323"/>
      <point x="653" y="323" type="curve" smooth="yes"/>
      <point x="606" y="323"/>
      <point x="568" y="310"/>
      <point x="540" y="285" type="curve" smooth="yes"/>
      <point x="505" y="255"/>
      <point x="488" y="210"/>
      <point x="488" y="149" type="curve" smooth="yes"/>
      <point x="488" y="94"/>
      <point x="501" y="52"/>
      <point x="526" y="23" type="curve" smooth="yes"/>
      <point x="553" y="-8"/>
      <point x="592" y="-24"/>
      <point x="645" y="-24" type="curve" smooth="yes"/>
      <point x="695" y="-24"/>
      <point x="735" y="-9"/>
      <point x="766" y="21" type="curve" smooth="yes"/>
      <point x="801" y="54"/>
      <point x="820" y="102"/>
    </contour>
  </outline>
</glyph>
<glyph name="ampersand" format="1">
  <advance width="845"/>
  <unicode hex="0026"/>
  <outline>
    <contour>
      <point x="350" y="431" type="curve" name="hr00"/>
      <point x="341" y="444"/>
      <point x="333" y="461"/>
      <point x="328" y="484" type="curve" smooth="yes"/>
      <point x="323" y="507"/>
      <point x="321" y="533"/>
      <point x="321" y="563" type="curve" smooth="yes"/>
      <point x="321" y="586"/>
      <point x="326" y="606"/>
      <point x="338" y="623" type="curve" smooth="yes"/>
      <point x="350" y="640"/>
      <point x="365" y="648"/>
      <point x="382" y="648" type="curve" smooth="yes"/>
      <point x="397" y="648"/>
      <point x="410" y="640"/>
      <point x="420" y="625" type="curve" smooth="yes"/>
      <point x="431" y="610"/>
      <point x="436" y="592"/>
      <point x="436" y="571" type="curve" smooth="yes"/>
      <point x="436" y="540"/>
      <point x="428" y="512"/>
      <point x="412" y="486" type="curve" smooth="yes"/>
      <point x="396" y="461"/>
      <point x="375" y="443"/>
    </contour>
    <contour>
      <point x="303" y="76" type="curve" smooth="yes"/>
      <point x="270" y="76"/>
      <point x="241" y="87"/>
      <point x="218" y="109" type="curve" smooth="yes"/>
      <point x="195" y="132"/>
      <point x="183" y="158"/>
      <point x="183" y="189" type="curve" smooth="yes"/>
      <point x="183" y="225"/>
      <point x="192" y="258"/>
      <point x="210" y="288" type="curve" smooth="yes"/>
      <point x="228" y="317"/>
      <point x="252" y="339"/>
      <point x="282" y="354" type="curve"/>
      <point x="328" y="260"/>
      <point x="379" y="179"/>
      <point x="436" y="111" type="curve"/>
      <point x="423" y="100"/>
      <point x="405" y="91"/>
      <point x="382" y="85" type="curve" smooth="yes"/>
      <point x="359" y="79"/>
      <point x="332" y="76"/>
    </contour>
    <contour>
      <point x="241" y="-2" type="curve" smooth="yes"/>
      <point x="282" y="-2"/>
      <point x="322" y="5"/>
      <point x="360" y="21" type="curve" smooth="yes"/>
      <point x="397" y="36"/>
      <point x="430" y="60"/>
      <point x="458" y="89" type="curve"/>
      <point x="483" y="60"/>
      <point x="510" y="37"/>
      <point x="541" y="21" type="curve" smooth="yes"/>
      <point x="571" y="6"/>
      <point x="601" y="-2"/>
      <point x="632" y="-2" type="curve" smooth="yes"/>
      <point x="658" y="-2"/>
      <point x="684" y="8"/>
      <point x="711" y="28" type="curve" smooth="yes"/>
      <point x="738" y="49"/>
      <point x="762" y="76"/>
      <point x="782" y="111" type="curve"/>
      <point x="765" y="121" type="line"/>
      <point x="756" y="106"/>
      <point x="743" y="94"/>
      <point x="726" y="85" type="curve" smooth="yes"/>
      <point x="709" y="76"/>
      <point x="689" y="71"/>
      <point x="668" y="71" type="curve" smooth="yes"/>
      <point x="651" y="71"/>
      <point x="630" y="79"/>
      <point x="607" y="96" type="curve" smooth="yes"/>
      <point x="584" y="113"/>
      <point x="560" y="136"/>
      <point x="535" y="166" type="curve"/>
      <point x="557" y="185"/>
      <point x="587" y="239"/>
      <point x="632" y="325" type="curve" smooth="yes"/>
      <point x="647" y="355"/>
      <point x="665" y="376"/>
      <point x="681" y="391" type="curve" smooth="yes"/>
      <point x="698" y="408"/>
      <point x="712" y="416"/>
      <point x="723" y="416" type="curve" smooth="yes"/>
      <point x="741" y="416" type="line"/>
      <point x="741" y="436" type="line"/>
      <point x="522" y="436" type="line"/>
      <point x="522" y="416" type="line"/>
      <point x="541" y="416" type="line" smooth="yes"/>
      <point x="555" y="416"/>
      <point x="567" y="412"/>
      <point x="576" y="403" type="curve" smooth="yes"/>
      <point x="586" y="394"/>
      <point x="591" y="384"/>
      <point x="591" y="371" type="curve" smooth="yes"/>
      <point x="591" y="347"/>
      <point x="582" y="320"/>
      <point x="568" y="290" type="curve" smooth="yes"/>
      <point x="553" y="259"/>
      <point x="533" y="228"/>
      <point x="506" y="195" type="curve"/>
      <point x="469" y="238"/>
      <point x="425" y="305"/>
      <point x="373" y="395" type="curve"/>
      <point x="422" y="422"/>
      <point x="460" y="453"/>
      <point x="487" y="486" type="curve" smooth="yes"/>
      <point x="514" y="519"/>
      <point x="528" y="551"/>
      <point x="528" y="581" type="curve" smooth="yes"/>
      <point x="528" y="611"/>
      <point x="514" y="638"/>
      <point x="487" y="659" type="curve" smooth="yes"/>
      <point x="459" y="681"/>
      <point x="425" y="690"/>
      <point x="386" y="690" type="curve" smooth="yes"/>
      <point x="339" y="690"/>
      <point x="298" y="676"/>
      <point x="263" y="645" type="curve" smooth="yes"/>
      <point x="230" y="615"/>
      <point x="213" y="579"/>
      <point x="213" y="536" type="curve" smooth="yes"/>
      <point x="213" y="502"/>
      <point x="229" y="458"/>
      <point x="261" y="403" type="curve"/>
      <point x="201" y="381"/>
      <point x="154" y="349"/>
      <point x="117" y="306" type="curve" smooth="yes"/>
      <point x="81" y="264"/>
      <point x="62" y="219"/>
      <point x="62" y="171" type="curve" smooth="yes"/>
      <point x="62" y="123"/>
      <point x="80" y="82"/>
      <point x="115" y="49" type="curve" smooth="yes"/>
      <point x="150" y="15"/>
      <point x="192" y="-2"/>
    </contour>
  </outline>
</glyph>
<glyph name="quotesingle" format="1">
  <advance width="286"/>
  <unicode hex="0027"/>
  <outline>
    <contour>
      <point x="181" y="503" type="line" name="hr00"/>
      <point x="223" y="503" type="line"/>
      <point x="183" y="766" type="line"/>
      <point x="62" y="766" type="line"/>
    </contour>
  </outline>
</glyph>
<glyph name="parenleft" format="1">
  <advance width="371"/>
  <unicode hex="0028"/>
  <outline>
    <contour>
      <point x="281" y="750" type="line" name="hr00"/>
      <point x="194" y="660"/>
      <point x="129" y="563"/>
      <point x="88" y="460" type="curve" smooth="yes"/>
      <point x="70" y="415"/>
      <point x="62" y="367"/>
      <point x="62" y="316" type="curve" smooth="yes"/>
      <point x="62" y="238"/>
      <point x="76" y="166"/>
      <point x="103" y="101" type="curve" smooth="yes"/>
      <point x="133" y="31"/>
      <point x="181" y="-36"/>
      <point x="248" y="-99" type="curve"/>
      <point x="292" y="-75" type="line"/>
      <point x="216" y="21"/>
      <point x="171" y="103"/>
      <point x="156" y="171" type="curve" smooth="yes"/>
      <point x="147" y="212"/>
      <point x="142" y="262"/>
      <point x="142" y="321" type="curve" smooth="yes"/>
      <point x="142" y="387"/>
      <point x="155" y="452"/>
      <point x="182" y="515" type="curve" smooth="yes"/>
      <point x="209" y="580"/>
      <point x="251" y="645"/>
      <point x="308" y="710" type="curve"/>
    </contour>
  </outline>
</glyph>
<glyph name="parenright" format="1">
  <advance width="381"/>
  <unicode hex="0029"/>
  <outline>
    <contour>
      <point x="318" y="308" type="curve" smooth="yes" name="hr00"/>
      <point x="318" y="391"/>
      <point x="299" y="470"/>
      <point x="260" y="545" type="curve" smooth="yes"/>
      <point x="229" y="605"/>
      <point x="184" y="665"/>
      <point x="125" y="724" type="curve"/>
      <point x="83" y="700" type="line"/>
      <point x="159" y="595"/>
      <point x="205" y="507"/>
      <point x="221" y="434" type="curve" smooth="yes"/>
      <point x="232" y="382"/>
      <point x="238" y="337"/>
      <point x="238" y="300" type="curve" smooth="yes"/>
      <point x="238" y="232"/>
      <point x="221" y="163"/>
      <point x="187" y="93" type="curve" smooth="yes"/>
      <point x="157" y="30"/>
      <point x="115" y="-30"/>
      <point x="62" y="-86" type="curve"/>
      <point x="95" y="-126" type="line"/>
      <point x="168" y="-45"/>
      <point x="222" y="28"/>
      <point x="257" y="94" type="curve" smooth="yes"/>
      <point x="298" y="169"/>
      <point x="318" y="240"/>
    </contour>
  </outline>
</glyph>
<glyph name="asterisk" format="1">
  <advance width="716"/>
  <unicode hex="002A"/>
  <outline>
    <contour>
      <point x="256" y="192" type="line" name="hr00"/>
      <point x="186" y="-6" type="line"/>
      <point x="368" y="119" type="line"/>
      <point x="552" y="-3" type="line"/>
      <point x="478" y="192" type="line"/>
      <point x="663" y="324" type="line"/>
      <point x="439" y="324" type="line"/>
      <point x="368" y="513" type="line"/>
      <point x="300" y="324" type="line"/>
      <point x="67" y="324" type="line"/>
    </contour>
  </outline>
</glyph>
<glyph name="plus" format="1">
  <advance width="637"/>
  <unicode hex="002B"/>
  <outline>
    <contour>
      <point x="575" y="290" type="line" name="hr00"/>
      <point x="352" y="290" type="line"/>
      <point x="352" y="513" type="line"/>
      <point x="285" y="513" type="line"/>
      <point x="285" y="293" type="line"/>
      <point x="62" y="293" type="line"/>
      <point x="62" y="225" type="line"/>
      <point x="278" y="225" type="line"/>
      <point x="278" y="1" type="line"/>
      <point x="350" y="1" type="line"/>
      <point x="350" y="223" type="line"/>
      <point x="575" y="223" type="line"/>
    </contour>
  </outline>
</glyph>
<glyph name="comma" format="1">
  <advance width="293"/>
  <unicode hex="002C"/>
  <outline>
    <contour>
      <point x="231" y="41" type="curve" smooth="yes" name="hr00"/>
      <point x="231" y="59"/>
      <point x="226" y="73"/>
      <point x="217" y="84" type="curve" smooth="yes"/>
      <point x="208" y="95"/>
      <point x="196" y="100"/>
      <point x="182" y="100" type="curve" smooth="yes"/>
      <point x="156" y="100"/>
      <point x="136" y="68"/>
      <point x="122" y="3" type="curve" smooth="yes"/>
      <point x="109" y="-56"/>
      <point x="96" y="-101"/>
      <point x="77" y="-129" type="curve" smooth="yes"/>
      <point x="73" y="-135" type="line" smooth="yes"/>
      <point x="66" y="-146"/>
      <point x="62" y="-155"/>
      <point x="62" y="-160" type="curve" smooth="yes"/>
      <point x="62" y="-165"/>
      <point x="63" y="-168"/>
      <point x="66" y="-171" type="curve" smooth="yes"/>
      <point x="69" y="-174"/>
      <point x="73" y="-176"/>
      <point x="78" y="-176" type="curve" smooth="yes"/>
      <point x="93" y="-176"/>
      <point x="116" y="-156"/>
      <point x="147" y="-115" type="curve" smooth="yes"/>
      <point x="161" y="-96"/>
      <point x="181" y="-69"/>
      <point x="205" y="-31" type="curve" smooth="yes"/>
      <point x="223" y="-3"/>
      <point x="231" y="22"/>
    </contour>
  </outline>
</glyph>
<glyph name="hyphen" format="1">
  <advance width="482"/>
  <unicode hex="002D"/>
  <outline>
    <contour>
      <point x="420" y="243" type="curve" smooth="yes" name="hr00"/>
      <point x="420" y="258"/>
      <point x="412" y="268"/>
      <point x="397" y="273" type="curve" smooth="yes"/>
      <point x="384" y="278"/>
      <point x="361" y="282"/>
      <point x="327" y="280" type="curve" smooth="yes"/>
      <point x="213" y="274" type="line" smooth="yes"/>
      <point x="173" y="272"/>
      <point x="141" y="277"/>
      <point x="118" y="284" type="curve"/>
      <point x="111" y="287"/>
      <point x="105" y="288"/>
      <point x="100" y="288" type="curve" smooth="yes"/>
      <point x="87" y="288"/>
      <point x="78" y="286"/>
      <point x="73" y="283" type="curve" smooth="yes"/>
      <point x="66" y="278"/>
      <point x="62" y="268"/>
      <point x="62" y="255" type="curve" smooth="yes"/>
      <point x="62" y="238"/>
      <point x="82" y="226"/>
      <point x="123" y="218" type="curve" smooth="yes"/>
      <point x="155" y="212"/>
      <point x="198" y="208"/>
      <point x="251" y="209" type="curve" smooth="yes"/>
      <point x="365" y="211" type="line"/>
      <point x="396" y="211" type="line"/>
      <point x="406" y="213"/>
      <point x="413" y="218"/>
      <point x="417" y="225" type="curve" smooth="yes"/>
      <point x="419" y="230"/>
      <point x="420" y="236"/>
    </contour>
  </outline>
</glyph>
<glyph name="period" format="1">
  <advance width="215"/>
  <unicode hex="002E"/>
  <outline>
    <contour>
      <point x="152" y="51" type="line" smooth="yes" name="hr00"/>
      <point x="152" y="64"/>
      <point x="146" y="74"/>
      <point x="135" y="81" type="curve" smooth="yes"/>
      <point x="122" y="88"/>
      <point x="103" y="91"/>
      <point x="78" y="91" type="curve" smooth="yes"/>
      <point x="76" y="91" type="line" smooth="yes"/>
      <point x="67" y="92"/>
      <point x="62" y="82"/>
      <point x="62" y="61" type="curve" smooth="yes"/>
      <point x="63" y="19" type="line" smooth="yes"/>
      <point x="63" y="12"/>
      <point x="65" y="7"/>
      <point x="68" y="3" type="curve" smooth="yes"/>
      <point x="71" y="-2"/>
      <point x="78" y="-7"/>
      <point x="88" y="-10" type="curve"/>
      <point x="94" y="-14"/>
      <point x="106" y="-15"/>
      <point x="123" y="-15" type="curve" smooth="yes"/>
      <point x="131" y="-15" type="line" smooth="yes"/>
      <point x="137" y="-15"/>
      <point x="142" y="-13"/>
      <point x="145" y="-10" type="curve" smooth="yes"/>
      <point x="150" y="-6"/>
      <point x="152" y="1"/>
      <point x="152" y="11" type="curve" smooth="yes"/>
    </contour>
  </outline>
</glyph>
<glyph name="slash" format="1">
  <advance width="512"/>
  <unicode hex="002F"/>
  <outline>
    <contour>
      <point x="450" y="644" type="curve" smooth="yes" name="hr00"/>
      <point x="450" y="655"/>
      <point x="443" y="664"/>
      <point x="428" y="673" type="curve" smooth="yes"/>
      <point x="415" y="680"/>
      <point x="401" y="683"/>
      <point x="388" y="683" type="curve"/>
      <point x="327" y="534" type="line" smooth="yes"/>
      <point x="308" y="488"/>
      <point x="297" y="457"/>
      <point x="291" y="441" type="curve" smooth="yes"/>
      <point x="123" y="-2" type="line"/>
      <point x="67" y="-137" type="line"/>
      <point x="64" y="-142"/>
      <point x="62" y="-146"/>
      <point x="62" y="-151" type="curve" smooth="yes"/>
      <point x="62" y="-168"/>
      <point x="68" y="-182"/>
      <point x="80" y="-194" type="curve" smooth="yes"/>
      <point x="90" y="-204"/>
      <point x="99" y="-209"/>
      <point x="108" y="-209" type="curve"/>
      <point x="128" y="-173"/>
      <point x="161" y="-104"/>
      <point x="201" y="0" type="curve" smooth="yes"/>
      <point x="438" y="614" type="line"/>
      <point x="443" y="620"/>
      <point x="446" y="625"/>
      <point x="447" y="629" type="curve" smooth="yes"/>
      <point x="449" y="634"/>
      <point x="450" y="639"/>
    </contour>
  </outline>
</glyph>
<glyph name="zero" format="1">
  <advance width="606"/>
  <unicode hex="0030"/>
  <outline>
    <contour>
      <point x="448" y="243" type="curve" smooth="yes" name="hr00"/>
      <point x="449" y="173"/>
      <point x="437" y="122"/>
      <point x="413" y="90" type="curve" smooth="yes"/>
      <point x="390" y="59"/>
      <point x="350" y="44"/>
      <point x="297" y="44" type="curve" smooth="yes"/>
      <point x="256" y="44"/>
      <point x="223" y="60"/>
      <point x="197" y="93" type="curve" smooth="yes"/>
      <point x="168" y="128"/>
      <point x="153" y="175"/>
      <point x="153" y="236" type="curve" smooth="yes"/>
      <point x="153" y="302"/>
      <point x="164" y="353"/>
      <point x="186" y="390" type="curve" smooth="yes"/>
      <point x="213" y="435"/>
      <point x="255" y="458"/>
      <point x="312" y="458" type="curve" smooth="yes"/>
      <point x="356" y="458"/>
      <point x="389" y="440"/>
      <point x="412" y="404" type="curve" smooth="yes"/>
      <point x="434" y="369"/>
      <point x="446" y="315"/>
    </contour>
    <contour>
      <point x="537" y="249" type="curve" smooth="yes"/>
      <point x="537" y="335"/>
      <point x="521" y="398"/>
      <point x="488" y="438" type="curve" smooth="yes"/>
      <point x="457" y="477"/>
      <point x="407" y="496"/>
      <point x="338" y="496" type="curve" smooth="yes"/>
      <point x="257" y="496"/>
      <point x="192" y="472"/>
      <point x="143" y="424" type="curve" smooth="yes"/>
      <point x="93" y="375"/>
      <point x="68" y="311"/>
      <point x="68" y="231" type="curve" smooth="yes"/>
      <point x="68" y="166"/>
      <point x="79" y="113"/>
      <point x="102" y="74" type="curve" smooth="yes"/>
      <point x="133" y="21"/>
      <point x="186" y="-5"/>
      <point x="259" y="-5" type="curve" smooth="yes"/>
      <point x="336" y="-5"/>
      <point x="400" y="20"/>
      <point x="454" y="68" type="curve" smooth="yes"/>
      <point x="508" y="117"/>
      <point x="537" y="176"/>
    </contour>
  </outline>
</glyph>
<glyph name="one" format="1">
  <advance width="607"/>
  <unicode hex="0031"/>
  <outline>
    <contour>
      <point x="376" y="485" type="curve" smooth="yes" name="hr00"/>
      <point x="376" y="490"/>
      <point x="374" y="494"/>
      <point x="371" y="496" type="curve" smooth="yes"/>
      <point x="368" y="498"/>
      <point x="362" y="499"/>
      <point x="353" y="499" type="curve" smooth="yes"/>
      <point x="341" y="499"/>
      <point x="319" y="489"/>
      <point x="288" y="469" type="curve" smooth="yes"/>
      <point x="241" y="440"/>
      <point x="199" y="419"/>
      <point x="160" y="403" type="curve" smooth="yes"/>
      <point x="150" y="399" type="line" smooth="yes"/>
      <point x="126" y="389"/>
      <point x="114" y="381"/>
      <point x="114" y="376" type="curve" smooth="yes"/>
      <point x="114" y="368"/>
      <point x="119" y="361"/>
      <point x="128" y="356" type="curve" smooth="yes"/>
      <point x="138" y="351"/>
      <point x="150" y="348"/>
      <point x="163" y="348" type="curve" smooth="yes"/>
      <point x="175" y="348"/>
      <point x="191" y="352"/>
      <point x="210" y="361" type="curve" smooth="yes"/>
      <point x="229" y="370"/>
      <point x="251" y="383"/>
      <point x="274" y="400" type="curve"/>
      <point x="274" y="361"/>
      <point x="269" y="302"/>
      <point x="260" y="225" type="curve" smooth="yes"/>
      <point x="251" y="148"/>
      <point x="246" y="90"/>
      <point x="246" y="51" type="curve"/>
      <point x="120" y="51" type="line" smooth="yes"/>
      <point x="113" y="51"/>
      <point x="108" y="49"/>
      <point x="103" y="44" type="curve" smooth="yes"/>
      <point x="98" y="39"/>
      <point x="95" y="32"/>
      <point x="95" y="25" type="curve" smooth="yes"/>
      <point x="95" y="18"/>
      <point x="98" y="13"/>
      <point x="103" y="8" type="curve" smooth="yes"/>
      <point x="108" y="3"/>
      <point x="113" y="0"/>
      <point x="120" y="0" type="curve" smooth="yes"/>
      <point x="488" y="0" type="line" smooth="yes"/>
      <point x="495" y="0"/>
      <point x="500" y="3"/>
      <point x="505" y="8" type="curve" smooth="yes"/>
      <point x="510" y="13"/>
      <point x="513" y="18"/>
      <point x="513" y="25" type="curve" smooth="yes"/>
      <point x="513" y="32"/>
      <point x="510" y="39"/>
      <point x="505" y="44" type="curve" smooth="yes"/>
      <point x="500" y="49"/>
      <point x="495" y="51"/>
      <point x="488" y="51" type="curve" smooth="yes"/>
      <point x="351" y="51" type="line"/>
      <point x="351" y="61"/>
      <point x="350" y="76"/>
      <point x="348" y="95" type="curve" smooth="yes"/>
      <point x="346" y="114"/>
      <point x="345" y="128"/>
      <point x="345" y="138" type="curve" smooth="yes"/>
      <point x="345" y="165"/>
      <point x="351" y="233"/>
      <point x="363" y="343" type="curve" smooth="yes"/>
      <point x="373" y="435" type="line" smooth="yes"/>
      <point x="376" y="459"/>
      <point x="376" y="476"/>
    </contour>
  </outline>
</glyph>
<glyph name="two" format="1">
  <advance width="607"/>
  <unicode hex="0032"/>
  <outline>
    <contour>
      <point x="558" y="29" type="curve" name="hr00"/>
      <point x="558" y="40"/>
      <point x="557" y="48"/>
      <point x="555" y="53" type="curve" smooth="yes"/>
      <point x="552" y="62"/>
      <point x="546" y="66"/>
      <point x="536" y="66" type="curve" smooth="yes"/>
      <point x="170" y="60" type="line"/>
      <point x="373" y="161" type="line" smooth="yes"/>
      <point x="422" y="185"/>
      <point x="459" y="219"/>
      <point x="490" y="251" type="curve" smooth="yes"/>
      <point x="526" y="290"/>
      <point x="544" y="326"/>
      <point x="544" y="359" type="curve" smooth="yes"/>
      <point x="544" y="408"/>
      <point x="525" y="445"/>
      <point x="486" y="468" type="curve" smooth="yes"/>
      <point x="455" y="487"/>
      <point x="412" y="496"/>
      <point x="358" y="496" type="curve" smooth="yes"/>
      <point x="289" y="496"/>
      <point x="228" y="481"/>
      <point x="175" y="451" type="curve" smooth="yes"/>
      <point x="112" y="416"/>
      <point x="81" y="367"/>
      <point x="81" y="305" type="curve" smooth="yes"/>
      <point x="81" y="281"/>
      <point x="89" y="261"/>
      <point x="105" y="245" type="curve" smooth="yes"/>
      <point x="121" y="230"/>
      <point x="142" y="223"/>
      <point x="168" y="223" type="curve" smooth="yes"/>
      <point x="186" y="223"/>
      <point x="203" y="226"/>
      <point x="219" y="233" type="curve" smooth="yes"/>
      <point x="235" y="240"/>
      <point x="247" y="250"/>
      <point x="256" y="263" type="curve"/>
      <point x="256" y="265"/>
      <point x="254" y="267"/>
      <point x="251" y="270" type="curve" smooth="yes"/>
      <point x="248" y="273"/>
      <point x="243" y="274"/>
      <point x="236" y="274" type="curve" smooth="yes"/>
      <point x="213" y="274"/>
      <point x="195" y="279"/>
      <point x="184" y="288" type="curve" smooth="yes"/>
      <point x="173" y="296"/>
      <point x="168" y="309"/>
      <point x="168" y="326" type="curve" smooth="yes"/>
      <point x="168" y="375"/>
      <point x="190" y="411"/>
      <point x="235" y="434" type="curve" smooth="yes"/>
      <point x="265" y="450"/>
      <point x="297" y="458"/>
      <point x="331" y="458" type="curve" smooth="yes"/>
      <point x="363" y="458"/>
      <point x="390" y="446"/>
      <point x="414" y="421" type="curve" smooth="yes"/>
      <point x="437" y="398"/>
      <point x="448" y="371"/>
      <point x="448" y="341" type="curve" smooth="yes"/>
      <point x="448" y="297"/>
      <point x="418" y="253"/>
      <point x="358" y="210" type="curve" smooth="yes"/>
      <point x="310" y="175"/>
      <point x="248" y="143"/>
      <point x="173" y="115" type="curve" smooth="yes"/>
      <point x="134" y="100"/>
      <point x="106" y="89"/>
      <point x="88" y="79" type="curve" smooth="yes"/>
      <point x="66" y="68"/>
      <point x="53" y="57"/>
      <point x="50" y="46" type="curve"/>
      <point x="50" y="32"/>
      <point x="54" y="20"/>
      <point x="61" y="11" type="curve" smooth="yes"/>
      <point x="71" y="0"/>
      <point x="86" y="-5"/>
      <point x="105" y="-5" type="curve" smooth="yes"/>
      <point x="265" y="-5"/>
      <point x="416" y="6"/>
    </contour>
  </outline>
</glyph>
<glyph name="three" format="1">
  <advance width="606"/>
  <unicode hex="0033"/>
  <outline>
    <contour>
      <point x="563" y="190" type="curve" smooth="yes" name="hr00"/>
      <point x="563" y="217"/>
      <point x="551" y="239"/>
      <point x="528" y="256" type="curve" smooth="yes"/>
      <point x="507" y="273"/>
      <point x="478" y="283"/>
      <point x="441" y="288" type="curve"/>
      <point x="481" y="300"/>
      <point x="511" y="317"/>
      <point x="531" y="338" type="curve" smooth="yes"/>
      <point x="548" y="357"/>
      <point x="557" y="379"/>
      <point x="557" y="404" type="curve" smooth="yes"/>
      <point x="557" y="432"/>
      <point x="539" y="454"/>
      <point x="503" y="471" type="curve" smooth="yes"/>
      <point x="468" y="488"/>
      <point x="420" y="496"/>
      <point x="360" y="496" type="curve" smooth="yes"/>
      <point x="271" y="496"/>
      <point x="193" y="472"/>
      <point x="126" y="425" type="curve" smooth="yes"/>
      <point x="117" y="418"/>
      <point x="110" y="413"/>
      <point x="107" y="408" type="curve"/>
      <point x="106" y="403"/>
      <point x="105" y="398"/>
      <point x="105" y="391" type="curve" smooth="yes"/>
      <point x="105" y="380"/>
      <point x="109" y="371"/>
      <point x="116" y="364" type="curve" smooth="yes"/>
      <point x="123" y="357"/>
      <point x="135" y="354"/>
      <point x="150" y="354" type="curve" smooth="yes"/>
      <point x="168" y="354"/>
      <point x="191" y="366"/>
      <point x="220" y="389" type="curve" smooth="yes"/>
      <point x="267" y="426"/>
      <point x="313" y="444"/>
      <point x="358" y="444" type="curve" smooth="yes"/>
      <point x="388" y="444"/>
      <point x="412" y="438"/>
      <point x="431" y="426" type="curve" smooth="yes"/>
      <point x="448" y="415"/>
      <point x="456" y="403"/>
      <point x="456" y="388" type="curve" smooth="yes"/>
      <point x="456" y="333"/>
      <point x="391" y="306"/>
      <point x="261" y="298" type="curve" smooth="yes"/>
      <point x="228" y="296" type="line"/>
      <point x="221" y="296" type="line" smooth="yes"/>
      <point x="184" y="296"/>
      <point x="165" y="284"/>
      <point x="165" y="263" type="curve" smooth="yes"/>
      <point x="165" y="257"/>
      <point x="168" y="252"/>
      <point x="173" y="249" type="curve" smooth="yes"/>
      <point x="180" y="245"/>
      <point x="189" y="243"/>
      <point x="201" y="243" type="curve"/>
      <point x="260" y="251"/>
      <point x="309" y="255"/>
      <point x="348" y="255" type="curve" smooth="yes"/>
      <point x="386" y="255"/>
      <point x="413" y="250"/>
      <point x="430" y="241" type="curve" smooth="yes"/>
      <point x="447" y="231"/>
      <point x="456" y="215"/>
      <point x="456" y="194" type="curve" smooth="yes"/>
      <point x="456" y="145"/>
      <point x="431" y="107"/>
      <point x="382" y="80" type="curve" smooth="yes"/>
      <point x="343" y="59"/>
      <point x="296" y="49"/>
      <point x="242" y="49" type="curve" smooth="yes"/>
      <point x="201" y="49"/>
      <point x="153" y="57"/>
      <point x="98" y="74" type="curve" smooth="yes"/>
      <point x="80" y="80"/>
      <point x="68" y="83"/>
      <point x="63" y="83" type="curve" smooth="yes"/>
      <point x="58" y="83"/>
      <point x="54" y="82"/>
      <point x="51" y="80" type="curve"/>
      <point x="47" y="79"/>
      <point x="44" y="75"/>
      <point x="42" y="69" type="curve"/>
      <point x="42" y="44"/>
      <point x="66" y="25"/>
      <point x="115" y="11" type="curve" smooth="yes"/>
      <point x="152" y="1"/>
      <point x="193" y="-5"/>
      <point x="237" y="-5" type="curve" smooth="yes"/>
      <point x="343" y="-5"/>
      <point x="426" y="16"/>
      <point x="486" y="59" type="curve" smooth="yes"/>
      <point x="537" y="95"/>
      <point x="563" y="139"/>
    </contour>
  </outline>
</glyph>
<glyph name="four" format="1">
  <advance width="606"/>
  <unicode hex="0034"/>
  <outline>
    <contour>
      <point x="560" y="179" type="curve" smooth="yes" name="hr00"/>
      <point x="560" y="185"/>
      <point x="557" y="189"/>
      <point x="552" y="190" type="curve" smooth="yes"/>
      <point x="550" y="191"/>
      <point x="543" y="191"/>
      <point x="532" y="191" type="curve" smooth="yes"/>
      <point x="457" y="188" type="line"/>
      <point x="467" y="335" type="line" smooth="yes"/>
      <point x="468" y="344"/>
      <point x="461" y="352"/>
      <point x="449" y="360" type="curve" smooth="yes"/>
      <point x="434" y="370"/>
      <point x="416" y="375"/>
      <point x="397" y="375" type="curve" smooth="yes"/>
      <point x="390" y="375"/>
      <point x="385" y="373"/>
      <point x="381" y="370" type="curve" smooth="yes"/>
      <point x="376" y="367"/>
      <point x="373" y="361"/>
      <point x="372" y="354" type="curve"/>
      <point x="364" y="191" type="line"/>
      <point x="251" y="191"/>
      <point x="167" y="197"/>
      <point x="112" y="210" type="curve"/>
      <point x="129" y="230" type="line"/>
      <point x="299" y="416" type="line"/>
      <point x="299" y="417"/>
      <point x="301" y="421"/>
      <point x="304" y="426" type="curve" smooth="yes"/>
      <point x="309" y="436"/>
      <point x="311" y="443"/>
      <point x="311" y="446" type="curve" smooth="yes"/>
      <point x="311" y="455"/>
      <point x="306" y="466"/>
      <point x="295" y="478" type="curve" smooth="yes"/>
      <point x="284" y="490"/>
      <point x="273" y="496"/>
      <point x="261" y="496" type="curve" smooth="yes"/>
      <point x="254" y="496"/>
      <point x="249" y="495"/>
      <point x="245" y="494" type="curve" smooth="yes"/>
      <point x="238" y="491"/>
      <point x="235" y="487"/>
      <point x="235" y="480" type="curve"/>
      <point x="66" y="233" type="line"/>
      <point x="59" y="220"/>
      <point x="54" y="210"/>
      <point x="51" y="201" type="curve" smooth="yes"/>
      <point x="48" y="193"/>
      <point x="46" y="186"/>
      <point x="46" y="181" type="curve" smooth="yes"/>
      <point x="46" y="164"/>
      <point x="55" y="153"/>
      <point x="74" y="144" type="curve" smooth="yes"/>
      <point x="93" y="135"/>
      <point x="121" y="128"/>
      <point x="160" y="129" type="curve" smooth="yes"/>
      <point x="362" y="134" type="line"/>
      <point x="360" y="50" type="line" smooth="yes"/>
      <point x="360" y="33"/>
      <point x="367" y="19"/>
      <point x="381" y="9" type="curve" smooth="yes"/>
      <point x="394" y="0"/>
      <point x="410" y="-5"/>
      <point x="429" y="-5" type="curve" smooth="yes"/>
      <point x="436" y="-5"/>
      <point x="442" y="-3"/>
      <point x="447" y="1" type="curve" smooth="yes"/>
      <point x="452" y="6"/>
      <point x="455" y="13"/>
      <point x="455" y="20" type="curve" smooth="yes"/>
      <point x="457" y="138" type="line"/>
      <point x="497" y="139"/>
      <point x="525" y="143"/>
      <point x="540" y="150" type="curve" smooth="yes"/>
      <point x="553" y="157"/>
      <point x="560" y="166"/>
    </contour>
  </outline>
</glyph>
<glyph name="five" format="1">
  <advance width="606"/>
  <unicode hex="0035"/>
  <outline>
    <contour>
      <point x="561" y="220" type="curve" smooth="yes" name="hr00"/>
      <point x="561" y="256"/>
      <point x="546" y="284"/>
      <point x="515" y="303" type="curve" smooth="yes"/>
      <point x="484" y="323"/>
      <point x="437" y="333"/>
      <point x="375" y="333" type="curve" smooth="yes"/>
      <point x="316" y="333"/>
      <point x="264" y="328"/>
      <point x="220" y="318" type="curve"/>
      <point x="228" y="438" type="line"/>
      <point x="468" y="426" type="line" smooth="yes"/>
      <point x="491" y="425"/>
      <point x="511" y="431"/>
      <point x="526" y="441" type="curve" smooth="yes"/>
      <point x="542" y="451"/>
      <point x="551" y="463"/>
      <point x="554" y="478" type="curve"/>
      <point x="554" y="483"/>
      <point x="551" y="487"/>
      <point x="546" y="491" type="curve" smooth="yes"/>
      <point x="542" y="494"/>
      <point x="538" y="496"/>
      <point x="535" y="496" type="curve"/>
      <point x="468" y="481"/>
      <point x="396" y="474"/>
      <point x="321" y="474" type="curve" smooth="yes"/>
      <point x="267" y="474"/>
      <point x="204" y="478"/>
      <point x="133" y="486" type="curve"/>
      <point x="114" y="258" type="line" smooth="yes"/>
      <point x="113" y="251"/>
      <point x="116" y="246"/>
      <point x="120" y="241" type="curve"/>
      <point x="124" y="238"/>
      <point x="128" y="236"/>
      <point x="133" y="236" type="curve" smooth="yes"/>
      <point x="140" y="236"/>
      <point x="157" y="243"/>
      <point x="184" y="256" type="curve" smooth="yes"/>
      <point x="227" y="276"/>
      <point x="257" y="287"/>
      <point x="275" y="289" type="curve"/>
      <point x="291" y="295"/>
      <point x="314" y="296"/>
      <point x="344" y="296" type="curve" smooth="yes"/>
      <point x="379" y="296"/>
      <point x="407" y="291"/>
      <point x="428" y="280" type="curve" smooth="yes"/>
      <point x="453" y="267"/>
      <point x="465" y="245"/>
      <point x="465" y="216" type="curve" smooth="yes"/>
      <point x="465" y="164"/>
      <point x="437" y="122"/>
      <point x="380" y="90" type="curve" smooth="yes"/>
      <point x="331" y="63"/>
      <point x="274" y="49"/>
      <point x="209" y="49" type="curve" smooth="yes"/>
      <point x="160" y="49"/>
      <point x="122" y="55"/>
      <point x="93" y="66" type="curve"/>
      <point x="64" y="74" type="line"/>
      <point x="60" y="74"/>
      <point x="56" y="72"/>
      <point x="51" y="68" type="curve"/>
      <point x="47" y="63"/>
      <point x="45" y="59"/>
      <point x="45" y="55" type="curve" smooth="yes"/>
      <point x="45" y="38"/>
      <point x="59" y="24"/>
      <point x="86" y="13" type="curve" smooth="yes"/>
      <point x="114" y="1"/>
      <point x="147" y="-5"/>
      <point x="185" y="-5" type="curve" smooth="yes"/>
      <point x="269" y="-5"/>
      <point x="353" y="21"/>
      <point x="438" y="74" type="curve" smooth="yes"/>
      <point x="520" y="125"/>
      <point x="561" y="173"/>
    </contour>
  </outline>
</glyph>
<glyph name="six" format="1">
  <advance width="606"/>
  <unicode hex="0036"/>
  <outline>
    <contour>
      <point x="478" y="179" type="curve" smooth="yes" name="hr00"/>
      <point x="478" y="140"/>
      <point x="456" y="107"/>
      <point x="413" y="80" type="curve" smooth="yes"/>
      <point x="373" y="54"/>
      <point x="329" y="41"/>
      <point x="282" y="41" type="curve" smooth="yes"/>
      <point x="235" y="41"/>
      <point x="196" y="51"/>
      <point x="167" y="71" type="curve" smooth="yes"/>
      <point x="140" y="90"/>
      <point x="127" y="114"/>
      <point x="127" y="141" type="curve" smooth="yes"/>
      <point x="127" y="188"/>
      <point x="147" y="223"/>
      <point x="188" y="246" type="curve" smooth="yes"/>
      <point x="223" y="266"/>
      <point x="270" y="276"/>
      <point x="328" y="276" type="curve" smooth="yes"/>
      <point x="379" y="276"/>
      <point x="417" y="268"/>
      <point x="441" y="253" type="curve" smooth="yes"/>
      <point x="466" y="237"/>
      <point x="478" y="212"/>
    </contour>
    <contour>
      <point x="568" y="209" type="curve" smooth="yes"/>
      <point x="568" y="248"/>
      <point x="549" y="276"/>
      <point x="510" y="293" type="curve" smooth="yes"/>
      <point x="473" y="308"/>
      <point x="412" y="315"/>
      <point x="327" y="315" type="curve" smooth="yes"/>
      <point x="294" y="315"/>
      <point x="257" y="308"/>
      <point x="217" y="295" type="curve"/>
      <point x="256" y="324"/>
      <point x="302" y="352"/>
      <point x="357" y="379" type="curve" smooth="yes"/>
      <point x="412" y="406"/>
      <point x="452" y="421"/>
      <point x="475" y="424" type="curve" smooth="yes"/>
      <point x="480" y="424"/>
      <point x="484" y="426"/>
      <point x="488" y="430" type="curve"/>
      <point x="493" y="433"/>
      <point x="495" y="437"/>
      <point x="495" y="440" type="curve" smooth="yes"/>
      <point x="495" y="454"/>
      <point x="489" y="467"/>
      <point x="476" y="479" type="curve" smooth="yes"/>
      <point x="464" y="490"/>
      <point x="452" y="496"/>
      <point x="440" y="496" type="curve" smooth="yes"/>
      <point x="413" y="496"/>
      <point x="359" y="465"/>
      <point x="278" y="404" type="curve" smooth="yes"/>
      <point x="195" y="341"/>
      <point x="131" y="280"/>
      <point x="85" y="224" type="curve" smooth="yes"/>
      <point x="68" y="202"/>
      <point x="55" y="182"/>
      <point x="47" y="161" type="curve" smooth="yes"/>
      <point x="41" y="144"/>
      <point x="37" y="126"/>
      <point x="37" y="108" type="curve" smooth="yes"/>
      <point x="37" y="72"/>
      <point x="56" y="44"/>
      <point x="93" y="24" type="curve" smooth="yes"/>
      <point x="129" y="5"/>
      <point x="177" y="-5"/>
      <point x="236" y="-5" type="curve" smooth="yes"/>
      <point x="316" y="-5"/>
      <point x="391" y="17"/>
      <point x="461" y="60" type="curve" smooth="yes"/>
      <point x="532" y="105"/>
      <point x="568" y="155"/>
    </contour>
  </outline>
</glyph>
<glyph name="seven" format="1">
  <advance width="607"/>
  <unicode hex="0037"/>
  <outline>
    <contour>
      <point x="553" y="445" type="curve" smooth="yes" name="hr00"/>
      <point x="553" y="448"/>
      <point x="551" y="454"/>
      <point x="544" y="461" type="curve"/>
      <point x="539" y="470"/>
      <point x="532" y="476"/>
      <point x="524" y="481" type="curve"/>
      <point x="369" y="474" type="line" smooth="yes"/>
      <point x="211" y="467"/>
      <point x="112" y="481"/>
      <point x="71" y="496" type="curve"/>
      <point x="65" y="496"/>
      <point x="60" y="494"/>
      <point x="57" y="491" type="curve" smooth="yes"/>
      <point x="54" y="489"/>
      <point x="53" y="487"/>
      <point x="53" y="485" type="curve" smooth="yes"/>
      <point x="53" y="468"/>
      <point x="62" y="452"/>
      <point x="81" y="436" type="curve" smooth="yes"/>
      <point x="98" y="421"/>
      <point x="117" y="413"/>
      <point x="138" y="414" type="curve" smooth="yes"/>
      <point x="457" y="430" type="line"/>
      <point x="384" y="372"/>
      <point x="317" y="303"/>
      <point x="253" y="225" type="curve" smooth="yes"/>
      <point x="191" y="148"/>
      <point x="159" y="97"/>
      <point x="159" y="70" type="curve" smooth="yes"/>
      <point x="159" y="50"/>
      <point x="165" y="32"/>
      <point x="179" y="16" type="curve" smooth="yes"/>
      <point x="192" y="2"/>
      <point x="204" y="-5"/>
      <point x="217" y="-5" type="curve" smooth="yes"/>
      <point x="222" y="-5"/>
      <point x="226" y="-3"/>
      <point x="231" y="0" type="curve"/>
      <point x="235" y="4"/>
      <point x="237" y="9"/>
      <point x="237" y="16" type="curve"/>
      <point x="268" y="111"/>
      <point x="306" y="192"/>
      <point x="354" y="258" type="curve" smooth="yes"/>
      <point x="416" y="344"/>
      <point x="478" y="400"/>
      <point x="538" y="429" type="curve"/>
      <point x="544" y="433"/>
      <point x="548" y="436"/>
      <point x="549" y="438" type="curve"/>
      <point x="552" y="440"/>
      <point x="553" y="442"/>
    </contour>
  </outline>
</glyph>
<glyph name="eight" format="1">
  <advance width="606"/>
  <unicode hex="0038"/>
  <outline>
    <contour>
      <point x="441" y="378" type="curve" smooth="yes" name="hr00"/>
      <point x="442" y="353"/>
      <point x="423" y="331"/>
      <point x="387" y="313" type="curve" smooth="yes"/>
      <point x="357" y="297"/>
      <point x="329" y="289"/>
      <point x="304" y="289" type="curve" smooth="yes"/>
      <point x="275" y="289"/>
      <point x="249" y="296"/>
      <point x="225" y="310" type="curve" smooth="yes"/>
      <point x="201" y="325"/>
      <point x="189" y="343"/>
      <point x="189" y="364" type="curve" smooth="yes"/>
      <point x="189" y="398"/>
      <point x="205" y="423"/>
      <point x="237" y="438" type="curve" smooth="yes"/>
      <point x="262" y="449"/>
      <point x="294" y="455"/>
      <point x="334" y="455" type="curve" smooth="yes"/>
      <point x="367" y="455"/>
      <point x="393" y="448"/>
      <point x="412" y="433" type="curve" smooth="yes"/>
      <point x="430" y="420"/>
      <point x="441" y="401"/>
    </contour>
    <contour>
      <point x="469" y="153" type="curve" smooth="yes"/>
      <point x="469" y="122"/>
      <point x="449" y="94"/>
      <point x="410" y="71" type="curve" smooth="yes"/>
      <point x="375" y="50"/>
      <point x="338" y="39"/>
      <point x="299" y="39" type="curve" smooth="yes"/>
      <point x="270" y="39"/>
      <point x="238" y="46"/>
      <point x="204" y="59" type="curve" smooth="yes"/>
      <point x="155" y="79"/>
      <point x="131" y="107"/>
      <point x="131" y="143" type="curve" smooth="yes"/>
      <point x="131" y="178"/>
      <point x="150" y="206"/>
      <point x="189" y="225" type="curve" smooth="yes"/>
      <point x="220" y="241"/>
      <point x="259" y="249"/>
      <point x="306" y="249" type="curve" smooth="yes"/>
      <point x="363" y="249"/>
      <point x="404" y="243"/>
      <point x="429" y="230" type="curve" smooth="yes"/>
      <point x="456" y="216"/>
      <point x="469" y="190"/>
    </contour>
    <contour>
      <point x="565" y="176" type="curve" smooth="yes"/>
      <point x="565" y="199"/>
      <point x="553" y="221"/>
      <point x="530" y="240" type="curve" smooth="yes"/>
      <point x="506" y="259"/>
      <point x="476" y="273"/>
      <point x="439" y="280" type="curve"/>
      <point x="466" y="293"/>
      <point x="488" y="310"/>
      <point x="505" y="331" type="curve" smooth="yes"/>
      <point x="522" y="352"/>
      <point x="531" y="373"/>
      <point x="531" y="393" type="curve" smooth="yes"/>
      <point x="531" y="427"/>
      <point x="516" y="453"/>
      <point x="486" y="470" type="curve" smooth="yes"/>
      <point x="456" y="487"/>
      <point x="411" y="496"/>
      <point x="351" y="496" type="curve" smooth="yes"/>
      <point x="276" y="496"/>
      <point x="216" y="485"/>
      <point x="169" y="460" type="curve" smooth="yes"/>
      <point x="121" y="435"/>
      <point x="97" y="400"/>
      <point x="97" y="359" type="curve" smooth="yes"/>
      <point x="97" y="336"/>
      <point x="104" y="316"/>
      <point x="117" y="300" type="curve" smooth="yes"/>
      <point x="132" y="283"/>
      <point x="153" y="272"/>
      <point x="180" y="265" type="curve"/>
      <point x="135" y="251"/>
      <point x="100" y="231"/>
      <point x="77" y="206" type="curve" smooth="yes"/>
      <point x="53" y="181"/>
      <point x="41" y="151"/>
      <point x="41" y="116" type="curve" smooth="yes"/>
      <point x="41" y="77"/>
      <point x="61" y="47"/>
      <point x="100" y="26" type="curve" smooth="yes"/>
      <point x="139" y="5"/>
      <point x="194" y="-5"/>
      <point x="265" y="-5" type="curve" smooth="yes"/>
      <point x="345" y="-5"/>
      <point x="414" y="12"/>
      <point x="472" y="45" type="curve" smooth="yes"/>
      <point x="534" y="79"/>
      <point x="565" y="123"/>
    </contour>
  </outline>
</glyph>
<glyph name="nine" format="1">
  <advance width="606"/>
  <unicode hex="0039"/>
  <outline>
    <contour>
      <point x="471" y="358" type="curve" smooth="yes" name="hr00"/>
      <point x="471" y="328"/>
      <point x="453" y="299"/>
      <point x="417" y="273" type="curve" smooth="yes"/>
      <point x="376" y="243"/>
      <point x="327" y="229"/>
      <point x="268" y="229" type="curve" smooth="yes"/>
      <point x="221" y="229"/>
      <point x="187" y="239"/>
      <point x="165" y="260" type="curve" smooth="yes"/>
      <point x="146" y="277"/>
      <point x="137" y="299"/>
      <point x="137" y="326" type="curve" smooth="yes"/>
      <point x="137" y="367"/>
      <point x="159" y="400"/>
      <point x="203" y="425" type="curve" smooth="yes"/>
      <point x="242" y="447"/>
      <point x="286" y="458"/>
      <point x="336" y="458" type="curve" smooth="yes"/>
      <point x="373" y="458"/>
      <point x="404" y="450"/>
      <point x="427" y="436" type="curve" smooth="yes"/>
      <point x="456" y="418"/>
      <point x="471" y="393"/>
    </contour>
    <contour>
      <point x="558" y="386" type="curve" smooth="yes"/>
      <point x="558" y="428"/>
      <point x="535" y="458"/>
      <point x="490" y="476" type="curve" smooth="yes"/>
      <point x="457" y="489"/>
      <point x="416" y="496"/>
      <point x="367" y="496" type="curve" smooth="yes"/>
      <point x="280" y="496"/>
      <point x="205" y="476"/>
      <point x="140" y="435" type="curve" smooth="yes"/>
      <point x="78" y="396"/>
      <point x="47" y="352"/>
      <point x="47" y="304" type="curve" smooth="yes"/>
      <point x="47" y="271"/>
      <point x="62" y="243"/>
      <point x="91" y="221" type="curve" smooth="yes"/>
      <point x="124" y="197"/>
      <point x="168" y="185"/>
      <point x="223" y="185" type="curve" smooth="yes"/>
      <point x="285" y="185"/>
      <point x="348" y="200"/>
      <point x="411" y="229" type="curve"/>
      <point x="310" y="132"/>
      <point x="212" y="74"/>
      <point x="117" y="53" type="curve"/>
      <point x="111" y="51"/>
      <point x="107" y="48"/>
      <point x="105" y="45" type="curve" smooth="yes"/>
      <point x="102" y="42"/>
      <point x="100" y="38"/>
      <point x="100" y="35" type="curve" smooth="yes"/>
      <point x="100" y="27"/>
      <point x="106" y="18"/>
      <point x="117" y="9" type="curve" smooth="yes"/>
      <point x="129" y="0"/>
      <point x="140" y="-5"/>
      <point x="151" y="-5" type="curve" smooth="yes"/>
      <point x="202" y="-5"/>
      <point x="282" y="45"/>
      <point x="391" y="146" type="curve" smooth="yes"/>
      <point x="502" y="249"/>
      <point x="558" y="329"/>
    </contour>
  </outline>
</glyph>
<glyph name="colon" format="1">
  <advance width="212"/>
  <unicode hex="003A"/>
  <outline>
    <contour>
      <point x="150" y="44" type="line" smooth="yes" name="hr00"/>
      <point x="150" y="57"/>
      <point x="144" y="67"/>
      <point x="132" y="74" type="curve" smooth="yes"/>
      <point x="121" y="81"/>
      <point x="102" y="84"/>
      <point x="77" y="84" type="curve" smooth="yes"/>
      <point x="71" y="84"/>
      <point x="67" y="81"/>
      <point x="66" y="74" type="curve" smooth="yes"/>
      <point x="64" y="67"/>
      <point x="63" y="53"/>
      <point x="63" y="30" type="curve" smooth="yes"/>
      <point x="63" y="13"/>
      <point x="66" y="0"/>
      <point x="73" y="-7" type="curve" smooth="yes"/>
      <point x="82" y="-18"/>
      <point x="101" y="-24"/>
      <point x="128" y="-24" type="curve" smooth="yes"/>
      <point x="134" y="-24"/>
      <point x="139" y="-21"/>
      <point x="142" y="-16" type="curve" smooth="yes"/>
      <point x="147" y="-10"/>
      <point x="150" y="-3"/>
      <point x="150" y="6" type="curve" smooth="yes"/>
    </contour>
    <contour>
      <point x="150" y="351" type="line" smooth="yes"/>
      <point x="150" y="366"/>
      <point x="144" y="376"/>
      <point x="131" y="383" type="curve" smooth="yes"/>
      <point x="118" y="390"/>
      <point x="99" y="393"/>
      <point x="73" y="393" type="curve" smooth="yes"/>
      <point x="68" y="393"/>
      <point x="66" y="390"/>
      <point x="65" y="383" type="curve" smooth="yes"/>
      <point x="63" y="376"/>
      <point x="62" y="360"/>
      <point x="62" y="333" type="curve" smooth="yes"/>
      <point x="62" y="318"/>
      <point x="68" y="306"/>
      <point x="81" y="298" type="curve"/>
      <point x="92" y="289"/>
      <point x="108" y="284"/>
      <point x="128" y="284" type="curve" smooth="yes"/>
      <point x="133" y="284"/>
      <point x="138" y="286"/>
      <point x="142" y="291" type="curve" smooth="yes"/>
      <point x="147" y="297"/>
      <point x="150" y="304"/>
      <point x="150" y="313" type="curve" smooth="yes"/>
    </contour>
  </outline>
</glyph>
<glyph name="semicolon" format="1">
  <advance width="356"/>
  <unicode hex="003B"/>
  <outline>
    <contour>
      <point x="294" y="41" type="curve" smooth="yes" name="hr00"/>
      <point x="294" y="58"/>
      <point x="286" y="72"/>
      <point x="270" y="84" type="curve" smooth="yes"/>
      <point x="257" y="94"/>
      <point x="245" y="99"/>
      <point x="234" y="99" type="curve" smooth="yes"/>
      <point x="225" y="99"/>
      <point x="220" y="98"/>
      <point x="219" y="96" type="curve"/>
      <point x="216" y="95"/>
      <point x="215" y="90"/>
      <point x="215" y="81" type="curve" smooth="yes"/>
      <point x="215" y="60"/>
      <point x="207" y="24"/>
      <point x="190" y="-25" type="curve" smooth="yes"/>
      <point x="173" y="-76"/>
      <point x="156" y="-111"/>
      <point x="139" y="-129" type="curve"/>
      <point x="132" y="-140"/>
      <point x="128" y="-150"/>
      <point x="125" y="-159" type="curve"/>
      <point x="125" y="-164"/>
      <point x="126" y="-168"/>
      <point x="128" y="-170" type="curve" smooth="yes"/>
      <point x="130" y="-174"/>
      <point x="135" y="-176"/>
      <point x="144" y="-176" type="curve" smooth="yes"/>
      <point x="157" y="-176"/>
      <point x="174" y="-157"/>
      <point x="199" y="-125" type="curve" smooth="yes"/>
      <point x="223" y="-94" type="line" smooth="yes"/>
      <point x="243" y="-68"/>
      <point x="261" y="-43"/>
      <point x="273" y="-20" type="curve" smooth="yes"/>
      <point x="287" y="5"/>
      <point x="294" y="26"/>
    </contour>
    <contour>
      <point x="280" y="338" type="line" smooth="yes"/>
      <point x="280" y="357"/>
      <point x="278" y="369"/>
      <point x="275" y="376" type="curve"/>
      <point x="274" y="381"/>
      <point x="269" y="385"/>
      <point x="261" y="388" type="curve"/>
      <point x="249" y="395"/>
      <point x="235" y="398"/>
      <point x="219" y="398" type="curve" smooth="yes"/>
      <point x="212" y="398"/>
      <point x="208" y="397"/>
      <point x="205" y="395" type="curve" smooth="yes"/>
      <point x="202" y="394"/>
      <point x="200" y="391"/>
      <point x="200" y="386" type="curve" smooth="yes"/>
      <point x="201" y="369" type="line"/>
      <point x="199" y="321" type="line"/>
      <point x="202" y="312"/>
      <point x="209" y="305"/>
      <point x="219" y="300" type="curve" smooth="yes"/>
      <point x="230" y="294"/>
      <point x="244" y="291"/>
      <point x="261" y="291" type="curve" smooth="yes"/>
      <point x="266" y="291"/>
      <point x="271" y="293"/>
      <point x="274" y="298" type="curve" smooth="yes"/>
      <point x="278" y="303"/>
      <point x="280" y="310"/>
      <point x="280" y="319" type="curve" smooth="yes"/>
    </contour>
  </outline>
</glyph>
<glyph name="less" format="1">
  <advance width="615"/>
  <unicode hex="003C"/>
  <outline>
    <contour>
      <point x="552" y="-75" type="line" name="hr00"/>
      <point x="552" y="-25" type="line"/>
      <point x="195" y="238" type="line"/>
      <point x="552" y="500" type="line"/>
      <point x="552" y="550" type="line"/>
      <point x="62" y="283" type="line"/>
      <point x="62" y="188" type="line"/>
    </contour>
  </outline>
</glyph>
<glyph name="equal" format="1">
  <advance width="630"/>
  <unicode hex="003D"/>
  <outline>
    <contour>
      <point x="567" y="171" type="curve" smooth="yes" name="hr00"/>
      <point x="567" y="184"/>
      <point x="563" y="193"/>
      <point x="555" y="200" type="curve" smooth="yes"/>
      <point x="549" y="206"/>
      <point x="541" y="209"/>
      <point x="532" y="209" type="curve" smooth="yes"/>
      <point x="188" y="204" type="line" smooth="yes"/>
      <point x="149" y="203"/>
      <point x="119" y="200"/>
      <point x="96" y="193" type="curve" smooth="yes"/>
      <point x="73" y="185"/>
      <point x="62" y="174"/>
      <point x="62" y="161" type="curve" smooth="yes"/>
      <point x="62" y="142"/>
      <point x="65" y="130"/>
      <point x="72" y="124" type="curve" smooth="yes"/>
      <point x="77" y="119"/>
      <point x="87" y="116"/>
      <point x="100" y="116" type="curve" smooth="yes"/>
      <point x="105" y="116"/>
      <point x="110" y="118"/>
      <point x="117" y="123" type="curve"/>
      <point x="140" y="135"/>
      <point x="171" y="143"/>
      <point x="212" y="141" type="curve" smooth="yes"/>
      <point x="477" y="129" type="line" smooth="yes"/>
      <point x="510" y="128"/>
      <point x="533" y="132"/>
      <point x="547" y="139" type="curve" smooth="yes"/>
      <point x="560" y="145"/>
      <point x="567" y="156"/>
    </contour>
    <contour>
      <point x="567" y="319" type="curve" smooth="yes"/>
      <point x="567" y="330"/>
      <point x="563" y="339"/>
      <point x="555" y="346" type="curve" smooth="yes"/>
      <point x="549" y="351"/>
      <point x="541" y="354"/>
      <point x="532" y="354" type="curve" smooth="yes"/>
      <point x="188" y="351" type="line" smooth="yes"/>
      <point x="150" y="351"/>
      <point x="119" y="347"/>
      <point x="96" y="339" type="curve" smooth="yes"/>
      <point x="73" y="332"/>
      <point x="62" y="321"/>
      <point x="62" y="308" type="curve" smooth="yes"/>
      <point x="62" y="289"/>
      <point x="65" y="277"/>
      <point x="72" y="270" type="curve" smooth="yes"/>
      <point x="78" y="265"/>
      <point x="87" y="263"/>
      <point x="100" y="263" type="curve" smooth="yes"/>
      <point x="105" y="263"/>
      <point x="110" y="265"/>
      <point x="117" y="269" type="curve" smooth="yes"/>
      <point x="140" y="282"/>
      <point x="171" y="291"/>
      <point x="212" y="289" type="curve" smooth="yes"/>
      <point x="477" y="276" type="line" smooth="yes"/>
      <point x="510" y="274"/>
      <point x="534" y="279"/>
      <point x="547" y="285" type="curve" smooth="yes"/>
      <point x="560" y="292"/>
      <point x="567" y="303"/>
    </contour>
  </outline>
</glyph>
<glyph name="greater" format="1">
  <advance width="615"/>
  <unicode hex="003E"/>
  <outline>
    <contour>
      <point x="552" y="283" type="line" name="hr00"/>
      <point x="62" y="550" type="line"/>
      <point x="62" y="500" type="line"/>
      <point x="420" y="238" type="line"/>
      <point x="62" y="-25" type="line"/>
      <point x="62" y="-75" type="line"/>
      <point x="552" y="188" type="line"/>
    </contour>
  </outline>
</glyph>
<glyph name="question" format="1">
  <advance width="628"/>
  <unicode hex="003F"/>
  <outline>
    <contour>
      <point x="383" y="1" type="line" smooth="yes" name="hr00"/>
      <point x="383" y="14"/>
      <point x="377" y="24"/>
      <point x="366" y="30" type="curve" smooth="yes"/>
      <point x="355" y="37"/>
      <point x="338" y="40"/>
      <point x="315" y="40" type="curve" smooth="yes"/>
      <point x="309" y="40"/>
      <point x="305" y="36"/>
      <point x="304" y="29" type="curve"/>
      <point x="302" y="23"/>
      <point x="301" y="9"/>
      <point x="301" y="-12" type="curve" smooth="yes"/>
      <point x="301" y="-30"/>
      <point x="304" y="-42"/>
      <point x="311" y="-49" type="curve" smooth="yes"/>
      <point x="320" y="-59"/>
      <point x="338" y="-64"/>
      <point x="365" y="-64" type="curve" smooth="yes"/>
      <point x="370" y="-64"/>
      <point x="375" y="-62"/>
      <point x="378" y="-57" type="curve" smooth="yes"/>
      <point x="381" y="-52"/>
      <point x="383" y="-45"/>
      <point x="383" y="-36" type="curve" smooth="yes"/>
    </contour>
    <contour>
      <point x="371" y="605" type="curve" smooth="yes"/>
      <point x="306" y="605"/>
      <point x="249" y="590"/>
      <point x="199" y="559" type="curve" smooth="yes"/>
      <point x="150" y="528"/>
      <point x="125" y="493"/>
      <point x="125" y="453" type="curve" smooth="yes"/>
      <point x="125" y="434"/>
      <point x="130" y="422"/>
      <point x="139" y="415" type="curve" smooth="yes"/>
      <point x="145" y="411"/>
      <point x="154" y="409"/>
      <point x="166" y="409" type="curve" smooth="yes"/>
      <point x="183" y="409"/>
      <point x="197" y="424"/>
      <point x="211" y="454" type="curve" smooth="yes"/>
      <point x="241" y="518"/>
      <point x="295" y="550"/>
      <point x="370" y="550" type="curve" smooth="yes"/>
      <point x="397" y="550"/>
      <point x="421" y="544"/>
      <point x="441" y="531" type="curve" smooth="yes"/>
      <point x="464" y="517"/>
      <point x="475" y="499"/>
      <point x="475" y="476" type="curve" smooth="yes"/>
      <point x="475" y="437"/>
      <point x="428" y="393"/>
      <point x="333" y="343" type="curve" smooth="yes"/>
      <point x="230" y="290"/>
      <point x="179" y="240"/>
      <point x="179" y="194" type="curve" smooth="yes"/>
      <point x="179" y="157"/>
      <point x="194" y="128"/>
      <point x="223" y="108" type="curve" smooth="yes"/>
      <point x="252" y="88"/>
      <point x="290" y="78"/>
      <point x="339" y="78" type="curve" smooth="yes"/>
      <point x="387" y="78"/>
      <point x="429" y="88"/>
      <point x="465" y="108" type="curve" smooth="yes"/>
      <point x="499" y="127"/>
      <point x="516" y="147"/>
      <point x="516" y="170" type="curve" smooth="yes"/>
      <point x="516" y="189"/>
      <point x="512" y="201"/>
      <point x="503" y="208" type="curve" smooth="yes"/>
      <point x="496" y="213"/>
      <point x="487" y="216"/>
      <point x="474" y="216" type="curve" smooth="yes"/>
      <point x="465" y="216"/>
      <point x="457" y="214"/>
      <point x="451" y="209" type="curve" smooth="yes"/>
      <point x="446" y="205"/>
      <point x="444" y="199"/>
      <point x="444" y="191" type="curve" smooth="yes"/>
      <point x="444" y="174"/>
      <point x="434" y="159"/>
      <point x="414" y="146" type="curve" smooth="yes"/>
      <point x="397" y="135"/>
      <point x="377" y="129"/>
      <point x="356" y="129" type="curve" smooth="yes"/>
      <point x="327" y="129"/>
      <point x="307" y="136"/>
      <point x="293" y="148" type="curve" smooth="yes"/>
      <point x="280" y="160"/>
      <point x="273" y="176"/>
      <point x="273" y="199" type="curve" smooth="yes"/>
      <point x="273" y="237"/>
      <point x="319" y="279"/>
      <point x="410" y="323" type="curve" smooth="yes"/>
      <point x="514" y="374"/>
      <point x="566" y="422"/>
      <point x="566" y="470" type="curve" smooth="yes"/>
      <point x="566" y="517"/>
      <point x="547" y="552"/>
      <point x="508" y="575" type="curve" smooth="yes"/>
      <point x="473" y="595"/>
      <point x="428" y="605"/>
    </contour>
  </outline>
</glyph>
<glyph name="at" format="1">
  <advance width="1193"/>
  <unicode hex="0040"/>
  <outline>
    <contour>
      <point x="610" y="39" type="curve" smooth="yes" name="hr00"/>
      <point x="568" y="39"/>
      <point x="533" y="56"/>
      <point x="503" y="91" type="curve" smooth="yes"/>
      <point x="473" y="126"/>
      <point x="457" y="168"/>
      <point x="457" y="217" type="curve" smooth="yes"/>
      <point x="457" y="274"/>
      <point x="472" y="323"/>
      <point x="503" y="364" type="curve" smooth="yes"/>
      <point x="533" y="405"/>
      <point x="570" y="425"/>
      <point x="614" y="425" type="curve" smooth="yes"/>
      <point x="638" y="425"/>
      <point x="659" y="417"/>
      <point x="676" y="400" type="curve" smooth="yes"/>
      <point x="693" y="384"/>
      <point x="702" y="365"/>
      <point x="702" y="343" type="curve" smooth="yes"/>
      <point x="702" y="140" type="line" smooth="yes"/>
      <point x="702" y="113"/>
      <point x="693" y="89"/>
      <point x="674" y="68" type="curve" smooth="yes"/>
      <point x="657" y="49"/>
      <point x="635" y="39"/>
    </contour>
    <contour>
      <point x="594" y="-276" type="curve" smooth="yes"/>
      <point x="690" y="-276"/>
      <point x="776" y="-259"/>
      <point x="853" y="-225" type="curve" smooth="yes"/>
      <point x="931" y="-190"/>
      <point x="990" y="-143"/>
      <point x="1031" y="-82" type="curve"/>
      <point x="991" y="-46" type="line"/>
      <point x="948" y="-105"/>
      <point x="891" y="-152"/>
      <point x="821" y="-185" type="curve" smooth="yes"/>
      <point x="752" y="-218"/>
      <point x="676" y="-235"/>
      <point x="594" y="-235" type="curve" smooth="yes"/>
      <point x="475" y="-235"/>
      <point x="373" y="-191"/>
      <point x="290" y="-102" type="curve" smooth="yes"/>
      <point x="206" y="-12"/>
      <point x="165" y="96"/>
      <point x="165" y="223" type="curve" smooth="yes"/>
      <point x="165" y="350"/>
      <point x="206" y="458"/>
      <point x="290" y="548" type="curve" smooth="yes"/>
      <point x="373" y="637"/>
      <point x="476" y="681"/>
      <point x="595" y="681" type="curve" smooth="yes"/>
      <point x="712" y="681"/>
      <point x="812" y="640"/>
      <point x="894" y="558" type="curve" smooth="yes"/>
      <point x="977" y="476"/>
      <point x="1019" y="377"/>
      <point x="1019" y="262" type="curve" smooth="yes"/>
      <point x="1019" y="195"/>
      <point x="1005" y="137"/>
      <point x="976" y="90" type="curve" smooth="yes"/>
      <point x="947" y="42"/>
      <point x="912" y="18"/>
      <point x="871" y="18" type="curve" smooth="yes"/>
      <point x="852" y="18"/>
      <point x="836" y="26"/>
      <point x="821" y="42" type="curve"/>
      <point x="808" y="59"/>
      <point x="802" y="80"/>
      <point x="802" y="103" type="curve" smooth="yes"/>
      <point x="802" y="466" type="line"/>
      <point x="702" y="466" type="line"/>
      <point x="702" y="432" type="line"/>
      <point x="683" y="449"/>
      <point x="663" y="461"/>
      <point x="642" y="469" type="curve" smooth="yes"/>
      <point x="622" y="477"/>
      <point x="602" y="481"/>
      <point x="582" y="481" type="curve" smooth="yes"/>
      <point x="521" y="481"/>
      <point x="470" y="455"/>
      <point x="427" y="404" type="curve" smooth="yes"/>
      <point x="384" y="352"/>
      <point x="363" y="290"/>
      <point x="363" y="217" type="curve" smooth="yes"/>
      <point x="363" y="148"/>
      <point x="384" y="88"/>
      <point x="428" y="39" type="curve" smooth="yes"/>
      <point x="471" y="-10"/>
      <point x="524" y="-33"/>
      <point x="585" y="-33" type="curve" smooth="yes"/>
      <point x="605" y="-33"/>
      <point x="626" y="-27"/>
      <point x="647" y="-14" type="curve"/>
      <point x="667" y="1"/>
      <point x="685" y="19"/>
      <point x="702" y="42" type="curve"/>
      <point x="710" y="19"/>
      <point x="728" y="1"/>
      <point x="755" y="-12" type="curve" smooth="yes"/>
      <point x="782" y="-26"/>
      <point x="814" y="-33"/>
      <point x="850" y="-33" type="curve" smooth="yes"/>
      <point x="924" y="-33"/>
      <point x="987" y="-4"/>
      <point x="1038" y="53" type="curve" smooth="yes"/>
      <point x="1091" y="111"/>
      <point x="1117" y="181"/>
      <point x="1117" y="262" type="curve" smooth="yes"/>
      <point x="1117" y="389"/>
      <point x="1066" y="498"/>
      <point x="965" y="587" type="curve" smooth="yes"/>
      <point x="863" y="677"/>
      <point x="740" y="721"/>
      <point x="597" y="721" type="curve" smooth="yes"/>
      <point x="453" y="721"/>
      <point x="330" y="672"/>
      <point x="228" y="575" type="curve" smooth="yes"/>
      <point x="126" y="478"/>
      <point x="75" y="360"/>
      <point x="75" y="223" type="curve" smooth="yes"/>
      <point x="75" y="86"/>
      <point x="126" y="-32"/>
      <point x="227" y="-130" type="curve" smooth="yes"/>
      <point x="328" y="-227"/>
      <point x="450" y="-276"/>
    </contour>
  </outline>
</glyph>
<glyph name="A" format="1">
  <advance width="611"/>
  <unicode hex="0041"/>
  <outline>
    <contour>
      <point x="177" y="226" type="line" name="hr00"/>
      <point x="282" y="475" type="line"/>
      <point x="386" y="238" type="line"/>
      <point x="177" y="238" type="line"/>
    </contour>
    <contour>
      <point x="4" y="8" type="line"/>
      <point x="179" y="8" type="line"/>
      <point x="179" y="27" type="line"/>
      <point x="161" y="27" type="line" smooth="yes"/>
      <point x="150" y="27"/>
      <point x="140" y="31"/>
      <point x="131" y="38" type="curve" smooth="yes"/>
      <point x="122" y="44"/>
      <point x="118" y="52"/>
      <point x="118" y="61" type="curve" smooth="yes"/>
      <point x="118" y="74"/>
      <point x="121" y="89"/>
      <point x="128" y="105" type="curve" smooth="yes"/>
      <point x="169" y="203" type="line"/>
      <point x="397" y="203" type="line"/>
      <point x="440" y="105" type="line"/>
      <point x="447" y="84"/>
      <point x="451" y="70"/>
      <point x="451" y="61" type="curve" smooth="yes"/>
      <point x="451" y="52"/>
      <point x="447" y="44"/>
      <point x="440" y="38" type="curve" smooth="yes"/>
      <point x="432" y="31"/>
      <point x="423" y="27"/>
      <point x="413" y="27" type="curve" smooth="yes"/>
      <point x="394" y="27" type="line"/>
      <point x="394" y="8" type="line"/>
      <point x="610" y="8" type="line"/>
      <point x="610" y="27" type="line"/>
      <point x="596" y="27"/>
      <point x="583" y="34"/>
      <point x="570" y="49" type="curve" smooth="yes"/>
      <point x="557" y="63"/>
      <point x="548" y="84"/>
      <point x="537" y="108" type="curve" smooth="yes"/>
      <point x="313" y="608" type="line"/>
      <point x="298" y="608" type="line"/>
      <point x="86" y="108" type="line" smooth="yes"/>
      <point x="76" y="84"/>
      <point x="66" y="63"/>
      <point x="51" y="49" type="curve" smooth="yes"/>
      <point x="36" y="34"/>
      <point x="20" y="27"/>
      <point x="4" y="27" type="curve"/>
      <point x="4" y="9" type="line"/>
    </contour>
  </outline>
</glyph>
<glyph name="B" format="1">
  <advance width="544"/>
  <unicode hex="0042"/>
  <outline>
    <contour>
      <point x="182" y="328" type="line" name="hr00"/>
      <point x="182" y="537" type="line" smooth="yes"/>
      <point x="182" y="545"/>
      <point x="187" y="552"/>
      <point x="196" y="559" type="curve"/>
      <point x="208" y="565"/>
      <point x="222" y="568"/>
      <point x="237" y="568" type="curve" smooth="yes"/>
      <point x="281" y="568"/>
      <point x="319" y="556"/>
      <point x="350" y="531" type="curve" smooth="yes"/>
      <point x="381" y="505"/>
      <point x="397" y="475"/>
      <point x="397" y="440" type="curve" smooth="yes"/>
      <point x="397" y="408"/>
      <point x="384" y="381"/>
      <point x="357" y="360" type="curve" smooth="yes"/>
      <point x="330" y="339"/>
      <point x="295" y="328"/>
      <point x="252" y="328" type="curve" smooth="yes"/>
    </contour>
    <contour>
      <point x="252" y="39" type="curve" smooth="yes"/>
      <point x="233" y="39"/>
      <point x="217" y="42"/>
      <point x="202" y="49" type="curve" smooth="yes"/>
      <point x="189" y="56"/>
      <point x="182" y="65"/>
      <point x="182" y="74" type="curve" smooth="yes"/>
      <point x="182" y="299" type="line"/>
      <point x="254" y="299" type="line" smooth="yes"/>
      <point x="301" y="299"/>
      <point x="339" y="287"/>
      <point x="368" y="263" type="curve" smooth="yes"/>
      <point x="398" y="239"/>
      <point x="413" y="209"/>
      <point x="413" y="172" type="curve" smooth="yes"/>
      <point x="413" y="135"/>
      <point x="398" y="103"/>
      <point x="367" y="78" type="curve" smooth="yes"/>
      <point x="335" y="52"/>
      <point x="297" y="39"/>
    </contour>
    <contour>
      <point x="7" y="8" type="line"/>
      <point x="334" y="8" type="line" smooth="yes"/>
      <point x="384" y="8"/>
      <point x="428" y="23"/>
      <point x="463" y="57" type="curve" smooth="yes"/>
      <point x="499" y="91"/>
      <point x="515" y="133"/>
      <point x="515" y="180" type="curve" smooth="yes"/>
      <point x="515" y="213"/>
      <point x="502" y="242"/>
      <point x="475" y="269" type="curve" smooth="yes"/>
      <point x="448" y="296"/>
      <point x="420" y="312"/>
      <point x="388" y="318" type="curve"/>
      <point x="411" y="322"/>
      <point x="433" y="337"/>
      <point x="454" y="364" type="curve" smooth="yes"/>
      <point x="476" y="391"/>
      <point x="487" y="421"/>
      <point x="487" y="456" type="curve" smooth="yes"/>
      <point x="487" y="497"/>
      <point x="469" y="531"/>
      <point x="433" y="557" type="curve" smooth="yes"/>
      <point x="398" y="583"/>
      <point x="355" y="596"/>
      <point x="302" y="596" type="curve" smooth="yes"/>
      <point x="7" y="596" type="line"/>
      <point x="7" y="576" type="line"/>
      <point x="26" y="576" type="line" smooth="yes"/>
      <point x="43" y="576"/>
      <point x="57" y="570"/>
      <point x="70" y="558" type="curve" smooth="yes"/>
      <point x="83" y="545"/>
      <point x="89" y="530"/>
      <point x="89" y="513" type="curve" smooth="yes"/>
      <point x="89" y="98" type="line" smooth="yes"/>
      <point x="89" y="79"/>
      <point x="83" y="62"/>
      <point x="70" y="48" type="curve" smooth="yes"/>
      <point x="57" y="34"/>
      <point x="43" y="27"/>
      <point x="26" y="27" type="curve" smooth="yes"/>
      <point x="7" y="27" type="line"/>
      <point x="7" y="9" type="line"/>
    </contour>
  </outline>
</glyph>
<glyph name="C" format="1">
  <advance width="604"/>
  <unicode hex="0043"/>
  <outline>
    <contour>
      <point x="337" y="-9" type="curve" smooth="yes" name="hr00"/>
      <point x="391" y="-9"/>
      <point x="439" y="2"/>
      <point x="481" y="22" type="curve" smooth="yes"/>
      <point x="526" y="44"/>
      <point x="560" y="72"/>
      <point x="585" y="111" type="curve"/>
      <point x="566" y="126" type="line"/>
      <point x="537" y="97"/>
      <point x="503" y="74"/>
      <point x="466" y="59" type="curve" smooth="yes"/>
      <point x="429" y="44"/>
      <point x="393" y="36"/>
      <point x="356" y="36" type="curve" smooth="yes"/>
      <point x="291" y="36"/>
      <point x="240" y="58"/>
      <point x="201" y="103" type="curve" smooth="yes"/>
      <point x="162" y="150"/>
      <point x="142" y="211"/>
      <point x="142" y="286" type="curve" smooth="yes"/>
      <point x="142" y="371"/>
      <point x="161" y="439"/>
      <point x="199" y="491" type="curve" smooth="yes"/>
      <point x="236" y="542"/>
      <point x="285" y="568"/>
      <point x="347" y="568" type="curve" smooth="yes"/>
      <point x="389" y="568"/>
      <point x="428" y="553"/>
      <point x="464" y="524" type="curve" smooth="yes"/>
      <point x="501" y="495"/>
      <point x="528" y="455"/>
      <point x="545" y="405" type="curve"/>
      <point x="569" y="405" type="line"/>
      <point x="561" y="605" type="line"/>
      <point x="532" y="605" type="line"/>
      <point x="531" y="597"/>
      <point x="526" y="591"/>
      <point x="519" y="587" type="curve" smooth="yes"/>
      <point x="512" y="582"/>
      <point x="504" y="579"/>
      <point x="494" y="579" type="curve" smooth="yes"/>
      <point x="489" y="579"/>
      <point x="475" y="584"/>
      <point x="454" y="593" type="curve"/>
      <point x="441" y="596" type="line"/>
      <point x="420" y="604"/>
      <point x="386" y="608"/>
      <point x="339" y="608" type="curve" smooth="yes"/>
      <point x="247" y="608"/>
      <point x="174" y="579"/>
      <point x="119" y="520" type="curve" smooth="yes"/>
      <point x="64" y="461"/>
      <point x="36" y="383"/>
      <point x="36" y="286" type="curve" smooth="yes"/>
      <point x="36" y="197"/>
      <point x="64" y="125"/>
      <point x="119" y="71" type="curve" smooth="yes"/>
      <point x="174" y="18"/>
      <point x="246" y="-9"/>
    </contour>
  </outline>
</glyph>
<glyph name="D" format="1">
  <advance width="634"/>
  <unicode hex="0044"/>
  <outline>
    <contour>
      <point x="266" y="36" type="curve" smooth="yes" name="hr00"/>
      <point x="243" y="36"/>
      <point x="223" y="40"/>
      <point x="206" y="47" type="curve" smooth="yes"/>
      <point x="189" y="55"/>
      <point x="181" y="64"/>
      <point x="181" y="74" type="curve" smooth="yes"/>
      <point x="181" y="513" type="line" smooth="yes"/>
      <point x="181" y="527"/>
      <point x="189" y="539"/>
      <point x="206" y="548" type="curve" smooth="yes"/>
      <point x="223" y="558"/>
      <point x="244" y="563"/>
      <point x="268" y="563" type="curve" smooth="yes"/>
      <point x="336" y="563"/>
      <point x="392" y="539"/>
      <point x="435" y="490" type="curve" smooth="yes"/>
      <point x="480" y="439"/>
      <point x="502" y="376"/>
      <point x="502" y="301" type="curve" smooth="yes"/>
      <point x="502" y="224"/>
      <point x="479" y="161"/>
      <point x="435" y="111" type="curve" smooth="yes"/>
      <point x="391" y="61"/>
      <point x="335" y="36"/>
    </contour>
    <contour>
      <point x="6" y="8" type="line"/>
      <point x="301" y="8" type="line" smooth="yes"/>
      <point x="388" y="8"/>
      <point x="461" y="34"/>
      <point x="519" y="90" type="curve" smooth="yes"/>
      <point x="576" y="145"/>
      <point x="604" y="216"/>
      <point x="604" y="301" type="curve" smooth="yes"/>
      <point x="604" y="386"/>
      <point x="577" y="458"/>
      <point x="519" y="514" type="curve" smooth="yes"/>
      <point x="462" y="570"/>
      <point x="388" y="596"/>
      <point x="301" y="596" type="curve" smooth="yes"/>
      <point x="6" y="596" type="line"/>
      <point x="6" y="576" type="line"/>
      <point x="25" y="576" type="line" smooth="yes"/>
      <point x="42" y="576"/>
      <point x="57" y="571"/>
      <point x="70" y="560" type="curve" smooth="yes"/>
      <point x="82" y="549"/>
      <point x="88" y="536"/>
      <point x="88" y="521" type="curve" smooth="yes"/>
      <point x="88" y="90" type="line" smooth="yes"/>
      <point x="88" y="73"/>
      <point x="82" y="58"/>
      <point x="69" y="46" type="curve" smooth="yes"/>
      <point x="56" y="33"/>
      <point x="42" y="27"/>
      <point x="25" y="27" type="curve" smooth="yes"/>
      <point x="6" y="27" type="line"/>
      <point x="6" y="9" type="line"/>
    </contour>
  </outline>
</glyph>
<glyph name="E" format="1">
  <advance width="542"/>
  <unicode hex="0045"/>
  <outline>
    <contour>
      <point x="7" y="8" type="line" name="hr00"/>
      <point x="491" y="8" type="line"/>
      <point x="528" y="149" type="line"/>
      <point x="508" y="153" type="line"/>
      <point x="496" y="120"/>
      <point x="477" y="93"/>
      <point x="450" y="73" type="curve" smooth="yes"/>
      <point x="425" y="53"/>
      <point x="397" y="43"/>
      <point x="367" y="43" type="curve" smooth="yes"/>
      <point x="232" y="43" type="line" smooth="yes"/>
      <point x="218" y="43"/>
      <point x="206" y="48"/>
      <point x="196" y="57" type="curve" smooth="yes"/>
      <point x="187" y="66"/>
      <point x="182" y="77"/>
      <point x="182" y="90" type="curve" smooth="yes"/>
      <point x="182" y="299" type="line"/>
      <point x="334" y="299" type="line" smooth="yes"/>
      <point x="356" y="299"/>
      <point x="375" y="291"/>
      <point x="390" y="274" type="curve" smooth="yes"/>
      <point x="405" y="257"/>
      <point x="413" y="236"/>
      <point x="413" y="211" type="curve"/>
      <point x="434" y="211" type="line"/>
      <point x="434" y="418" type="line"/>
      <point x="413" y="418" type="line"/>
      <point x="413" y="395"/>
      <point x="405" y="375"/>
      <point x="390" y="360" type="curve" smooth="yes"/>
      <point x="375" y="345"/>
      <point x="356" y="337"/>
      <point x="334" y="337" type="curve" smooth="yes"/>
      <point x="182" y="337" type="line"/>
      <point x="182" y="525" type="line" smooth="yes"/>
      <point x="182" y="534"/>
      <point x="185" y="542"/>
      <point x="191" y="549" type="curve" smooth="yes"/>
      <point x="197" y="556"/>
      <point x="204" y="560"/>
      <point x="212" y="560" type="curve" smooth="yes"/>
      <point x="375" y="560" type="line" smooth="yes"/>
      <point x="395" y="560"/>
      <point x="412" y="552"/>
      <point x="427" y="535" type="curve" smooth="yes"/>
      <point x="442" y="518"/>
      <point x="453" y="497"/>
      <point x="458" y="471" type="curve"/>
      <point x="482" y="471" type="line"/>
      <point x="482" y="596" type="line"/>
      <point x="7" y="596" type="line"/>
      <point x="7" y="576" type="line"/>
      <point x="26" y="576" type="line" smooth="yes"/>
      <point x="43" y="576"/>
      <point x="57" y="570"/>
      <point x="70" y="558" type="curve" smooth="yes"/>
      <point x="83" y="545"/>
      <point x="89" y="530"/>
      <point x="89" y="513" type="curve" smooth="yes"/>
      <point x="89" y="98" type="line" smooth="yes"/>
      <point x="89" y="79"/>
      <point x="83" y="62"/>
      <point x="70" y="48" type="curve" smooth="yes"/>
      <point x="57" y="34"/>
      <point x="43" y="27"/>
      <point x="26" y="27" type="curve" smooth="yes"/>
      <point x="7" y="27" type="line"/>
      <point x="7" y="9" type="line"/>
    </contour>
  </outline>
</glyph>
<glyph name="F" format="1">
  <advance width="499"/>
  <unicode hex="0046"/>
  <outline>
    <contour>
      <point x="6" y="8" type="line" name="hr00"/>
      <point x="254" y="8" type="line"/>
      <point x="254" y="27" type="line"/>
      <point x="236" y="27" type="line" smooth="yes"/>
      <point x="221" y="27"/>
      <point x="208" y="31"/>
      <point x="197" y="40" type="curve" smooth="yes"/>
      <point x="186" y="49"/>
      <point x="181" y="61"/>
      <point x="181" y="74" type="curve" smooth="yes"/>
      <point x="181" y="299" type="line"/>
      <point x="333" y="299" type="line" smooth="yes"/>
      <point x="353" y="299"/>
      <point x="371" y="292"/>
      <point x="385" y="276" type="curve" smooth="yes"/>
      <point x="399" y="261"/>
      <point x="404" y="241"/>
      <point x="404" y="218" type="curve"/>
      <point x="425" y="218" type="line"/>
      <point x="425" y="418" type="line"/>
      <point x="404" y="418" type="line"/>
      <point x="404" y="395"/>
      <point x="399" y="375"/>
      <point x="385" y="360" type="curve" smooth="yes"/>
      <point x="371" y="344"/>
      <point x="353" y="337"/>
      <point x="333" y="337" type="curve" smooth="yes"/>
      <point x="181" y="337" type="line"/>
      <point x="181" y="513" type="line" smooth="yes"/>
      <point x="181" y="526"/>
      <point x="184" y="538"/>
      <point x="190" y="547" type="curve" smooth="yes"/>
      <point x="196" y="556"/>
      <point x="203" y="560"/>
      <point x="211" y="560" type="curve" smooth="yes"/>
      <point x="366" y="560" type="line" smooth="yes"/>
      <point x="389" y="560"/>
      <point x="409" y="550"/>
      <point x="427" y="534" type="curve" smooth="yes"/>
      <point x="445" y="517"/>
      <point x="457" y="497"/>
      <point x="462" y="471" type="curve"/>
      <point x="481" y="471" type="line"/>
      <point x="481" y="596" type="line"/>
      <point x="6" y="596" type="line"/>
      <point x="6" y="576" type="line"/>
      <point x="25" y="576" type="line" smooth="yes"/>
      <point x="42" y="576"/>
      <point x="56" y="570"/>
      <point x="69" y="558" type="curve" smooth="yes"/>
      <point x="82" y="545"/>
      <point x="88" y="530"/>
      <point x="88" y="513" type="curve" smooth="yes"/>
      <point x="88" y="74" type="line" smooth="yes"/>
      <point x="88" y="61"/>
      <point x="82" y="49"/>
      <point x="70" y="40" type="curve" smooth="yes"/>
      <point x="57" y="31"/>
      <point x="42" y="27"/>
      <point x="25" y="27" type="curve" smooth="yes"/>
      <point x="6" y="27" type="line"/>
      <point x="6" y="9" type="line"/>
    </contour>
  </outline>
</glyph>
<glyph name="G" format="1">
  <advance width="649"/>
  <unicode hex="0047"/>
  <outline>
    <contour>
      <point x="354" y="-5" type="curve" smooth="yes" name="hr00"/>
      <point x="428" y="-5"/>
      <point x="505" y="18"/>
      <point x="584" y="65" type="curve"/>
      <point x="584" y="256" type="line" smooth="yes"/>
      <point x="584" y="269"/>
      <point x="588" y="281"/>
      <point x="596" y="290" type="curve" smooth="yes"/>
      <point x="605" y="299"/>
      <point x="614" y="304"/>
      <point x="624" y="304" type="curve" smooth="yes"/>
      <point x="642" y="304" type="line"/>
      <point x="642" y="324" type="line"/>
      <point x="419" y="324" type="line"/>
      <point x="419" y="304" type="line"/>
      <point x="436" y="304" type="line" smooth="yes"/>
      <point x="451" y="304"/>
      <point x="465" y="299"/>
      <point x="476" y="290" type="curve" smooth="yes"/>
      <point x="487" y="281"/>
      <point x="492" y="269"/>
      <point x="492" y="256" type="curve" smooth="yes"/>
      <point x="492" y="70" type="line"/>
      <point x="478" y="59"/>
      <point x="460" y="50"/>
      <point x="438" y="44" type="curve" smooth="yes"/>
      <point x="416" y="39"/>
      <point x="391" y="36"/>
      <point x="363" y="36" type="curve" smooth="yes"/>
      <point x="302" y="36"/>
      <point x="251" y="61"/>
      <point x="208" y="112" type="curve" smooth="yes"/>
      <point x="165" y="163"/>
      <point x="142" y="224"/>
      <point x="142" y="297" type="curve" smooth="yes"/>
      <point x="142" y="374"/>
      <point x="164" y="438"/>
      <point x="205" y="491" type="curve" smooth="yes"/>
      <point x="247" y="545"/>
      <point x="297" y="572"/>
      <point x="356" y="572" type="curve" smooth="yes"/>
      <point x="397" y="572"/>
      <point x="435" y="558"/>
      <point x="470" y="531" type="curve" smooth="yes"/>
      <point x="507" y="503"/>
      <point x="536" y="465"/>
      <point x="557" y="417" type="curve"/>
      <point x="578" y="417" type="line"/>
      <point x="565" y="608" type="line"/>
      <point x="545" y="608" type="line"/>
      <point x="542" y="601"/>
      <point x="537" y="595"/>
      <point x="530" y="590" type="curve"/>
      <point x="522" y="586"/>
      <point x="512" y="584"/>
      <point x="501" y="584" type="curve" smooth="yes"/>
      <point x="486" y="584"/>
      <point x="463" y="588"/>
      <point x="434" y="599" type="curve" smooth="yes"/>
      <point x="411" y="607"/>
      <point x="374" y="613"/>
      <point x="323" y="613" type="curve" smooth="yes"/>
      <point x="236" y="613"/>
      <point x="168" y="584"/>
      <point x="115" y="526" type="curve" smooth="yes"/>
      <point x="63" y="469"/>
      <point x="36" y="393"/>
      <point x="36" y="297" type="curve" smooth="yes"/>
      <point x="36" y="206"/>
      <point x="65" y="133"/>
      <point x="124" y="78" type="curve" smooth="yes"/>
      <point x="181" y="23"/>
      <point x="258" y="-5"/>
    </contour>
  </outline>
</glyph>
<glyph name="H" format="1">
  <advance width="615"/>
  <unicode hex="0048"/>
  <outline>
    <contour>
      <point x="6" y="8" type="line" name="hr00"/>
      <point x="254" y="8" type="line"/>
      <point x="254" y="27" type="line"/>
      <point x="236" y="27" type="line" smooth="yes"/>
      <point x="221" y="27"/>
      <point x="208" y="33"/>
      <point x="197" y="46" type="curve" smooth="yes"/>
      <point x="186" y="58"/>
      <point x="181" y="73"/>
      <point x="181" y="90" type="curve" smooth="yes"/>
      <point x="181" y="284" type="line"/>
      <point x="446" y="284" type="line"/>
      <point x="446" y="90" type="line" smooth="yes"/>
      <point x="446" y="73"/>
      <point x="441" y="58"/>
      <point x="430" y="46" type="curve" smooth="yes"/>
      <point x="418" y="33"/>
      <point x="405" y="27"/>
      <point x="390" y="27" type="curve" smooth="yes"/>
      <point x="373" y="27" type="line"/>
      <point x="373" y="8" type="line"/>
      <point x="612" y="8" type="line"/>
      <point x="612" y="27" type="line"/>
      <point x="594" y="27" type="line" smooth="yes"/>
      <point x="579" y="27"/>
      <point x="565" y="33"/>
      <point x="554" y="46" type="curve" smooth="yes"/>
      <point x="544" y="58"/>
      <point x="539" y="73"/>
      <point x="539" y="90" type="curve" smooth="yes"/>
      <point x="539" y="513" type="line" smooth="yes"/>
      <point x="539" y="530"/>
      <point x="543" y="545"/>
      <point x="554" y="558" type="curve" smooth="yes"/>
      <point x="564" y="570"/>
      <point x="579" y="576"/>
      <point x="594" y="576" type="curve" smooth="yes"/>
      <point x="612" y="576" type="line"/>
      <point x="612" y="596" type="line"/>
      <point x="373" y="596" type="line"/>
      <point x="373" y="576" type="line"/>
      <point x="390" y="576" type="line" smooth="yes"/>
      <point x="405" y="576"/>
      <point x="419" y="570"/>
      <point x="430" y="558" type="curve" smooth="yes"/>
      <point x="442" y="545"/>
      <point x="446" y="530"/>
      <point x="446" y="513" type="curve" smooth="yes"/>
      <point x="446" y="320" type="line"/>
      <point x="181" y="320" type="line"/>
      <point x="181" y="513" type="line" smooth="yes"/>
      <point x="181" y="530"/>
      <point x="186" y="545"/>
      <point x="197" y="558" type="curve" smooth="yes"/>
      <point x="208" y="570"/>
      <point x="221" y="576"/>
      <point x="236" y="576" type="curve" smooth="yes"/>
      <point x="254" y="576" type="line"/>
      <point x="254" y="596" type="line"/>
      <point x="6" y="596" type="line"/>
      <point x="6" y="576" type="line"/>
      <point x="25" y="576" type="line" smooth="yes"/>
      <point x="42" y="576"/>
      <point x="56" y="570"/>
      <point x="69" y="558" type="curve" smooth="yes"/>
      <point x="82" y="545"/>
      <point x="88" y="530"/>
      <point x="88" y="513" type="curve" smooth="yes"/>
      <point x="88" y="90" type="line" smooth="yes"/>
      <point x="88" y="73"/>
      <point x="82" y="58"/>
      <point x="69" y="46" type="curve" smooth="yes"/>
      <point x="56" y="33"/>
      <point x="42" y="27"/>
      <point x="25" y="27" type="curve" smooth="yes"/>
      <point x="6" y="27" type="line"/>
      <point x="6" y="9" type="line"/>
    </contour>
  </outline>
</glyph>
<glyph name="I" format="1">
  <advance width="264"/>
  <unicode hex="0049"/>
  <outline>
    <contour>
      <point x="6" y="8" type="line" name="hr00"/>
      <point x="262" y="8" type="line"/>
      <point x="262" y="27" type="line"/>
      <point x="244" y="27" type="line" smooth="yes"/>
      <point x="227" y="27"/>
      <point x="212" y="31"/>
      <point x="199" y="40" type="curve" smooth="yes"/>
      <point x="187" y="49"/>
      <point x="181" y="61"/>
      <point x="181" y="74" type="curve" smooth="yes"/>
      <point x="181" y="521" type="line" smooth="yes"/>
      <point x="181" y="536"/>
      <point x="187" y="549"/>
      <point x="199" y="560" type="curve" smooth="yes"/>
      <point x="212" y="571"/>
      <point x="227" y="576"/>
      <point x="244" y="576" type="curve" smooth="yes"/>
      <point x="262" y="576" type="line"/>
      <point x="262" y="596" type="line"/>
      <point x="6" y="596" type="line"/>
      <point x="6" y="576" type="line"/>
      <point x="25" y="576" type="line" smooth="yes"/>
      <point x="42" y="576"/>
      <point x="57" y="571"/>
      <point x="70" y="560" type="curve" smooth="yes"/>
      <point x="82" y="549"/>
      <point x="88" y="536"/>
      <point x="88" y="521" type="curve" smooth="yes"/>
      <point x="88" y="74" type="line" smooth="yes"/>
      <point x="88" y="61"/>
      <point x="82" y="49"/>
      <point x="70" y="40" type="curve" smooth="yes"/>
      <point x="57" y="31"/>
      <point x="42" y="27"/>
      <point x="25" y="27" type="curve" smooth="yes"/>
      <point x="6" y="27" type="line"/>
      <point x="6" y="9" type="line"/>
    </contour>
  </outline>
</glyph>
<glyph name="J" format="1">
  <advance width="315"/>
  <unicode hex="004A"/>
  <outline>
    <contour>
      <point x="104" y="-5" type="curve" smooth="yes" name="hr00"/>
      <point x="153" y="-5"/>
      <point x="191" y="9"/>
      <point x="217" y="38" type="curve" smooth="yes"/>
      <point x="242" y="67"/>
      <point x="254" y="108"/>
      <point x="254" y="163" type="curve" smooth="yes"/>
      <point x="254" y="504" type="line" smooth="yes"/>
      <point x="254" y="524"/>
      <point x="259" y="541"/>
      <point x="270" y="556" type="curve" smooth="yes"/>
      <point x="281" y="569"/>
      <point x="294" y="576"/>
      <point x="309" y="576" type="curve" smooth="yes"/>
      <point x="327" y="576" type="line"/>
      <point x="327" y="596" type="line"/>
      <point x="79" y="596" type="line"/>
      <point x="79" y="576" type="line"/>
      <point x="97" y="576" type="line" smooth="yes"/>
      <point x="115" y="576"/>
      <point x="130" y="569"/>
      <point x="142" y="556" type="curve" smooth="yes"/>
      <point x="155" y="541"/>
      <point x="160" y="524"/>
      <point x="160" y="504" type="curve" smooth="yes"/>
      <point x="160" y="82" type="line" smooth="yes"/>
      <point x="160" y="68"/>
      <point x="157" y="55"/>
      <point x="152" y="44" type="curve" smooth="yes"/>
      <point x="147" y="35"/>
      <point x="141" y="31"/>
      <point x="134" y="31" type="curve" smooth="yes"/>
      <point x="129" y="31"/>
      <point x="123" y="34"/>
      <point x="117" y="39" type="curve"/>
      <point x="112" y="46"/>
      <point x="109" y="53"/>
      <point x="108" y="61" type="curve" smooth="yes"/>
      <point x="106" y="73"/>
      <point x="100" y="83"/>
      <point x="90" y="90" type="curve" smooth="yes"/>
      <point x="81" y="97"/>
      <point x="69" y="100"/>
      <point x="56" y="100" type="curve" smooth="yes"/>
      <point x="45" y="100"/>
      <point x="35" y="97"/>
      <point x="26" y="90" type="curve"/>
      <point x="18" y="82"/>
      <point x="14" y="72"/>
      <point x="14" y="61" type="curve" smooth="yes"/>
      <point x="14" y="42"/>
      <point x="23" y="27"/>
      <point x="42" y="15" type="curve"/>
      <point x="59" y="2"/>
      <point x="79" y="-5"/>
    </contour>
  </outline>
</glyph>
<glyph name="K" format="1">
  <advance width="605"/>
  <unicode hex="004B"/>
  <outline>
    <contour>
      <point x="6" y="8" type="line" name="hr00"/>
      <point x="254" y="8" type="line"/>
      <point x="254" y="27" type="line"/>
      <point x="236" y="27" type="line" smooth="yes"/>
      <point x="221" y="27"/>
      <point x="208" y="31"/>
      <point x="197" y="40" type="curve" smooth="yes"/>
      <point x="186" y="49"/>
      <point x="181" y="61"/>
      <point x="181" y="74" type="curve" smooth="yes"/>
      <point x="181" y="271" type="line"/>
      <point x="203" y="291" type="line"/>
      <point x="397" y="81" type="line"/>
      <point x="400" y="76"/>
      <point x="403" y="72"/>
      <point x="404" y="67" type="curve"/>
      <point x="407" y="62"/>
      <point x="408" y="56"/>
      <point x="408" y="50" type="curve" smooth="yes"/>
      <point x="408" y="43"/>
      <point x="405" y="38"/>
      <point x="398" y="34" type="curve"/>
      <point x="392" y="29"/>
      <point x="384" y="27"/>
      <point x="374" y="27" type="curve" smooth="yes"/>
      <point x="356" y="27" type="line"/>
      <point x="356" y="8" type="line"/>
      <point x="604" y="8" type="line"/>
      <point x="604" y="27" type="line"/>
      <point x="595" y="27"/>
      <point x="583" y="32"/>
      <point x="569" y="42" type="curve"/>
      <point x="553" y="51"/>
      <point x="535" y="64"/>
      <point x="518" y="83" type="curve" smooth="yes"/>
      <point x="271" y="346" type="line"/>
      <point x="440" y="512" type="line" smooth="yes"/>
      <point x="463" y="535"/>
      <point x="490" y="549"/>
      <point x="513" y="560" type="curve" smooth="yes"/>
      <point x="537" y="571"/>
      <point x="559" y="576"/>
      <point x="580" y="576" type="curve"/>
      <point x="580" y="596" type="line"/>
      <point x="347" y="596" type="line"/>
      <point x="347" y="576" type="line"/>
      <point x="366" y="576" type="line" smooth="yes"/>
      <point x="376" y="576"/>
      <point x="385" y="574"/>
      <point x="394" y="569" type="curve" smooth="yes"/>
      <point x="401" y="565"/>
      <point x="404" y="560"/>
      <point x="404" y="554" type="curve" smooth="yes"/>
      <point x="404" y="547"/>
      <point x="403" y="541"/>
      <point x="400" y="534" type="curve" smooth="yes"/>
      <point x="398" y="528"/>
      <point x="394" y="523"/>
      <point x="389" y="518" type="curve" smooth="yes"/>
      <point x="181" y="323" type="line"/>
      <point x="181" y="529" type="line" smooth="yes"/>
      <point x="181" y="542"/>
      <point x="186" y="553"/>
      <point x="197" y="563" type="curve" smooth="yes"/>
      <point x="208" y="572"/>
      <point x="221" y="576"/>
      <point x="236" y="576" type="curve" smooth="yes"/>
      <point x="254" y="576" type="line"/>
      <point x="254" y="596" type="line"/>
      <point x="6" y="596" type="line"/>
      <point x="6" y="576" type="line"/>
      <point x="25" y="576" type="line" smooth="yes"/>
      <point x="42" y="576"/>
      <point x="57" y="572"/>
      <point x="70" y="563" type="curve"/>
      <point x="82" y="553"/>
      <point x="88" y="542"/>
      <point x="88" y="529" type="curve" smooth="yes"/>
      <point x="88" y="74" type="line" smooth="yes"/>
      <point x="88" y="61"/>
      <point x="82" y="49"/>
      <point x="70" y="40" type="curve" smooth="yes"/>
      <point x="57" y="31"/>
      <point x="42" y="27"/>
      <point x="25" y="27" type="curve" smooth="yes"/>
      <point x="6" y="27" type="line"/>
      <point x="6" y="9" type="line"/>
    </contour>
  </outline>
</glyph>
<glyph name="L" format="1">
  <advance width="542"/>
  <unicode hex="004C"/>
  <outline>
    <contour>
      <point x="6" y="8" type="line" name="hr00"/>
      <point x="498" y="8" type="line"/>
      <point x="531" y="165" type="line"/>
      <point x="510" y="165" type="line"/>
      <point x="497" y="129"/>
      <point x="477" y="100"/>
      <point x="449" y="77" type="curve" smooth="yes"/>
      <point x="421" y="54"/>
      <point x="391" y="43"/>
      <point x="358" y="43" type="curve" smooth="yes"/>
      <point x="228" y="43" type="line" smooth="yes"/>
      <point x="215" y="43"/>
      <point x="204" y="47"/>
      <point x="194" y="54" type="curve"/>
      <point x="185" y="63"/>
      <point x="181" y="73"/>
      <point x="181" y="82" type="curve" smooth="yes"/>
      <point x="181" y="513" type="line" smooth="yes"/>
      <point x="181" y="530"/>
      <point x="186" y="545"/>
      <point x="197" y="558" type="curve" smooth="yes"/>
      <point x="208" y="570"/>
      <point x="221" y="576"/>
      <point x="236" y="576" type="curve" smooth="yes"/>
      <point x="254" y="576" type="line"/>
      <point x="254" y="596" type="line"/>
      <point x="6" y="596" type="line"/>
      <point x="6" y="576" type="line"/>
      <point x="25" y="576" type="line" smooth="yes"/>
      <point x="42" y="576"/>
      <point x="57" y="571"/>
      <point x="70" y="560" type="curve" smooth="yes"/>
      <point x="82" y="549"/>
      <point x="88" y="536"/>
      <point x="88" y="521" type="curve" smooth="yes"/>
      <point x="88" y="82" type="line" smooth="yes"/>
      <point x="88" y="67"/>
      <point x="82" y="54"/>
      <point x="70" y="43" type="curve" smooth="yes"/>
      <point x="57" y="32"/>
      <point x="42" y="27"/>
      <point x="25" y="27" type="curve" smooth="yes"/>
      <point x="6" y="27" type="line"/>
      <point x="6" y="9" type="line"/>
    </contour>
  </outline>
</glyph>
<glyph name="M" format="1">
  <advance width="761"/>
  <unicode hex="004D"/>
  <outline>
    <contour>
      <point x="6" y="8" type="line" name="hr00"/>
      <point x="213" y="8" type="line"/>
      <point x="213" y="27" type="line"/>
      <point x="194" y="27" type="line" smooth="yes"/>
      <point x="177" y="27"/>
      <point x="163" y="34"/>
      <point x="150" y="48" type="curve" smooth="yes"/>
      <point x="138" y="62"/>
      <point x="132" y="79"/>
      <point x="132" y="98" type="curve" smooth="yes"/>
      <point x="132" y="472" type="line"/>
      <point x="357" y="-1" type="line"/>
      <point x="371" y="-1" type="line"/>
      <point x="592" y="495" type="line"/>
      <point x="592" y="98" type="line" smooth="yes"/>
      <point x="592" y="79"/>
      <point x="586" y="62"/>
      <point x="575" y="48" type="curve" smooth="yes"/>
      <point x="564" y="34"/>
      <point x="552" y="27"/>
      <point x="538" y="27" type="curve" smooth="yes"/>
      <point x="519" y="27" type="line"/>
      <point x="519" y="8" type="line"/>
      <point x="758" y="8" type="line"/>
      <point x="758" y="27" type="line"/>
      <point x="740" y="27" type="line" smooth="yes"/>
      <point x="725" y="27"/>
      <point x="712" y="34"/>
      <point x="701" y="48" type="curve" smooth="yes"/>
      <point x="690" y="62"/>
      <point x="685" y="79"/>
      <point x="685" y="98" type="curve" smooth="yes"/>
      <point x="685" y="521" type="line" smooth="yes"/>
      <point x="685" y="536"/>
      <point x="690" y="549"/>
      <point x="701" y="560" type="curve" smooth="yes"/>
      <point x="712" y="571"/>
      <point x="725" y="576"/>
      <point x="740" y="576" type="curve" smooth="yes"/>
      <point x="758" y="576" type="line"/>
      <point x="758" y="596" type="line"/>
      <point x="587" y="596" type="line"/>
      <point x="394" y="152" type="line"/>
      <point x="180" y="596" type="line"/>
      <point x="6" y="596" type="line"/>
      <point x="6" y="576" type="line"/>
      <point x="25" y="576" type="line" smooth="yes"/>
      <point x="42" y="576"/>
      <point x="58" y="570"/>
      <point x="72" y="558" type="curve"/>
      <point x="84" y="545"/>
      <point x="90" y="530"/>
      <point x="90" y="513" type="curve" smooth="yes"/>
      <point x="90" y="98" type="line" smooth="yes"/>
      <point x="90" y="79"/>
      <point x="85" y="62"/>
      <point x="72" y="48" type="curve" smooth="yes"/>
      <point x="59" y="33"/>
      <point x="42" y="27"/>
      <point x="25" y="27" type="curve" smooth="yes"/>
      <point x="6" y="27" type="line"/>
      <point x="6" y="9" type="line"/>
    </contour>
  </outline>
</glyph>
<glyph name="N" format="1">
  <advance width="619"/>
  <unicode hex="004E"/>
  <outline>
    <contour>
      <point x="7" y="8" type="line" name="hr00"/>
      <point x="214" y="8" type="line"/>
      <point x="214" y="27" type="line"/>
      <point x="195" y="27" type="line" smooth="yes"/>
      <point x="178" y="27"/>
      <point x="162" y="34"/>
      <point x="149" y="48" type="curve" smooth="yes"/>
      <point x="136" y="62"/>
      <point x="130" y="79"/>
      <point x="130" y="98" type="curve" smooth="yes"/>
      <point x="130" y="466" type="line"/>
      <point x="521" y="-5" type="line"/>
      <point x="540" y="-5" type="line"/>
      <point x="540" y="513" type="line" smooth="yes"/>
      <point x="540" y="530"/>
      <point x="546" y="545"/>
      <point x="557" y="558" type="curve"/>
      <point x="570" y="570"/>
      <point x="585" y="576"/>
      <point x="603" y="576" type="curve" smooth="yes"/>
      <point x="621" y="576" type="line"/>
      <point x="621" y="596" type="line"/>
      <point x="421" y="596" type="line"/>
      <point x="421" y="576" type="line"/>
      <point x="440" y="576" type="line" smooth="yes"/>
      <point x="457" y="576"/>
      <point x="470" y="570"/>
      <point x="481" y="558" type="curve" smooth="yes"/>
      <point x="494" y="545"/>
      <point x="500" y="530"/>
      <point x="500" y="513" type="curve" smooth="yes"/>
      <point x="500" y="181" type="line"/>
      <point x="161" y="596" type="line"/>
      <point x="7" y="596" type="line"/>
      <point x="7" y="576" type="line"/>
      <point x="26" y="576" type="line" smooth="yes"/>
      <point x="34" y="576"/>
      <point x="51" y="558"/>
      <point x="80" y="526" type="curve" smooth="yes"/>
      <point x="89" y="516" type="line"/>
      <point x="89" y="98" type="line" smooth="yes"/>
      <point x="89" y="79"/>
      <point x="83" y="62"/>
      <point x="70" y="48" type="curve" smooth="yes"/>
      <point x="57" y="34"/>
      <point x="43" y="27"/>
      <point x="26" y="27" type="curve" smooth="yes"/>
      <point x="7" y="27" type="line"/>
      <point x="7" y="9" type="line"/>
    </contour>
  </outline>
</glyph>
<glyph name="O" format="1">
  <advance width="662"/>
  <unicode hex="004F"/>
  <outline>
    <contour>
      <point x="331" y="27" type="curve" smooth="yes" name="hr00"/>
      <point x="274" y="27"/>
      <point x="229" y="51"/>
      <point x="195" y="99" type="curve" smooth="yes"/>
      <point x="160" y="148"/>
      <point x="143" y="213"/>
      <point x="143" y="293" type="curve" smooth="yes"/>
      <point x="143" y="309" type="line" smooth="yes"/>
      <point x="143" y="390"/>
      <point x="161" y="455"/>
      <point x="195" y="503" type="curve" smooth="yes"/>
      <point x="230" y="552"/>
      <point x="275" y="576"/>
      <point x="333" y="576" type="curve" smooth="yes"/>
      <point x="391" y="576"/>
      <point x="438" y="552"/>
      <point x="473" y="503" type="curve" smooth="yes"/>
      <point x="508" y="455"/>
      <point x="526" y="390"/>
      <point x="526" y="309" type="curve" smooth="yes"/>
      <point x="526" y="293" type="line" smooth="yes"/>
      <point x="526" y="213"/>
      <point x="508" y="148"/>
      <point x="473" y="99" type="curve" smooth="yes"/>
      <point x="438" y="51"/>
      <point x="390" y="27"/>
    </contour>
    <contour>
      <point x="331" y="-9" type="curve" smooth="yes"/>
      <point x="421" y="-9"/>
      <point x="492" y="18"/>
      <point x="546" y="73" type="curve" smooth="yes"/>
      <point x="600" y="129"/>
      <point x="628" y="202"/>
      <point x="628" y="293" type="curve" smooth="yes"/>
      <point x="628" y="309" type="line" smooth="yes"/>
      <point x="628" y="402"/>
      <point x="600" y="474"/>
      <point x="546" y="529" type="curve" smooth="yes"/>
      <point x="492" y="584"/>
      <point x="422" y="613"/>
      <point x="333" y="613" type="curve" smooth="yes"/>
      <point x="244" y="613"/>
      <point x="174" y="585"/>
      <point x="119" y="529" type="curve" smooth="yes"/>
      <point x="65" y="475"/>
      <point x="38" y="402"/>
      <point x="38" y="309" type="curve" smooth="yes"/>
      <point x="38" y="293" type="line" smooth="yes"/>
      <point x="38" y="202"/>
      <point x="65" y="128"/>
      <point x="119" y="73" type="curve" smooth="yes"/>
      <point x="173" y="18"/>
      <point x="244" y="-9"/>
    </contour>
  </outline>
</glyph>
<glyph name="P" format="1">
  <advance width="501"/>
  <unicode hex="0050"/>
  <outline>
    <contour>
      <point x="181" y="295" type="line" name="hr00"/>
      <point x="181" y="521" type="line" smooth="yes"/>
      <point x="181" y="531"/>
      <point x="188" y="540"/>
      <point x="201" y="548" type="curve" smooth="yes"/>
      <point x="216" y="556"/>
      <point x="233" y="560"/>
      <point x="253" y="560" type="curve" smooth="yes"/>
      <point x="292" y="560"/>
      <point x="321" y="547"/>
      <point x="344" y="523" type="curve" smooth="yes"/>
      <point x="367" y="499"/>
      <point x="380" y="468"/>
      <point x="380" y="428" type="curve" smooth="yes"/>
      <point x="380" y="388"/>
      <point x="368" y="356"/>
      <point x="344" y="331" type="curve" smooth="yes"/>
      <point x="322" y="307"/>
      <point x="291" y="295"/>
      <point x="251" y="295" type="curve" smooth="yes"/>
    </contour>
    <contour>
      <point x="6" y="8" type="line"/>
      <point x="262" y="8" type="line"/>
      <point x="262" y="27" type="line"/>
      <point x="244" y="27" type="line" smooth="yes"/>
      <point x="227" y="27"/>
      <point x="212" y="33"/>
      <point x="199" y="46" type="curve" smooth="yes"/>
      <point x="187" y="58"/>
      <point x="181" y="73"/>
      <point x="181" y="90" type="curve" smooth="yes"/>
      <point x="181" y="259" type="line"/>
      <point x="253" y="259" type="line" smooth="yes"/>
      <point x="322" y="259"/>
      <point x="377" y="274"/>
      <point x="419" y="305" type="curve" smooth="yes"/>
      <point x="460" y="336"/>
      <point x="481" y="377"/>
      <point x="481" y="428" type="curve" smooth="yes"/>
      <point x="481" y="478"/>
      <point x="461" y="519"/>
      <point x="422" y="551" type="curve" smooth="yes"/>
      <point x="385" y="581"/>
      <point x="333" y="596"/>
      <point x="268" y="596" type="curve" smooth="yes"/>
      <point x="6" y="596" type="line"/>
      <point x="6" y="576" type="line"/>
      <point x="25" y="576" type="line" smooth="yes"/>
      <point x="42" y="576"/>
      <point x="57" y="571"/>
      <point x="70" y="560" type="curve" smooth="yes"/>
      <point x="82" y="549"/>
      <point x="88" y="536"/>
      <point x="88" y="521" type="curve" smooth="yes"/>
      <point x="88" y="90" type="line" smooth="yes"/>
      <point x="88" y="73"/>
      <point x="82" y="58"/>
      <point x="69" y="46" type="curve" smooth="yes"/>
      <point x="56" y="33"/>
      <point x="42" y="27"/>
      <point x="25" y="27" type="curve" smooth="yes"/>
      <point x="6" y="27" type="line"/>
      <point x="6" y="9" type="line"/>
    </contour>
  </outline>
</glyph>
<glyph name="Q" format="1">
  <advance width="660"/>
  <unicode hex="0051"/>
  <outline>
    <contour>
      <point x="335" y="27" type="curve" smooth="yes" name="hr00"/>
      <point x="283" y="27"/>
      <point x="238" y="53"/>
      <point x="200" y="105" type="curve" smooth="yes"/>
      <point x="163" y="157"/>
      <point x="145" y="220"/>
      <point x="145" y="293" type="curve" smooth="yes"/>
      <point x="145" y="309" type="line" smooth="yes"/>
      <point x="145" y="384"/>
      <point x="163" y="447"/>
      <point x="200" y="498" type="curve" smooth="yes"/>
      <point x="238" y="550"/>
      <point x="284" y="576"/>
      <point x="337" y="576" type="curve" smooth="yes"/>
      <point x="388" y="576"/>
      <point x="432" y="550"/>
      <point x="468" y="498" type="curve" smooth="yes"/>
      <point x="504" y="447"/>
      <point x="522" y="384"/>
      <point x="522" y="309" type="curve" smooth="yes"/>
      <point x="522" y="293" type="line" smooth="yes"/>
      <point x="522" y="220"/>
      <point x="504" y="157"/>
      <point x="468" y="105" type="curve" smooth="yes"/>
      <point x="432" y="53"/>
      <point x="388" y="27"/>
    </contour>
    <contour>
      <point x="251" y="0" type="line"/>
      <point x="279" y="-49"/>
      <point x="322" y="-85"/>
      <point x="380" y="-113" type="curve" smooth="yes"/>
      <point x="437" y="-141"/>
      <point x="501" y="-156"/>
      <point x="572" y="-156" type="curve" smooth="yes"/>
      <point x="632" y="-156" type="line"/>
      <point x="632" y="-139" type="line"/>
      <point x="585" y="-131"/>
      <point x="542" y="-116"/>
      <point x="502" y="-92" type="curve" smooth="yes"/>
      <point x="462" y="-68"/>
      <point x="427" y="-38"/>
      <point x="398" y="-4" type="curve"/>
      <point x="463" y="7"/>
      <point x="518" y="41"/>
      <point x="562" y="98" type="curve" smooth="yes"/>
      <point x="606" y="155"/>
      <point x="628" y="220"/>
      <point x="628" y="293" type="curve" smooth="yes"/>
      <point x="628" y="309" type="line" smooth="yes"/>
      <point x="628" y="393"/>
      <point x="599" y="465"/>
      <point x="542" y="524" type="curve" smooth="yes"/>
      <point x="486" y="583"/>
      <point x="418" y="613"/>
      <point x="337" y="613" type="curve" smooth="yes"/>
      <point x="253" y="613"/>
      <point x="182" y="583"/>
      <point x="123" y="524" type="curve" smooth="yes"/>
      <point x="64" y="465"/>
      <point x="34" y="393"/>
      <point x="34" y="309" type="curve" smooth="yes"/>
      <point x="34" y="293" type="line" smooth="yes"/>
      <point x="34" y="220"/>
      <point x="55" y="155"/>
      <point x="96" y="99" type="curve" smooth="yes"/>
      <point x="137" y="44"/>
      <point x="188" y="10"/>
      <point x="251" y="-1" type="curve"/>
    </contour>
  </outline>
</glyph>
<glyph name="R" format="1">
  <advance width="587"/>
  <unicode hex="0052"/>
  <outline>
    <contour>
      <point x="178" y="309" type="line" name="hr00"/>
      <point x="181" y="529" type="line" smooth="yes"/>
      <point x="181" y="538"/>
      <point x="186" y="545"/>
      <point x="195" y="551" type="curve"/>
      <point x="207" y="557"/>
      <point x="221" y="560"/>
      <point x="236" y="560" type="curve" smooth="yes"/>
      <point x="278" y="560"/>
      <point x="314" y="548"/>
      <point x="344" y="525" type="curve" smooth="yes"/>
      <point x="374" y="502"/>
      <point x="389" y="475"/>
      <point x="389" y="443" type="curve" smooth="yes"/>
      <point x="389" y="407"/>
      <point x="372" y="377"/>
      <point x="339" y="351" type="curve" smooth="yes"/>
      <point x="306" y="325"/>
      <point x="267" y="311"/>
      <point x="220" y="311" type="curve" smooth="yes"/>
      <point x="178" y="311" type="line"/>
    </contour>
    <contour>
      <point x="6" y="8" type="line"/>
      <point x="254" y="8" type="line"/>
      <point x="254" y="27" type="line"/>
      <point x="236" y="27" type="line" smooth="yes"/>
      <point x="221" y="27"/>
      <point x="208" y="33"/>
      <point x="197" y="46" type="curve" smooth="yes"/>
      <point x="186" y="58"/>
      <point x="181" y="73"/>
      <point x="181" y="90" type="curve" smooth="yes"/>
      <point x="181" y="276" type="line"/>
      <point x="235" y="276" type="line"/>
      <point x="438" y="8" type="line"/>
      <point x="587" y="8" type="line"/>
      <point x="587" y="27" type="line"/>
      <point x="575" y="27"/>
      <point x="562" y="31"/>
      <point x="548" y="39" type="curve" smooth="yes"/>
      <point x="532" y="48"/>
      <point x="516" y="60"/>
      <point x="501" y="75" type="curve"/>
      <point x="329" y="292" type="line"/>
      <point x="374" y="301"/>
      <point x="412" y="319"/>
      <point x="443" y="347" type="curve" smooth="yes"/>
      <point x="474" y="376"/>
      <point x="490" y="408"/>
      <point x="490" y="443" type="curve" smooth="yes"/>
      <point x="490" y="488"/>
      <point x="472" y="524"/>
      <point x="436" y="553" type="curve" smooth="yes"/>
      <point x="401" y="582"/>
      <point x="356" y="596"/>
      <point x="301" y="596" type="curve" smooth="yes"/>
      <point x="6" y="596" type="line"/>
      <point x="6" y="576" type="line"/>
      <point x="25" y="576" type="line" smooth="yes"/>
      <point x="42" y="576"/>
      <point x="56" y="570"/>
      <point x="69" y="558" type="curve" smooth="yes"/>
      <point x="82" y="545"/>
      <point x="88" y="530"/>
      <point x="88" y="513" type="curve" smooth="yes"/>
      <point x="88" y="90" type="line" smooth="yes"/>
      <point x="88" y="73"/>
      <point x="82" y="58"/>
      <point x="69" y="46" type="curve" smooth="yes"/>
      <point x="56" y="33"/>
      <point x="42" y="27"/>
      <point x="25" y="27" type="curve" smooth="yes"/>
      <point x="6" y="27" type="line"/>
      <point x="6" y="9" type="line"/>
    </contour>
  </outline>
</glyph>
<glyph name="S" format="1">
  <advance width="471"/>
  <unicode hex="0053"/>
  <outline>
    <contour>
      <point x="53" y="-1" type="line" name="hr00"/>
      <point x="82" y="-1" type="line"/>
      <point x="83" y="6"/>
      <point x="87" y="12"/>
      <point x="93" y="17" type="curve" smooth="yes"/>
      <point x="99" y="21"/>
      <point x="105" y="23"/>
      <point x="112" y="23" type="curve" smooth="yes"/>
      <point x="126" y="23"/>
      <point x="142" y="18"/>
      <point x="160" y="8" type="curve" smooth="yes"/>
      <point x="179" y="-3"/>
      <point x="207" y="-9"/>
      <point x="243" y="-9" type="curve" smooth="yes"/>
      <point x="298" y="-9"/>
      <point x="344" y="8"/>
      <point x="382" y="41" type="curve" smooth="yes"/>
      <point x="421" y="75"/>
      <point x="441" y="116"/>
      <point x="441" y="163" type="curve" smooth="yes"/>
      <point x="441" y="193"/>
      <point x="427" y="224"/>
      <point x="400" y="257" type="curve" smooth="yes"/>
      <point x="373" y="289"/>
      <point x="338" y="319"/>
      <point x="293" y="345" type="curve" smooth="yes"/>
      <point x="246" y="372"/>
      <point x="210" y="398"/>
      <point x="184" y="425" type="curve" smooth="yes"/>
      <point x="157" y="452"/>
      <point x="143" y="476"/>
      <point x="143" y="497" type="curve" smooth="yes"/>
      <point x="143" y="517"/>
      <point x="152" y="534"/>
      <point x="170" y="549" type="curve" smooth="yes"/>
      <point x="188" y="564"/>
      <point x="209" y="572"/>
      <point x="234" y="572" type="curve" smooth="yes"/>
      <point x="267" y="572"/>
      <point x="297" y="559"/>
      <point x="326" y="532" type="curve" smooth="yes"/>
      <point x="356" y="504"/>
      <point x="380" y="467"/>
      <point x="397" y="422" type="curve"/>
      <point x="416" y="422" type="line"/>
      <point x="399" y="613" type="line"/>
      <point x="376" y="613" type="line"/>
      <point x="374" y="604"/>
      <point x="370" y="596"/>
      <point x="363" y="591" type="curve" smooth="yes"/>
      <point x="357" y="586"/>
      <point x="349" y="584"/>
      <point x="340" y="584" type="curve" smooth="yes"/>
      <point x="331" y="584"/>
      <point x="315" y="588"/>
      <point x="292" y="596" type="curve" smooth="yes"/>
      <point x="262" y="607"/>
      <point x="237" y="613"/>
      <point x="218" y="613" type="curve" smooth="yes"/>
      <point x="175" y="613"/>
      <point x="137" y="598"/>
      <point x="105" y="569" type="curve" smooth="yes"/>
      <point x="74" y="540"/>
      <point x="58" y="505"/>
      <point x="58" y="464" type="curve" smooth="yes"/>
      <point x="58" y="433"/>
      <point x="72" y="401"/>
      <point x="97" y="369" type="curve" smooth="yes"/>
      <point x="122" y="337"/>
      <point x="154" y="309"/>
      <point x="197" y="284" type="curve" smooth="yes"/>
      <point x="242" y="258"/>
      <point x="278" y="232"/>
      <point x="305" y="205" type="curve" smooth="yes"/>
      <point x="330" y="180"/>
      <point x="342" y="158"/>
      <point x="342" y="140" type="curve" smooth="yes"/>
      <point x="342" y="110"/>
      <point x="333" y="84"/>
      <point x="314" y="63" type="curve" smooth="yes"/>
      <point x="294" y="42"/>
      <point x="270" y="31"/>
      <point x="243" y="31" type="curve" smooth="yes"/>
      <point x="205" y="31"/>
      <point x="169" y="46"/>
      <point x="135" y="74" type="curve" smooth="yes"/>
      <point x="100" y="103"/>
      <point x="74" y="141"/>
      <point x="57" y="190" type="curve"/>
      <point x="29" y="190" type="line"/>
      <point x="53" y="0" type="line"/>
    </contour>
  </outline>
</glyph>
<glyph name="T" format="1">
  <advance width="557"/>
  <unicode hex="0054"/>
  <outline>
    <contour>
      <point x="149" y="8" type="line" name="hr00"/>
      <point x="414" y="8" type="line"/>
      <point x="414" y="27" type="line"/>
      <point x="396" y="27" type="line" smooth="yes"/>
      <point x="379" y="27"/>
      <point x="363" y="33"/>
      <point x="350" y="46" type="curve" smooth="yes"/>
      <point x="338" y="58"/>
      <point x="332" y="73"/>
      <point x="332" y="90" type="curve" smooth="yes"/>
      <point x="332" y="560" type="line"/>
      <point x="412" y="560" type="line" smooth="yes"/>
      <point x="434" y="560"/>
      <point x="456" y="549"/>
      <point x="476" y="527" type="curve" smooth="yes"/>
      <point x="497" y="504"/>
      <point x="511" y="474"/>
      <point x="521" y="438" type="curve"/>
      <point x="544" y="438" type="line"/>
      <point x="536" y="596" type="line"/>
      <point x="27" y="596" type="line"/>
      <point x="19" y="438" type="line"/>
      <point x="43" y="438" type="line"/>
      <point x="53" y="474"/>
      <point x="68" y="504"/>
      <point x="88" y="527" type="curve" smooth="yes"/>
      <point x="107" y="549"/>
      <point x="128" y="560"/>
      <point x="151" y="560" type="curve" smooth="yes"/>
      <point x="231" y="560" type="line"/>
      <point x="231" y="90" type="line" smooth="yes"/>
      <point x="231" y="73"/>
      <point x="225" y="58"/>
      <point x="213" y="46" type="curve" smooth="yes"/>
      <point x="200" y="33"/>
      <point x="184" y="27"/>
      <point x="167" y="27" type="curve" smooth="yes"/>
      <point x="149" y="27" type="line"/>
      <point x="149" y="9" type="line"/>
    </contour>
  </outline>
</glyph>
<glyph name="U" format="1">
  <advance width="622"/>
  <unicode hex="0055"/>
  <outline>
    <contour>
      <point x="311" y="-5" type="curve" smooth="yes" name="hr00"/>
      <point x="376" y="-5"/>
      <point x="431" y="14"/>
      <point x="476" y="54" type="curve" smooth="yes"/>
      <point x="520" y="93"/>
      <point x="542" y="142"/>
      <point x="542" y="199" type="curve" smooth="yes"/>
      <point x="542" y="497" type="line" smooth="yes"/>
      <point x="542" y="520"/>
      <point x="548" y="538"/>
      <point x="561" y="553" type="curve" smooth="yes"/>
      <point x="574" y="568"/>
      <point x="589" y="576"/>
      <point x="606" y="576" type="curve" smooth="yes"/>
      <point x="624" y="576" type="line"/>
      <point x="624" y="596" type="line"/>
      <point x="413" y="596" type="line"/>
      <point x="413" y="576" type="line"/>
      <point x="430" y="576" type="line" smooth="yes"/>
      <point x="447" y="576"/>
      <point x="462" y="568"/>
      <point x="475" y="553" type="curve" smooth="yes"/>
      <point x="487" y="538"/>
      <point x="493" y="520"/>
      <point x="493" y="497" type="curve" smooth="yes"/>
      <point x="493" y="199" type="line" smooth="yes"/>
      <point x="493" y="154"/>
      <point x="479" y="116"/>
      <point x="447" y="83" type="curve" smooth="yes"/>
      <point x="416" y="52"/>
      <point x="378" y="36"/>
      <point x="335" y="36" type="curve" smooth="yes"/>
      <point x="292" y="36"/>
      <point x="253" y="51"/>
      <point x="222" y="83" type="curve" smooth="yes"/>
      <point x="191" y="115"/>
      <point x="177" y="154"/>
      <point x="177" y="199" type="curve" smooth="yes"/>
      <point x="177" y="513" type="line" smooth="yes"/>
      <point x="177" y="530"/>
      <point x="182" y="545"/>
      <point x="195" y="558" type="curve" smooth="yes"/>
      <point x="208" y="571"/>
      <point x="223" y="576"/>
      <point x="240" y="576" type="curve" smooth="yes"/>
      <point x="258" y="576" type="line"/>
      <point x="258" y="596" type="line"/>
      <point x="2" y="596" type="line"/>
      <point x="2" y="576" type="line"/>
      <point x="21" y="576" type="line" smooth="yes"/>
      <point x="38" y="576"/>
      <point x="52" y="570"/>
      <point x="65" y="558" type="curve" smooth="yes"/>
      <point x="78" y="545"/>
      <point x="84" y="530"/>
      <point x="84" y="513" type="curve" smooth="yes"/>
      <point x="84" y="199" type="line" smooth="yes"/>
      <point x="84" y="142"/>
      <point x="105" y="93"/>
      <point x="150" y="54" type="curve" smooth="yes"/>
      <point x="195" y="14"/>
      <point x="250" y="-5"/>
    </contour>
  </outline>
</glyph>
<glyph name="V" format="1">
  <advance width="619"/>
  <unicode hex="0056"/>
  <outline>
    <contour>
      <point x="345" y="8" type="line" name="hr00"/>
      <point x="550" y="504" type="line" smooth="yes"/>
      <point x="558" y="524"/>
      <point x="568" y="543"/>
      <point x="581" y="557" type="curve" smooth="yes"/>
      <point x="592" y="570"/>
      <point x="605" y="576"/>
      <point x="618" y="576" type="curve"/>
      <point x="618" y="596" type="line"/>
      <point x="444" y="596" type="line"/>
      <point x="444" y="576" type="line"/>
      <point x="462" y="576" type="line" smooth="yes"/>
      <point x="473" y="576"/>
      <point x="483" y="572"/>
      <point x="492" y="565" type="curve" smooth="yes"/>
      <point x="501" y="557"/>
      <point x="505" y="548"/>
      <point x="505" y="537" type="curve" smooth="yes"/>
      <point x="505" y="530"/>
      <point x="503" y="520"/>
      <point x="497" y="505" type="curve" smooth="yes"/>
      <point x="356" y="156" type="line"/>
      <point x="195" y="497" type="line"/>
      <point x="187" y="520" type="line" smooth="yes"/>
      <point x="182" y="534"/>
      <point x="179" y="543"/>
      <point x="179" y="546" type="curve" smooth="yes"/>
      <point x="179" y="554"/>
      <point x="183" y="561"/>
      <point x="192" y="567" type="curve" smooth="yes"/>
      <point x="202" y="573"/>
      <point x="213" y="576"/>
      <point x="226" y="576" type="curve" smooth="yes"/>
      <point x="244" y="576" type="line"/>
      <point x="244" y="596" type="line"/>
      <point x="4" y="596" type="line"/>
      <point x="4" y="576" type="line"/>
      <point x="18" y="576"/>
      <point x="33" y="569"/>
      <point x="48" y="555" type="curve" smooth="yes"/>
      <point x="64" y="540"/>
      <point x="79" y="521"/>
      <point x="94" y="496" type="curve"/>
      <point x="322" y="8" type="line"/>
    </contour>
  </outline>
</glyph>
<glyph name="W" format="1">
  <advance width="845"/>
  <unicode hex="0057"/>
  <outline>
    <contour>
      <point x="281" y="8" type="line" name="hr00"/>
      <point x="418" y="361" type="line"/>
      <point x="565" y="8" type="line"/>
      <point x="582" y="8" type="line"/>
      <point x="762" y="504" type="line" smooth="yes"/>
      <point x="770" y="525"/>
      <point x="780" y="543"/>
      <point x="792" y="557" type="curve" smooth="yes"/>
      <point x="803" y="570"/>
      <point x="814" y="576"/>
      <point x="825" y="576" type="curve" smooth="yes"/>
      <point x="844" y="576" type="line"/>
      <point x="844" y="596" type="line"/>
      <point x="661" y="596" type="line"/>
      <point x="661" y="576" type="line"/>
      <point x="679" y="576" type="line" smooth="yes"/>
      <point x="692" y="576"/>
      <point x="704" y="573"/>
      <point x="713" y="567" type="curve" smooth="yes"/>
      <point x="722" y="561"/>
      <point x="726" y="554"/>
      <point x="726" y="546" type="curve" smooth="yes"/>
      <point x="726" y="533"/>
      <point x="723" y="520"/>
      <point x="717" y="505" type="curve" smooth="yes"/>
      <point x="596" y="177" type="line"/>
      <point x="469" y="510" type="line" smooth="yes"/>
      <point x="467" y="515"/>
      <point x="466" y="527"/>
      <point x="466" y="546" type="curve" smooth="yes"/>
      <point x="466" y="555"/>
      <point x="469" y="562"/>
      <point x="476" y="567" type="curve" smooth="yes"/>
      <point x="483" y="573"/>
      <point x="491" y="576"/>
      <point x="500" y="576" type="curve" smooth="yes"/>
      <point x="527" y="576" type="line"/>
      <point x="527" y="596" type="line"/>
      <point x="279" y="596" type="line"/>
      <point x="279" y="576" type="line"/>
      <point x="297" y="576" type="line" smooth="yes"/>
      <point x="308" y="576"/>
      <point x="319" y="571"/>
      <point x="330" y="562" type="curve" smooth="yes"/>
      <point x="342" y="551"/>
      <point x="351" y="538"/>
      <point x="356" y="521" type="curve"/>
      <point x="396" y="419" type="line"/>
      <point x="301" y="177" type="line"/>
      <point x="181" y="505" type="line" smooth="yes"/>
      <point x="176" y="520"/>
      <point x="174" y="533"/>
      <point x="174" y="546" type="curve" smooth="yes"/>
      <point x="174" y="555"/>
      <point x="177" y="562"/>
      <point x="184" y="567" type="curve"/>
      <point x="190" y="573"/>
      <point x="198" y="576"/>
      <point x="207" y="576" type="curve" smooth="yes"/>
      <point x="226" y="576" type="line"/>
      <point x="226" y="596" type="line"/>
      <point x="2" y="596" type="line"/>
      <point x="2" y="576" type="line"/>
      <point x="19" y="576"/>
      <point x="35" y="570"/>
      <point x="50" y="557" type="curve" smooth="yes"/>
      <point x="65" y="543"/>
      <point x="76" y="525"/>
      <point x="84" y="504" type="curve" smooth="yes"/>
      <point x="262" y="8" type="line"/>
    </contour>
  </outline>
</glyph>
<glyph name="X" format="1">
  <advance width="574"/>
  <unicode hex="0058"/>
  <outline>
    <contour>
      <point x="7" y="8" type="line" name="hr00"/>
      <point x="240" y="8" type="line"/>
      <point x="240" y="27" type="line"/>
      <point x="221" y="27" type="line" smooth="yes"/>
      <point x="202" y="27"/>
      <point x="186" y="31"/>
      <point x="173" y="38" type="curve" smooth="yes"/>
      <point x="160" y="45"/>
      <point x="154" y="52"/>
      <point x="154" y="61" type="curve" smooth="yes"/>
      <point x="154" y="75"/>
      <point x="158" y="88"/>
      <point x="165" y="101" type="curve"/>
      <point x="274" y="248" type="line"/>
      <point x="365" y="101" type="line" smooth="yes"/>
      <point x="373" y="87"/>
      <point x="377" y="74"/>
      <point x="377" y="61" type="curve" smooth="yes"/>
      <point x="377" y="52"/>
      <point x="373" y="44"/>
      <point x="366" y="38" type="curve" smooth="yes"/>
      <point x="357" y="31"/>
      <point x="347" y="27"/>
      <point x="334" y="27" type="curve" smooth="yes"/>
      <point x="316" y="27" type="line"/>
      <point x="316" y="8" type="line"/>
      <point x="572" y="8" type="line"/>
      <point x="572" y="27" type="line"/>
      <point x="554" y="27"/>
      <point x="537" y="34"/>
      <point x="520" y="47" type="curve" smooth="yes"/>
      <point x="503" y="60"/>
      <point x="487" y="78"/>
      <point x="474" y="99" type="curve" smooth="yes"/>
      <point x="333" y="326" type="line"/>
      <point x="480" y="524" type="line"/>
      <point x="489" y="540"/>
      <point x="500" y="553"/>
      <point x="515" y="563" type="curve" smooth="yes"/>
      <point x="530" y="572"/>
      <point x="546" y="576"/>
      <point x="564" y="576" type="curve"/>
      <point x="564" y="596" type="line"/>
      <point x="361" y="596" type="line"/>
      <point x="382" y="576" type="line"/>
      <point x="393" y="576"/>
      <point x="403" y="573"/>
      <point x="411" y="568" type="curve" smooth="yes"/>
      <point x="418" y="563"/>
      <point x="421" y="556"/>
      <point x="421" y="548" type="curve" smooth="yes"/>
      <point x="421" y="538"/>
      <point x="417" y="527"/>
      <point x="410" y="514" type="curve"/>
      <point x="302" y="362" type="line"/>
      <point x="210" y="514" type="line"/>
      <point x="202" y="533" type="line" smooth="yes"/>
      <point x="199" y="539"/>
      <point x="198" y="543"/>
      <point x="198" y="546" type="curve" smooth="yes"/>
      <point x="198" y="555"/>
      <point x="201" y="562"/>
      <point x="207" y="567" type="curve"/>
      <point x="212" y="573"/>
      <point x="220" y="576"/>
      <point x="229" y="576" type="curve" smooth="yes"/>
      <point x="247" y="576" type="line"/>
      <point x="247" y="596" type="line"/>
      <point x="15" y="596" type="line"/>
      <point x="15" y="576" type="line"/>
      <point x="27" y="576"/>
      <point x="40" y="571"/>
      <point x="54" y="562" type="curve" smooth="yes"/>
      <point x="68" y="552"/>
      <point x="82" y="538"/>
      <point x="97" y="520" type="curve"/>
      <point x="251" y="289" type="line"/>
      <point x="105" y="99" type="line" smooth="yes"/>
      <point x="87" y="75"/>
      <point x="67" y="60"/>
      <point x="50" y="47" type="curve" smooth="yes"/>
      <point x="34" y="35"/>
      <point x="20" y="27"/>
      <point x="7" y="27" type="curve"/>
      <point x="7" y="9" type="line"/>
    </contour>
  </outline>
</glyph>
<glyph name="Y" format="1">
  <advance width="615"/>
  <unicode hex="0059"/>
  <outline>
    <contour>
      <point x="180" y="8" type="line" name="hr00"/>
      <point x="454" y="8" type="line"/>
      <point x="454" y="27" type="line"/>
      <point x="435" y="27" type="line" smooth="yes"/>
      <point x="415" y="27"/>
      <point x="398" y="34"/>
      <point x="385" y="46" type="curve" smooth="yes"/>
      <point x="371" y="59"/>
      <point x="364" y="73"/>
      <point x="364" y="90" type="curve" smooth="yes"/>
      <point x="364" y="273" type="line"/>
      <point x="521" y="520" type="line" smooth="yes"/>
      <point x="532" y="537"/>
      <point x="545" y="552"/>
      <point x="562" y="562" type="curve" smooth="yes"/>
      <point x="579" y="571"/>
      <point x="597" y="576"/>
      <point x="616" y="576" type="curve"/>
      <point x="616" y="596" type="line"/>
      <point x="416" y="596" type="line"/>
      <point x="416" y="576" type="line"/>
      <point x="435" y="576" type="line" smooth="yes"/>
      <point x="448" y="576"/>
      <point x="460" y="573"/>
      <point x="469" y="568" type="curve" smooth="yes"/>
      <point x="478" y="562"/>
      <point x="482" y="555"/>
      <point x="482" y="548" type="curve" smooth="yes"/>
      <point x="482" y="547"/>
      <point x="481" y="544"/>
      <point x="478" y="539" type="curve"/>
      <point x="477" y="535"/>
      <point x="474" y="529"/>
      <point x="469" y="522" type="curve" smooth="yes"/>
      <point x="345" y="323" type="line"/>
      <point x="218" y="522" type="line"/>
      <point x="206" y="545" type="line" smooth="yes"/>
      <point x="203" y="550"/>
      <point x="201" y="554"/>
      <point x="201" y="557" type="curve" smooth="yes"/>
      <point x="201" y="562"/>
      <point x="204" y="566"/>
      <point x="211" y="570" type="curve" smooth="yes"/>
      <point x="220" y="574"/>
      <point x="229" y="576"/>
      <point x="240" y="576" type="curve" smooth="yes"/>
      <point x="258" y="576" type="line"/>
      <point x="258" y="596" type="line"/>
      <point x="2" y="596" type="line"/>
      <point x="2" y="576" type="line"/>
      <point x="21" y="576"/>
      <point x="39" y="570"/>
      <point x="56" y="559" type="curve" smooth="yes"/>
      <point x="74" y="548"/>
      <point x="89" y="532"/>
      <point x="100" y="512" type="curve"/>
      <point x="270" y="268" type="line"/>
      <point x="270" y="90" type="line" smooth="yes"/>
      <point x="270" y="73"/>
      <point x="263" y="58"/>
      <point x="250" y="46" type="curve" smooth="yes"/>
      <point x="236" y="33"/>
      <point x="219" y="27"/>
      <point x="199" y="27" type="curve" smooth="yes"/>
      <point x="180" y="27" type="line"/>
      <point x="180" y="9" type="line"/>
    </contour>
  </outline>
</glyph>
<glyph name="Z" format="1">
  <advance width="573"/>
  <unicode hex="005A"/>
  <outline>
    <contour>
      <point x="19" y="8" type="line" name="hr00"/>
      <point x="536" y="8" type="line"/>
      <point x="552" y="173" type="line"/>
      <point x="532" y="173" type="line"/>
      <point x="521" y="134"/>
      <point x="502" y="102"/>
      <point x="475" y="79" type="curve" smooth="yes"/>
      <point x="448" y="55"/>
      <point x="418" y="43"/>
      <point x="387" y="43" type="curve" smooth="yes"/>
      <point x="152" y="43" type="line"/>
      <point x="552" y="578" type="line"/>
      <point x="552" y="596" type="line"/>
      <point x="60" y="596" type="line"/>
      <point x="42" y="438" type="line"/>
      <point x="63" y="438" type="line"/>
      <point x="73" y="474"/>
      <point x="90" y="504"/>
      <point x="115" y="527" type="curve" smooth="yes"/>
      <point x="140" y="549"/>
      <point x="169" y="560"/>
      <point x="200" y="560" type="curve" smooth="yes"/>
      <point x="412" y="560" type="line"/>
      <point x="19" y="26" type="line"/>
      <point x="19" y="9" type="line"/>
    </contour>
  </outline>
</glyph>
<glyph name="bracketleft" format="1">
  <advance width="409"/>
  <unicode hex="005B"/>
  <outline>
    <contour>
      <point x="333" y="-319" type="line" name="hr00"/>
      <point x="333" y="-265" type="line"/>
      <point x="181" y="-265" type="line"/>
      <point x="181" y="842" type="line"/>
      <point x="333" y="842" type="line"/>
      <point x="333" y="895" type="line"/>
      <point x="75" y="895" type="line"/>
      <point x="75" y="-319" type="line"/>
    </contour>
  </outline>
</glyph>
<glyph name="backslash" format="1">
  <advance width="644"/>
  <unicode hex="005C"/>
  <outline>
    <contour>
      <point x="168" y="834" type="line" name="hr00"/>
      <point x="75" y="834" type="line"/>
      <point x="475" y="-238" type="line"/>
      <point x="568" y="-238" type="line"/>
    </contour>
  </outline>
</glyph>
<glyph name="bracketright" format="1">
  <advance width="409"/>
  <unicode hex="005D"/>
  <outline>
    <contour>
      <point x="333" y="895" type="line" name="hr00"/>
      <point x="75" y="895" type="line"/>
      <point x="75" y="842" type="line"/>
      <point x="227" y="842" type="line"/>
      <point x="227" y="-265" type="line"/>
      <point x="75" y="-265" type="line"/>
      <point x="75" y="-319" type="line"/>
      <point x="333" y="-319" type="line"/>
    </contour>
  </outline>
</glyph>
<glyph name="asciicircum" format="1">
  <advance width="634"/>
  <unicode hex="005E"/>
  <outline>
    <contour>
      <point x="75" y="162" type="line" name="hr00"/>
      <point x="110" y="162" type="line"/>
      <point x="318" y="391" type="line"/>
      <point x="523" y="162" type="line"/>
      <point x="557" y="162" type="line"/>
      <point x="359" y="514" type="line"/>
      <point x="271" y="514" type="line"/>
    </contour>
  </outline>
</glyph>
<glyph name="underscore" format="1">
  <advance width="750"/>
  <unicode hex="005F"/>
  <outline>
    <contour>
      <point x="66" y="-484" type="line" name="hr00"/>
      <point x="680" y="-484" type="line"/>
      <point x="680" y="-444" type="line"/>
      <point x="66" y="-444" type="line"/>
    </contour>
  </outline>
</glyph>
<glyph name="graveaccent" format="1">
  <advance width="348"/>
  <unicode hex="0060"/>
  <outline>
    <contour>
      <point x="233" y="661" type="line" name="hr00"/>
      <point x="272" y="661" type="line"/>
      <point x="207" y="950" type="line"/>
      <point x="75" y="950" type="line"/>
    </contour>
  </outline>
</glyph>
<glyph name="a" format="1">
  <advance width="415"/>
  <unicode hex="0061"/>
  <outline>
    <contour>
      <point x="189" y="54" type="curve" smooth="yes" name="hr00"/>
      <point x="170" y="54"/>
      <point x="154" y="61"/>
      <point x="139" y="75" type="curve" smooth="yes"/>
      <point x="126" y="88"/>
      <point x="119" y="104"/>
      <point x="119" y="123" type="curve" smooth="yes"/>
      <point x="119" y="147"/>
      <point x="133" y="170"/>
      <point x="160" y="193" type="curve" smooth="yes"/>
      <point x="187" y="216"/>
      <point x="221" y="234"/>
      <point x="262" y="246" type="curve"/>
      <point x="262" y="99" type="line"/>
      <point x="249" y="85"/>
      <point x="237" y="74"/>
      <point x="226" y="67" type="curve" smooth="yes"/>
      <point x="213" y="58"/>
      <point x="201" y="54"/>
    </contour>
    <contour>
      <point x="124" y="-1" type="curve" smooth="yes"/>
      <point x="156" y="-1"/>
      <point x="185" y="3"/>
      <point x="210" y="13" type="curve" smooth="yes"/>
      <point x="235" y="23"/>
      <point x="253" y="37"/>
      <point x="262" y="52" type="curve"/>
      <point x="263" y="39"/>
      <point x="269" y="27"/>
      <point x="281" y="16" type="curve" smooth="yes"/>
      <point x="292" y="5"/>
      <point x="306" y="-1"/>
      <point x="321" y="-1" type="curve" smooth="yes"/>
      <point x="341" y="-1"/>
      <point x="359" y="5"/>
      <point x="374" y="16" type="curve" smooth="yes"/>
      <point x="390" y="27"/>
      <point x="402" y="43"/>
      <point x="409" y="62" type="curve"/>
      <point x="393" y="68" type="line"/>
      <point x="383" y="56" type="line"/>
      <point x="378" y="53"/>
      <point x="373" y="52"/>
      <point x="370" y="52" type="curve" smooth="yes"/>
      <point x="361" y="52"/>
      <point x="354" y="55"/>
      <point x="347" y="60" type="curve"/>
      <point x="342" y="66"/>
      <point x="340" y="73"/>
      <point x="340" y="82" type="curve" smooth="yes"/>
      <point x="340" y="293" type="line" smooth="yes"/>
      <point x="340" y="334"/>
      <point x="327" y="365"/>
      <point x="301" y="386" type="curve" smooth="yes"/>
      <point x="276" y="407"/>
      <point x="239" y="418"/>
      <point x="191" y="418" type="curve" smooth="yes"/>
      <point x="154" y="418"/>
      <point x="123" y="409"/>
      <point x="98" y="390" type="curve"/>
      <point x="71" y="373"/>
      <point x="58" y="351"/>
      <point x="58" y="326" type="curve" smooth="yes"/>
      <point x="58" y="315"/>
      <point x="62" y="305"/>
      <point x="69" y="296" type="curve"/>
      <point x="78" y="288"/>
      <point x="87" y="284"/>
      <point x="98" y="284" type="curve" smooth="yes"/>
      <point x="109" y="284"/>
      <point x="119" y="287"/>
      <point x="126" y="293" type="curve" smooth="yes"/>
      <point x="134" y="300"/>
      <point x="138" y="309"/>
      <point x="138" y="318" type="curve" smooth="yes"/>
      <point x="138" y="321"/>
      <point x="137" y="326"/>
      <point x="136" y="335" type="curve" smooth="yes"/>
      <point x="132" y="359" type="line"/>
      <point x="132" y="368"/>
      <point x="137" y="376"/>
      <point x="148" y="383" type="curve"/>
      <point x="160" y="389"/>
      <point x="174" y="392"/>
      <point x="191" y="392" type="curve" smooth="yes"/>
      <point x="210" y="392"/>
      <point x="227" y="387"/>
      <point x="241" y="376" type="curve" smooth="yes"/>
      <point x="255" y="365"/>
      <point x="262" y="351"/>
      <point x="262" y="335" type="curve" smooth="yes"/>
      <point x="262" y="275" type="line"/>
      <point x="196" y="257"/>
      <point x="142" y="234"/>
      <point x="99" y="202" type="curve" smooth="yes"/>
      <point x="56" y="170"/>
      <point x="34" y="134"/>
      <point x="34" y="98" type="curve" smooth="yes"/>
      <point x="34" y="71"/>
      <point x="43" y="47"/>
      <point x="61" y="28" type="curve" smooth="yes"/>
      <point x="78" y="9"/>
      <point x="99" y="-1"/>
    </contour>
  </outline>
</glyph>
<glyph name="c" format="1">
  <advance width="410"/>
  <unicode hex="0063"/>
  <outline>
    <contour>
      <point x="224" y="-1" type="curve" smooth="yes" name="hr00"/>
      <point x="263" y="-1"/>
      <point x="297" y="12"/>
      <point x="327" y="37" type="curve" smooth="yes"/>
      <point x="356" y="62"/>
      <point x="376" y="94"/>
      <point x="387" y="135" type="curve"/>
      <point x="371" y="145" type="line"/>
      <point x="356" y="121"/>
      <point x="338" y="102"/>
      <point x="316" y="89" type="curve" smooth="yes"/>
      <point x="291" y="75"/>
      <point x="265" y="68"/>
      <point x="238" y="68" type="curve" smooth="yes"/>
      <point x="203" y="68"/>
      <point x="173" y="85"/>
      <point x="148" y="120" type="curve" smooth="yes"/>
      <point x="123" y="155"/>
      <point x="110" y="196"/>
      <point x="110" y="245" type="curve" smooth="yes"/>
      <point x="110" y="285"/>
      <point x="122" y="319"/>
      <point x="146" y="347" type="curve" smooth="yes"/>
      <point x="170" y="375"/>
      <point x="198" y="389"/>
      <point x="229" y="389" type="curve" smooth="yes"/>
      <point x="244" y="389"/>
      <point x="257" y="384"/>
      <point x="268" y="373" type="curve" smooth="yes"/>
      <point x="279" y="363"/>
      <point x="286" y="350"/>
      <point x="289" y="335" type="curve"/>
      <point x="290" y="322"/>
      <point x="296" y="312"/>
      <point x="305" y="304" type="curve" smooth="yes"/>
      <point x="314" y="295"/>
      <point x="325" y="291"/>
      <point x="336" y="291" type="curve" smooth="yes"/>
      <point x="346" y="291"/>
      <point x="355" y="295"/>
      <point x="363" y="304" type="curve" smooth="yes"/>
      <point x="370" y="313"/>
      <point x="374" y="323"/>
      <point x="374" y="335" type="curve" smooth="yes"/>
      <point x="374" y="358"/>
      <point x="361" y="377"/>
      <point x="336" y="393" type="curve" smooth="yes"/>
      <point x="311" y="410"/>
      <point x="281" y="418"/>
      <point x="246" y="418" type="curve" smooth="yes"/>
      <point x="190" y="418"/>
      <point x="142" y="397"/>
      <point x="101" y="355" type="curve" smooth="yes"/>
      <point x="61" y="313"/>
      <point x="41" y="263"/>
      <point x="41" y="204" type="curve" smooth="yes"/>
      <point x="41" y="148"/>
      <point x="58" y="99"/>
      <point x="94" y="59" type="curve" smooth="yes"/>
      <point x="130" y="18"/>
      <point x="175" y="-1"/>
    </contour>
  </outline>
</glyph>
<glyph name="d" format="1">
  <advance width="471"/>
  <unicode hex="0064"/>
  <outline>
    <contour>
      <point x="237" y="47" type="curve" smooth="yes" name="hr00"/>
      <point x="206" y="47"/>
      <point x="178" y="66"/>
      <point x="155" y="104" type="curve" smooth="yes"/>
      <point x="132" y="143"/>
      <point x="120" y="190"/>
      <point x="120" y="245" type="curve" smooth="yes"/>
      <point x="120" y="285"/>
      <point x="131" y="319"/>
      <point x="153" y="347" type="curve" smooth="yes"/>
      <point x="174" y="375"/>
      <point x="200" y="389"/>
      <point x="230" y="389" type="curve" smooth="yes"/>
      <point x="248" y="389"/>
      <point x="264" y="384"/>
      <point x="279" y="373" type="curve" smooth="yes"/>
      <point x="295" y="362"/>
      <point x="308" y="348"/>
      <point x="319" y="329" type="curve"/>
      <point x="319" y="91" type="line"/>
      <point x="307" y="77"/>
      <point x="294" y="66"/>
      <point x="280" y="58" type="curve" smooth="yes"/>
      <point x="267" y="51"/>
      <point x="252" y="47"/>
    </contour>
    <contour>
      <point x="205" y="-1" type="curve" smooth="yes"/>
      <point x="230" y="-1"/>
      <point x="252" y="2"/>
      <point x="273" y="11" type="curve" smooth="yes"/>
      <point x="292" y="19"/>
      <point x="308" y="31"/>
      <point x="319" y="43" type="curve"/>
      <point x="319" y="-2" type="line"/>
      <point x="453" y="40" type="line"/>
      <point x="453" y="60" type="line"/>
      <point x="437" y="60"/>
      <point x="422" y="66"/>
      <point x="411" y="78" type="curve" smooth="yes"/>
      <point x="399" y="91"/>
      <point x="395" y="106"/>
      <point x="395" y="123" type="curve" smooth="yes"/>
      <point x="395" y="614" type="line"/>
      <point x="261" y="579" type="line"/>
      <point x="261" y="560" type="line"/>
      <point x="280" y="560" type="line" smooth="yes"/>
      <point x="291" y="560"/>
      <point x="300" y="558"/>
      <point x="308" y="553" type="curve" smooth="yes"/>
      <point x="315" y="549"/>
      <point x="319" y="544"/>
      <point x="319" y="537" type="curve" smooth="yes"/>
      <point x="319" y="388" type="line"/>
      <point x="308" y="397"/>
      <point x="295" y="404"/>
      <point x="279" y="410" type="curve" smooth="yes"/>
      <point x="264" y="415"/>
      <point x="247" y="418"/>
      <point x="230" y="418" type="curve" smooth="yes"/>
      <point x="179" y="418"/>
      <point x="133" y="397"/>
      <point x="96" y="355" type="curve" smooth="yes"/>
      <point x="59" y="313"/>
      <point x="42" y="263"/>
      <point x="42" y="204" type="curve" smooth="yes"/>
      <point x="42" y="148"/>
      <point x="58" y="100"/>
      <point x="91" y="59" type="curve" smooth="yes"/>
      <point x="122" y="19"/>
      <point x="160" y="-1"/>
    </contour>
  </outline>
</glyph>
<glyph name="e" format="1">
  <advance width="432"/>
  <unicode hex="0065"/>
  <outline>
    <contour>
      <point x="108" y="229" type="line" name="hr00"/>
      <point x="118" y="284"/>
      <point x="133" y="325"/>
      <point x="152" y="351" type="curve" smooth="yes"/>
      <point x="169" y="376"/>
      <point x="189" y="389"/>
      <point x="211" y="389" type="curve" smooth="yes"/>
      <point x="234" y="389"/>
      <point x="254" y="376"/>
      <point x="272" y="351" type="curve" smooth="yes"/>
      <point x="291" y="325"/>
      <point x="304" y="293"/>
      <point x="311" y="255" type="curve"/>
      <point x="108" y="255" type="line"/>
    </contour>
    <contour>
      <point x="215" y="-1" type="curve" smooth="yes"/>
      <point x="261" y="-1"/>
      <point x="302" y="12"/>
      <point x="338" y="39" type="curve" smooth="yes"/>
      <point x="374" y="67"/>
      <point x="398" y="103"/>
      <point x="410" y="147" type="curve"/>
      <point x="394" y="158" type="line"/>
      <point x="377" y="129"/>
      <point x="356" y="108"/>
      <point x="332" y="92" type="curve" smooth="yes"/>
      <point x="308" y="77"/>
      <point x="284" y="68"/>
      <point x="257" y="68" type="curve" smooth="yes"/>
      <point x="217" y="68"/>
      <point x="183" y="83"/>
      <point x="155" y="114" type="curve" smooth="yes"/>
      <point x="126" y="146"/>
      <point x="112" y="183"/>
      <point x="112" y="226" type="curve"/>
      <point x="389" y="226" type="line"/>
      <point x="389" y="281"/>
      <point x="371" y="326"/>
      <point x="338" y="362" type="curve" smooth="yes"/>
      <point x="304" y="399"/>
      <point x="264" y="418"/>
      <point x="216" y="418" type="curve" smooth="yes"/>
      <point x="168" y="418"/>
      <point x="127" y="398"/>
      <point x="94" y="358" type="curve" smooth="yes"/>
      <point x="60" y="317"/>
      <point x="43" y="268"/>
      <point x="43" y="213" type="curve" smooth="yes"/>
      <point x="43" y="154"/>
      <point x="60" y="103"/>
      <point x="94" y="61" type="curve" smooth="yes"/>
      <point x="127" y="20"/>
      <point x="168" y="-1"/>
    </contour>
  </outline>
</glyph>
<glyph name="f" format="1">
  <advance width="266"/>
  <unicode hex="0066"/>
  <outline>
    <contour>
      <point x="9" y="8" type="line" name="hr00"/>
      <point x="242" y="8" type="line"/>
      <point x="242" y="27" type="line"/>
      <point x="223" y="27" type="line" smooth="yes"/>
      <point x="206" y="27"/>
      <point x="190" y="31"/>
      <point x="177" y="40" type="curve" smooth="yes"/>
      <point x="166" y="49"/>
      <point x="160" y="61"/>
      <point x="160" y="74" type="curve" smooth="yes"/>
      <point x="160" y="381" type="line"/>
      <point x="265" y="381" type="line"/>
      <point x="265" y="410" type="line"/>
      <point x="160" y="410" type="line"/>
      <point x="160" y="537" type="line" smooth="yes"/>
      <point x="160" y="550"/>
      <point x="164" y="561"/>
      <point x="172" y="570" type="curve" smooth="yes"/>
      <point x="180" y="579"/>
      <point x="190" y="584"/>
      <point x="202" y="584" type="curve" smooth="yes"/>
      <point x="212" y="584"/>
      <point x="222" y="581"/>
      <point x="231" y="576" type="curve" smooth="yes"/>
      <point x="240" y="570"/>
      <point x="247" y="562"/>
      <point x="254" y="553" type="curve"/>
      <point x="260" y="542"/>
      <point x="266" y="534"/>
      <point x="273" y="529" type="curve" smooth="yes"/>
      <point x="281" y="522"/>
      <point x="289" y="518"/>
      <point x="296" y="518" type="curve" smooth="yes"/>
      <point x="305" y="518"/>
      <point x="313" y="522"/>
      <point x="320" y="529" type="curve" smooth="yes"/>
      <point x="327" y="535"/>
      <point x="331" y="543"/>
      <point x="331" y="554" type="curve" smooth="yes"/>
      <point x="331" y="570"/>
      <point x="321" y="584"/>
      <point x="300" y="596" type="curve" smooth="yes"/>
      <point x="281" y="607"/>
      <point x="258" y="613"/>
      <point x="231" y="613" type="curve" smooth="yes"/>
      <point x="192" y="613"/>
      <point x="156" y="597"/>
      <point x="126" y="563" type="curve" smooth="yes"/>
      <point x="96" y="530"/>
      <point x="82" y="491"/>
      <point x="82" y="448" type="curve" smooth="yes"/>
      <point x="82" y="410" type="line"/>
      <point x="9" y="410" type="line"/>
      <point x="9" y="381" type="line"/>
      <point x="82" y="381" type="line"/>
      <point x="82" y="74" type="line" smooth="yes"/>
      <point x="82" y="61"/>
      <point x="77" y="49"/>
      <point x="67" y="40" type="curve" smooth="yes"/>
      <point x="56" y="31"/>
      <point x="43" y="27"/>
      <point x="28" y="27" type="curve" smooth="yes"/>
      <point x="9" y="27" type="line"/>
      <point x="9" y="9" type="line"/>
    </contour>
  </outline>
</glyph>
<glyph name="g" format="1">
  <advance width="414"/>
  <unicode hex="0067"/>
  <outline>
    <contour>
      <point x="220" y="170" type="curve" smooth="yes" name="hr00"/>
      <point x="195" y="170"/>
      <point x="173" y="183"/>
      <point x="154" y="209" type="curve" smooth="yes"/>
      <point x="135" y="236"/>
      <point x="125" y="270"/>
      <point x="125" y="309" type="curve" smooth="yes"/>
      <point x="125" y="330"/>
      <point x="131" y="348"/>
      <point x="144" y="363" type="curve" smooth="yes"/>
      <point x="157" y="377"/>
      <point x="172" y="384"/>
      <point x="189" y="384" type="curve" smooth="yes"/>
      <point x="215" y="384"/>
      <point x="237" y="370"/>
      <point x="256" y="343" type="curve" smooth="yes"/>
      <point x="275" y="317"/>
      <point x="285" y="284"/>
      <point x="285" y="245" type="curve" smooth="yes"/>
      <point x="285" y="224"/>
      <point x="279" y="206"/>
      <point x="267" y="192" type="curve" smooth="yes"/>
      <point x="254" y="177"/>
      <point x="238" y="170"/>
    </contour>
    <contour>
      <point x="211" y="-135" type="curve" smooth="yes"/>
      <point x="176" y="-135"/>
      <point x="145" y="-129"/>
      <point x="120" y="-117" type="curve" smooth="yes"/>
      <point x="93" y="-104"/>
      <point x="80" y="-89"/>
      <point x="80" y="-72" type="curve" smooth="yes"/>
      <point x="80" y="-65"/>
      <point x="84" y="-55"/>
      <point x="91" y="-42" type="curve"/>
      <point x="124" y="3" type="line"/>
      <point x="246" y="-1" type="line" smooth="yes"/>
      <point x="288" y="-2"/>
      <point x="321" y="-5"/>
      <point x="344" y="-14" type="curve" smooth="yes"/>
      <point x="365" y="-23"/>
      <point x="375" y="-36"/>
      <point x="375" y="-52" type="curve" smooth="yes"/>
      <point x="375" y="-72"/>
      <point x="358" y="-91"/>
      <point x="324" y="-109" type="curve" smooth="yes"/>
      <point x="290" y="-126"/>
      <point x="252" y="-135"/>
    </contour>
    <contour>
      <point x="163" y="-188" type="curve" smooth="yes"/>
      <point x="236" y="-188"/>
      <point x="294" y="-175"/>
      <point x="338" y="-146" type="curve" smooth="yes"/>
      <point x="381" y="-118"/>
      <point x="402" y="-79"/>
      <point x="402" y="-32" type="curve" smooth="yes"/>
      <point x="402" y="-2"/>
      <point x="386" y="22"/>
      <point x="354" y="38" type="curve" smooth="yes"/>
      <point x="323" y="54"/>
      <point x="276" y="60"/>
      <point x="213" y="60" type="curve" smooth="yes"/>
      <point x="184" y="60"/>
      <point x="160" y="63"/>
      <point x="140" y="69" type="curve" smooth="yes"/>
      <point x="120" y="75"/>
      <point x="110" y="82"/>
      <point x="110" y="90" type="curve" smooth="yes"/>
      <point x="110" y="97"/>
      <point x="120" y="111"/>
      <point x="143" y="134" type="curve" smooth="yes"/>
      <point x="156" y="147" type="line"/>
      <point x="167" y="143"/>
      <point x="186" y="141"/>
      <point x="213" y="141" type="curve" smooth="yes"/>
      <point x="252" y="141"/>
      <point x="285" y="154"/>
      <point x="313" y="181" type="curve" smooth="yes"/>
      <point x="340" y="208"/>
      <point x="354" y="240"/>
      <point x="354" y="278" type="curve" smooth="yes"/>
      <point x="354" y="297"/>
      <point x="353" y="314"/>
      <point x="347" y="329" type="curve"/>
      <point x="345" y="344"/>
      <point x="341" y="355"/>
      <point x="335" y="360" type="curve"/>
      <point x="402" y="360" type="line"/>
      <point x="402" y="393" type="line"/>
      <point x="311" y="393" type="line"/>
      <point x="284" y="410"/>
      <point x="245" y="418"/>
      <point x="196" y="418" type="curve" smooth="yes"/>
      <point x="156" y="418"/>
      <point x="121" y="405"/>
      <point x="92" y="379" type="curve" smooth="yes"/>
      <point x="63" y="352"/>
      <point x="48" y="321"/>
      <point x="48" y="286" type="curve" smooth="yes"/>
      <point x="48" y="255"/>
      <point x="56" y="227"/>
      <point x="71" y="203" type="curve" smooth="yes"/>
      <point x="86" y="178"/>
      <point x="105" y="162"/>
      <point x="128" y="155" type="curve"/>
      <point x="105" y="140"/>
      <point x="88" y="123"/>
      <point x="74" y="106" type="curve" smooth="yes"/>
      <point x="60" y="88"/>
      <point x="52" y="73"/>
      <point x="52" y="58" type="curve" smooth="yes"/>
      <point x="52" y="47"/>
      <point x="57" y="37"/>
      <point x="66" y="28" type="curve"/>
      <point x="73" y="19"/>
      <point x="83" y="13"/>
      <point x="94" y="8" type="curve"/>
      <point x="69" y="-7"/>
      <point x="49" y="-23"/>
      <point x="32" y="-42" type="curve" smooth="yes"/>
      <point x="16" y="-61"/>
      <point x="8" y="-79"/>
      <point x="8" y="-97" type="curve" smooth="yes"/>
      <point x="8" y="-122"/>
      <point x="24" y="-144"/>
      <point x="55" y="-162" type="curve" smooth="yes"/>
      <point x="85" y="-179"/>
      <point x="121" y="-188"/>
    </contour>
  </outline>
</glyph>
<glyph name="h" format="1">
  <advance width="460"/>
  <unicode hex="0068"/>
  <outline>
    <contour>
      <point x="19" y="8" type="line" name="hr00"/>
      <point x="210" y="8" type="line"/>
      <point x="210" y="27" type="line"/>
      <point x="192" y="27" type="line" smooth="yes"/>
      <point x="182" y="27"/>
      <point x="173" y="31"/>
      <point x="164" y="40" type="curve"/>
      <point x="157" y="49"/>
      <point x="153" y="61"/>
      <point x="153" y="74" type="curve" smooth="yes"/>
      <point x="153" y="305" type="line"/>
      <point x="166" y="323"/>
      <point x="181" y="339"/>
      <point x="197" y="349" type="curve" smooth="yes"/>
      <point x="214" y="360"/>
      <point x="231" y="364"/>
      <point x="249" y="364" type="curve" smooth="yes"/>
      <point x="266" y="364"/>
      <point x="281" y="358"/>
      <point x="294" y="347" type="curve"/>
      <point x="306" y="334"/>
      <point x="312" y="318"/>
      <point x="312" y="301" type="curve" smooth="yes"/>
      <point x="312" y="74" type="line" smooth="yes"/>
      <point x="312" y="61"/>
      <point x="309" y="49"/>
      <point x="303" y="40" type="curve" smooth="yes"/>
      <point x="298" y="31"/>
      <point x="290" y="27"/>
      <point x="281" y="27" type="curve" smooth="yes"/>
      <point x="264" y="27" type="line"/>
      <point x="264" y="8" type="line"/>
      <point x="446" y="8" type="line"/>
      <point x="446" y="27" type="line"/>
      <point x="428" y="27" type="line" smooth="yes"/>
      <point x="417" y="27"/>
      <point x="408" y="31"/>
      <point x="401" y="40" type="curve" smooth="yes"/>
      <point x="393" y="49"/>
      <point x="389" y="61"/>
      <point x="389" y="74" type="curve" smooth="yes"/>
      <point x="389" y="301" type="line" smooth="yes"/>
      <point x="389" y="334"/>
      <point x="378" y="361"/>
      <point x="356" y="383" type="curve" smooth="yes"/>
      <point x="333" y="406"/>
      <point x="305" y="418"/>
      <point x="273" y="418" type="curve" smooth="yes"/>
      <point x="248" y="418"/>
      <point x="225" y="411"/>
      <point x="203" y="398" type="curve" smooth="yes"/>
      <point x="181" y="385"/>
      <point x="164" y="369"/>
      <point x="153" y="350" type="curve"/>
      <point x="153" y="614" type="line"/>
      <point x="19" y="579" type="line"/>
      <point x="19" y="560" type="line"/>
      <point x="38" y="560" type="line" smooth="yes"/>
      <point x="48" y="560"/>
      <point x="57" y="556"/>
      <point x="66" y="548" type="curve"/>
      <point x="73" y="540"/>
      <point x="76" y="531"/>
      <point x="76" y="521" type="curve" smooth="yes"/>
      <point x="76" y="82" type="line" smooth="yes"/>
      <point x="76" y="67"/>
      <point x="72" y="54"/>
      <point x="64" y="42" type="curve" smooth="yes"/>
      <point x="57" y="32"/>
      <point x="48" y="27"/>
      <point x="38" y="27" type="curve" smooth="yes"/>
      <point x="19" y="27" type="line"/>
      <point x="19" y="9" type="line"/>
    </contour>
  </outline>
</glyph>
<glyph name="i" format="1">
  <advance width="231"/>
  <unicode hex="0069"/>
  <outline>
    <contour>
      <point x="117" y="518" type="curve" smooth="yes" name="hr00"/>
      <point x="130" y="518"/>
      <point x="141" y="523"/>
      <point x="150" y="533" type="curve"/>
      <point x="157" y="544"/>
      <point x="161" y="556"/>
      <point x="161" y="570" type="curve" smooth="yes"/>
      <point x="161" y="581"/>
      <point x="157" y="591"/>
      <point x="150" y="600" type="curve"/>
      <point x="141" y="609"/>
      <point x="131" y="613"/>
      <point x="119" y="613" type="curve" smooth="yes"/>
      <point x="106" y="613"/>
      <point x="95" y="609"/>
      <point x="86" y="600" type="curve" smooth="yes"/>
      <point x="77" y="591"/>
      <point x="73" y="581"/>
      <point x="73" y="570" type="curve" smooth="yes"/>
      <point x="73" y="556"/>
      <point x="77" y="544"/>
      <point x="86" y="533" type="curve" smooth="yes"/>
      <point x="95" y="523"/>
      <point x="105" y="518"/>
    </contour>
    <contour>
      <point x="16" y="8" type="line"/>
      <point x="215" y="8" type="line"/>
      <point x="215" y="27" type="line"/>
      <point x="197" y="27" type="line" smooth="yes"/>
      <point x="187" y="27"/>
      <point x="178" y="31"/>
      <point x="170" y="40" type="curve" smooth="yes"/>
      <point x="163" y="49"/>
      <point x="159" y="61"/>
      <point x="159" y="74" type="curve" smooth="yes"/>
      <point x="159" y="419" type="line"/>
      <point x="16" y="371" type="line"/>
      <point x="16" y="357" type="line"/>
      <point x="58" y="357" type="line" smooth="yes"/>
      <point x="65" y="357"/>
      <point x="71" y="355"/>
      <point x="75" y="350" type="curve" smooth="yes"/>
      <point x="79" y="345"/>
      <point x="81" y="340"/>
      <point x="81" y="335" type="curve" smooth="yes"/>
      <point x="81" y="74" type="line" smooth="yes"/>
      <point x="81" y="61"/>
      <point x="77" y="49"/>
      <point x="68" y="40" type="curve" smooth="yes"/>
      <point x="59" y="31"/>
      <point x="48" y="27"/>
      <point x="35" y="27" type="curve" smooth="yes"/>
      <point x="16" y="27" type="line"/>
      <point x="16" y="9" type="line"/>
    </contour>
  </outline>
</glyph>
<glyph name="j" format="1">
  <advance width="226"/>
  <unicode hex="006A"/>
  <outline>
    <contour>
      <point x="110" y="518" type="curve" smooth="yes" name="hr00"/>
      <point x="122" y="518"/>
      <point x="133" y="523"/>
      <point x="142" y="533" type="curve"/>
      <point x="150" y="544"/>
      <point x="154" y="556"/>
      <point x="154" y="570" type="curve" smooth="yes"/>
      <point x="154" y="581"/>
      <point x="150" y="591"/>
      <point x="142" y="600" type="curve" smooth="yes"/>
      <point x="133" y="609"/>
      <point x="123" y="613"/>
      <point x="112" y="613" type="curve" smooth="yes"/>
      <point x="100" y="613"/>
      <point x="90" y="609"/>
      <point x="81" y="600" type="curve" smooth="yes"/>
      <point x="73" y="591"/>
      <point x="69" y="581"/>
      <point x="69" y="570" type="curve" smooth="yes"/>
      <point x="69" y="556"/>
      <point x="73" y="544"/>
      <point x="81" y="533" type="curve"/>
      <point x="90" y="523"/>
      <point x="99" y="518"/>
    </contour>
    <contour>
      <point x="12" y="-188" type="curve" smooth="yes"/>
      <point x="55" y="-188"/>
      <point x="88" y="-173"/>
      <point x="114" y="-142" type="curve" smooth="yes"/>
      <point x="140" y="-111"/>
      <point x="154" y="-71"/>
      <point x="154" y="-23" type="curve" smooth="yes"/>
      <point x="154" y="419" type="line"/>
      <point x="3" y="368" type="line"/>
      <point x="3" y="341" type="line"/>
      <point x="17" y="352"/>
      <point x="32" y="357"/>
      <point x="47" y="357" type="curve" smooth="yes"/>
      <point x="56" y="357"/>
      <point x="63" y="353"/>
      <point x="69" y="346" type="curve"/>
      <point x="74" y="337"/>
      <point x="77" y="328"/>
      <point x="77" y="318" type="curve" smooth="yes"/>
      <point x="77" y="-81" type="line" smooth="yes"/>
      <point x="77" y="-101"/>
      <point x="73" y="-118"/>
      <point x="65" y="-132" type="curve" smooth="yes"/>
      <point x="57" y="-145"/>
      <point x="48" y="-152"/>
      <point x="39" y="-152" type="curve" smooth="yes"/>
      <point x="32" y="-152"/>
      <point x="25" y="-150"/>
      <point x="18" y="-147" type="curve" smooth="yes"/>
      <point x="11" y="-145"/>
      <point x="5" y="-141"/>
      <point x="0" y="-136" type="curve"/>
      <point x="-31" y="-112" type="line" smooth="yes"/>
      <point x="-39" y="-106"/>
      <point x="-46" y="-103"/>
      <point x="-51" y="-103" type="curve" smooth="yes"/>
      <point x="-59" y="-103"/>
      <point x="-66" y="-106"/>
      <point x="-73" y="-113" type="curve"/>
      <point x="-78" y="-120"/>
      <point x="-81" y="-128"/>
      <point x="-81" y="-137" type="curve" smooth="yes"/>
      <point x="-81" y="-151"/>
      <point x="-72" y="-164"/>
      <point x="-53" y="-174" type="curve" smooth="yes"/>
      <point x="-35" y="-184"/>
      <point x="-13" y="-188"/>
    </contour>
  </outline>
</glyph>
<glyph name="k" format="1">
  <advance width="456"/>
  <unicode hex="006B"/>
  <outline>
    <contour>
      <point x="11" y="8" type="line" name="hr00"/>
      <point x="218" y="8" type="line"/>
      <point x="218" y="27" type="line"/>
      <point x="199" y="27" type="line" smooth="yes"/>
      <point x="188" y="27"/>
      <point x="177" y="31"/>
      <point x="167" y="38" type="curve"/>
      <point x="158" y="47"/>
      <point x="154" y="56"/>
      <point x="154" y="67" type="curve" smooth="yes"/>
      <point x="154" y="218" type="line"/>
      <point x="276" y="64" type="line"/>
      <point x="289" y="50" type="line"/>
      <point x="291" y="46"/>
      <point x="292" y="43"/>
      <point x="292" y="41" type="curve" smooth="yes"/>
      <point x="292" y="38"/>
      <point x="291" y="34"/>
      <point x="289" y="31" type="curve" smooth="yes"/>
      <point x="288" y="28"/>
      <point x="285" y="27"/>
      <point x="281" y="27" type="curve" smooth="yes"/>
      <point x="262" y="27" type="line"/>
      <point x="262" y="8" type="line"/>
      <point x="454" y="8" type="line"/>
      <point x="454" y="27" type="line"/>
      <point x="436" y="27" type="line" smooth="yes"/>
      <point x="427" y="27"/>
      <point x="416" y="31"/>
      <point x="403" y="38" type="curve" smooth="yes"/>
      <point x="390" y="45"/>
      <point x="377" y="55"/>
      <point x="364" y="68" type="curve"/>
      <point x="219" y="261" type="line"/>
      <point x="323" y="357" type="line"/>
      <point x="332" y="367"/>
      <point x="344" y="376"/>
      <point x="359" y="381" type="curve" smooth="yes"/>
      <point x="375" y="387"/>
      <point x="392" y="389"/>
      <point x="411" y="389" type="curve" smooth="yes"/>
      <point x="430" y="389" type="line"/>
      <point x="430" y="410" type="line"/>
      <point x="247" y="410" type="line"/>
      <point x="247" y="389" type="line"/>
      <point x="270" y="389" type="line" smooth="yes"/>
      <point x="275" y="389"/>
      <point x="279" y="388"/>
      <point x="283" y="387" type="curve"/>
      <point x="286" y="385"/>
      <point x="288" y="384"/>
      <point x="288" y="383" type="curve" smooth="yes"/>
      <point x="288" y="380"/>
      <point x="288" y="376"/>
      <point x="287" y="373" type="curve" smooth="yes"/>
      <point x="286" y="370"/>
      <point x="286" y="369"/>
      <point x="285" y="368" type="curve" smooth="yes"/>
      <point x="154" y="245" type="line"/>
      <point x="154" y="614" type="line"/>
      <point x="11" y="579" type="line"/>
      <point x="11" y="560" type="line"/>
      <point x="38" y="560" type="line" smooth="yes"/>
      <point x="48" y="560"/>
      <point x="57" y="556"/>
      <point x="64" y="548" type="curve" smooth="yes"/>
      <point x="72" y="540"/>
      <point x="76" y="531"/>
      <point x="76" y="521" type="curve" smooth="yes"/>
      <point x="76" y="67" type="line" smooth="yes"/>
      <point x="76" y="56"/>
      <point x="72" y="47"/>
      <point x="63" y="38" type="curve"/>
      <point x="54" y="31"/>
      <point x="43" y="27"/>
      <point x="30" y="27" type="curve" smooth="yes"/>
      <point x="11" y="27" type="line"/>
      <point x="11" y="9" type="line"/>
    </contour>
  </outline>
</glyph>
<glyph name="l" format="1">
  <advance width="227"/>
  <unicode hex="006C"/>
  <outline>
    <contour>
      <point x="11" y="8" type="line" name="hr00"/>
      <point x="218" y="8" type="line"/>
      <point x="218" y="27" type="line"/>
      <point x="199" y="27" type="line" smooth="yes"/>
      <point x="188" y="27"/>
      <point x="177" y="31"/>
      <point x="167" y="40" type="curve" smooth="yes"/>
      <point x="158" y="49"/>
      <point x="154" y="61"/>
      <point x="154" y="74" type="curve" smooth="yes"/>
      <point x="154" y="614" type="line"/>
      <point x="11" y="579" type="line"/>
      <point x="11" y="560" type="line"/>
      <point x="46" y="560" type="line" smooth="yes"/>
      <point x="55" y="560"/>
      <point x="61" y="556"/>
      <point x="66" y="548" type="curve"/>
      <point x="73" y="540"/>
      <point x="76" y="531"/>
      <point x="76" y="521" type="curve" smooth="yes"/>
      <point x="76" y="74" type="line" smooth="yes"/>
      <point x="76" y="61"/>
      <point x="72" y="49"/>
      <point x="63" y="40" type="curve" smooth="yes"/>
      <point x="54" y="31"/>
      <point x="43" y="27"/>
      <point x="30" y="27" type="curve" smooth="yes"/>
      <point x="11" y="27" type="line"/>
      <point x="11" y="9" type="line"/>
    </contour>
  </outline>
</glyph>
<glyph name="m" format="1">
  <advance width="708"/>
  <unicode hex="006D"/>
  <outline>
    <contour>
      <point x="17" y="8" type="line" name="hr00"/>
      <point x="216" y="8" type="line"/>
      <point x="216" y="27" type="line"/>
      <point x="198" y="27" type="line" smooth="yes"/>
      <point x="188" y="27"/>
      <point x="179" y="31"/>
      <point x="171" y="40" type="curve" smooth="yes"/>
      <point x="164" y="49"/>
      <point x="160" y="61"/>
      <point x="160" y="74" type="curve" smooth="yes"/>
      <point x="160" y="318" type="line"/>
      <point x="170" y="333"/>
      <point x="184" y="345"/>
      <point x="202" y="355" type="curve" smooth="yes"/>
      <point x="219" y="364"/>
      <point x="237" y="368"/>
      <point x="258" y="368" type="curve" smooth="yes"/>
      <point x="275" y="368"/>
      <point x="288" y="362"/>
      <point x="299" y="351" type="curve" smooth="yes"/>
      <point x="312" y="339"/>
      <point x="318" y="326"/>
      <point x="318" y="309" type="curve" smooth="yes"/>
      <point x="318" y="74" type="line" smooth="yes"/>
      <point x="318" y="61"/>
      <point x="314" y="49"/>
      <point x="307" y="40" type="curve" smooth="yes"/>
      <point x="299" y="31"/>
      <point x="290" y="27"/>
      <point x="279" y="27" type="curve" smooth="yes"/>
      <point x="262" y="27" type="line"/>
      <point x="262" y="8" type="line"/>
      <point x="460" y="8" type="line"/>
      <point x="460" y="27" type="line"/>
      <point x="442" y="27" type="line" smooth="yes"/>
      <point x="429" y="27"/>
      <point x="418" y="31"/>
      <point x="409" y="40" type="curve" smooth="yes"/>
      <point x="400" y="49"/>
      <point x="396" y="61"/>
      <point x="396" y="74" type="curve" smooth="yes"/>
      <point x="396" y="312" type="line"/>
      <point x="407" y="329"/>
      <point x="421" y="343"/>
      <point x="439" y="353" type="curve" smooth="yes"/>
      <point x="455" y="363"/>
      <point x="472" y="368"/>
      <point x="490" y="368" type="curve" smooth="yes"/>
      <point x="510" y="368"/>
      <point x="527" y="361"/>
      <point x="542" y="347" type="curve"/>
      <point x="555" y="332"/>
      <point x="562" y="314"/>
      <point x="562" y="293" type="curve" smooth="yes"/>
      <point x="562" y="74" type="line" smooth="yes"/>
      <point x="562" y="61"/>
      <point x="558" y="49"/>
      <point x="550" y="40" type="curve" smooth="yes"/>
      <point x="543" y="31"/>
      <point x="534" y="27"/>
      <point x="523" y="27" type="curve" smooth="yes"/>
      <point x="505" y="27" type="line"/>
      <point x="505" y="8" type="line"/>
      <point x="696" y="8" type="line"/>
      <point x="696" y="27" type="line"/>
      <point x="678" y="27" type="line" smooth="yes"/>
      <point x="668" y="27"/>
      <point x="659" y="31"/>
      <point x="650" y="40" type="curve"/>
      <point x="643" y="49"/>
      <point x="639" y="61"/>
      <point x="639" y="74" type="curve" smooth="yes"/>
      <point x="639" y="286" type="line" smooth="yes"/>
      <point x="639" y="321"/>
      <point x="628" y="352"/>
      <point x="607" y="379" type="curve" smooth="yes"/>
      <point x="587" y="405"/>
      <point x="562" y="418"/>
      <point x="532" y="418" type="curve" smooth="yes"/>
      <point x="503" y="418"/>
      <point x="475" y="412"/>
      <point x="448" y="400" type="curve" smooth="yes"/>
      <point x="422" y="389"/>
      <point x="401" y="373"/>
      <point x="385" y="353" type="curve"/>
      <point x="374" y="372"/>
      <point x="359" y="388"/>
      <point x="340" y="400" type="curve" smooth="yes"/>
      <point x="323" y="412"/>
      <point x="304" y="418"/>
      <point x="283" y="418" type="curve" smooth="yes"/>
      <point x="264" y="418"/>
      <point x="243" y="412"/>
      <point x="221" y="402" type="curve" smooth="yes"/>
      <point x="200" y="392"/>
      <point x="180" y="380"/>
      <point x="160" y="363" type="curve"/>
      <point x="160" y="418" type="line"/>
      <point x="17" y="377" type="line"/>
      <point x="17" y="357" type="line"/>
      <point x="52" y="357" type="line" smooth="yes"/>
      <point x="61" y="357"/>
      <point x="68" y="354"/>
      <point x="74" y="348" type="curve" smooth="yes"/>
      <point x="79" y="342"/>
      <point x="82" y="335"/>
      <point x="82" y="326" type="curve" smooth="yes"/>
      <point x="82" y="74" type="line" smooth="yes"/>
      <point x="82" y="61"/>
      <point x="78" y="49"/>
      <point x="69" y="40" type="curve" smooth="yes"/>
      <point x="60" y="31"/>
      <point x="49" y="27"/>
      <point x="36" y="27" type="curve" smooth="yes"/>
      <point x="17" y="27" type="line"/>
      <point x="17" y="9" type="line"/>
    </contour>
  </outline>
</glyph>
<glyph name="n" format="1">
  <advance width="454"/>
  <unicode hex="006E"/>
  <outline>
    <contour>
      <point x="22" y="8" type="line" name="hr00"/>
      <point x="213" y="8" type="line"/>
      <point x="213" y="27" type="line"/>
      <point x="195" y="27" type="line" smooth="yes"/>
      <point x="185" y="27"/>
      <point x="176" y="31"/>
      <point x="167" y="40" type="curve"/>
      <point x="160" y="49"/>
      <point x="156" y="61"/>
      <point x="156" y="74" type="curve" smooth="yes"/>
      <point x="156" y="312" type="line"/>
      <point x="171" y="329"/>
      <point x="186" y="343"/>
      <point x="201" y="353" type="curve" smooth="yes"/>
      <point x="217" y="363"/>
      <point x="231" y="368"/>
      <point x="244" y="368" type="curve" smooth="yes"/>
      <point x="261" y="368"/>
      <point x="276" y="362"/>
      <point x="288" y="349" type="curve" smooth="yes"/>
      <point x="301" y="336"/>
      <point x="307" y="320"/>
      <point x="307" y="301" type="curve" smooth="yes"/>
      <point x="307" y="74" type="line" smooth="yes"/>
      <point x="307" y="61"/>
      <point x="304" y="49"/>
      <point x="298" y="40" type="curve" smooth="yes"/>
      <point x="292" y="31"/>
      <point x="285" y="27"/>
      <point x="276" y="27" type="curve" smooth="yes"/>
      <point x="258" y="27" type="line"/>
      <point x="258" y="8" type="line"/>
      <point x="441" y="8" type="line"/>
      <point x="441" y="27" type="line"/>
      <point x="422" y="27" type="line" smooth="yes"/>
      <point x="411" y="27"/>
      <point x="402" y="31"/>
      <point x="395" y="40" type="curve" smooth="yes"/>
      <point x="388" y="49"/>
      <point x="384" y="61"/>
      <point x="384" y="74" type="curve" smooth="yes"/>
      <point x="384" y="301" type="line" smooth="yes"/>
      <point x="384" y="334"/>
      <point x="374" y="361"/>
      <point x="354" y="383" type="curve" smooth="yes"/>
      <point x="333" y="406"/>
      <point x="309" y="418"/>
      <point x="281" y="418" type="curve" smooth="yes"/>
      <point x="258" y="418"/>
      <point x="236" y="412"/>
      <point x="213" y="400" type="curve" smooth="yes"/>
      <point x="190" y="389"/>
      <point x="171" y="374"/>
      <point x="156" y="356" type="curve"/>
      <point x="156" y="418" type="line"/>
      <point x="22" y="377" type="line"/>
      <point x="22" y="357" type="line"/>
      <point x="49" y="357" type="line" smooth="yes"/>
      <point x="57" y="357"/>
      <point x="64" y="353"/>
      <point x="71" y="346" type="curve"/>
      <point x="76" y="337"/>
      <point x="79" y="328"/>
      <point x="79" y="318" type="curve" smooth="yes"/>
      <point x="79" y="74" type="line" smooth="yes"/>
      <point x="79" y="61"/>
      <point x="75" y="49"/>
      <point x="67" y="40" type="curve" smooth="yes"/>
      <point x="60" y="31"/>
      <point x="51" y="27"/>
      <point x="41" y="27" type="curve" smooth="yes"/>
      <point x="22" y="27" type="line"/>
      <point x="22" y="9" type="line"/>
    </contour>
  </outline>
</glyph>
<glyph name="o" format="1">
  <advance width="473"/>
  <unicode hex="006F"/>
  <outline>
    <contour>
      <point x="253" y="27" type="curve" smooth="yes" name="hr00"/>
      <point x="217" y="27"/>
      <point x="184" y="46"/>
      <point x="158" y="85" type="curve" smooth="yes"/>
      <point x="131" y="125"/>
      <point x="119" y="173"/>
      <point x="119" y="228" type="curve" smooth="yes"/>
      <point x="119" y="273"/>
      <point x="130" y="311"/>
      <point x="150" y="342" type="curve" smooth="yes"/>
      <point x="170" y="373"/>
      <point x="193" y="389"/>
      <point x="222" y="389" type="curve" smooth="yes"/>
      <point x="259" y="389"/>
      <point x="291" y="370"/>
      <point x="318" y="333" type="curve" smooth="yes"/>
      <point x="345" y="296"/>
      <point x="359" y="250"/>
      <point x="359" y="196" type="curve" smooth="yes"/>
      <point x="359" y="149"/>
      <point x="347" y="110"/>
      <point x="327" y="77" type="curve" smooth="yes"/>
      <point x="307" y="44"/>
      <point x="283" y="27"/>
    </contour>
    <contour>
      <point x="236" y="-1" type="curve" smooth="yes"/>
      <point x="292" y="-1"/>
      <point x="341" y="19"/>
      <point x="379" y="61" type="curve" smooth="yes"/>
      <point x="417" y="102"/>
      <point x="435" y="154"/>
      <point x="435" y="213" type="curve" smooth="yes"/>
      <point x="435" y="269"/>
      <point x="417" y="318"/>
      <point x="379" y="358" type="curve" smooth="yes"/>
      <point x="341" y="399"/>
      <point x="293" y="418"/>
      <point x="238" y="418" type="curve" smooth="yes"/>
      <point x="183" y="418"/>
      <point x="137" y="398"/>
      <point x="99" y="358" type="curve" smooth="yes"/>
      <point x="60" y="317"/>
      <point x="41" y="269"/>
      <point x="41" y="213" type="curve" smooth="yes"/>
      <point x="41" y="154"/>
      <point x="60" y="103"/>
      <point x="99" y="61" type="curve" smooth="yes"/>
      <point x="137" y="20"/>
      <point x="183" y="-1"/>
    </contour>
  </outline>
</glyph>
<glyph name="p" format="1">
  <advance width="468"/>
  <unicode hex="0070"/>
  <outline>
    <contour>
      <point x="240" y="27" type="curve" smooth="yes" name="hr00"/>
      <point x="220" y="27"/>
      <point x="202" y="32"/>
      <point x="186" y="41" type="curve" smooth="yes"/>
      <point x="171" y="49"/>
      <point x="160" y="60"/>
      <point x="155" y="74" type="curve"/>
      <point x="155" y="312" type="line"/>
      <point x="162" y="329"/>
      <point x="174" y="343"/>
      <point x="190" y="353" type="curve" smooth="yes"/>
      <point x="207" y="363"/>
      <point x="224" y="368"/>
      <point x="242" y="368" type="curve" smooth="yes"/>
      <point x="273" y="368"/>
      <point x="298" y="351"/>
      <point x="320" y="320" type="curve" smooth="yes"/>
      <point x="342" y="288"/>
      <point x="354" y="250"/>
      <point x="354" y="204" type="curve" smooth="yes"/>
      <point x="354" y="155"/>
      <point x="342" y="114"/>
      <point x="320" y="79" type="curve" smooth="yes"/>
      <point x="298" y="45"/>
      <point x="273" y="27"/>
    </contour>
    <contour>
      <point x="12" y="-188" type="line"/>
      <point x="228" y="-188" type="line"/>
      <point x="228" y="-168" type="line"/>
      <point x="210" y="-168" type="line" smooth="yes"/>
      <point x="195" y="-168"/>
      <point x="181" y="-163"/>
      <point x="170" y="-153" type="curve"/>
      <point x="160" y="-142"/>
      <point x="155" y="-128"/>
      <point x="155" y="-113" type="curve" smooth="yes"/>
      <point x="155" y="23" type="line"/>
      <point x="161" y="18"/>
      <point x="172" y="12"/>
      <point x="189" y="6" type="curve" smooth="yes"/>
      <point x="206" y="1"/>
      <point x="227" y="-1"/>
      <point x="250" y="-1" type="curve" smooth="yes"/>
      <point x="299" y="-1"/>
      <point x="342" y="22"/>
      <point x="376" y="68" type="curve" smooth="yes"/>
      <point x="411" y="115"/>
      <point x="427" y="171"/>
      <point x="427" y="236" type="curve" smooth="yes"/>
      <point x="427" y="286"/>
      <point x="413" y="329"/>
      <point x="385" y="364" type="curve" smooth="yes"/>
      <point x="357" y="400"/>
      <point x="323" y="418"/>
      <point x="283" y="418" type="curve" smooth="yes"/>
      <point x="253" y="418"/>
      <point x="226" y="412"/>
      <point x="203" y="401" type="curve" smooth="yes"/>
      <point x="180" y="390"/>
      <point x="164" y="377"/>
      <point x="155" y="362" type="curve"/>
      <point x="155" y="418" type="line"/>
      <point x="12" y="377" type="line"/>
      <point x="18" y="357" type="line"/>
      <point x="47" y="357" type="line" smooth="yes"/>
      <point x="56" y="357"/>
      <point x="64" y="353"/>
      <point x="69" y="346" type="curve" smooth="yes"/>
      <point x="75" y="337"/>
      <point x="78" y="328"/>
      <point x="78" y="318" type="curve" smooth="yes"/>
      <point x="78" y="-113" type="line" smooth="yes"/>
      <point x="78" y="-128"/>
      <point x="74" y="-142"/>
      <point x="65" y="-153" type="curve"/>
      <point x="55" y="-163"/>
      <point x="44" y="-168"/>
      <point x="31" y="-168" type="curve" smooth="yes"/>
      <point x="12" y="-168" type="line"/>
      <point x="12" y="-187" type="line"/>
    </contour>
  </outline>
</glyph>
<glyph name="q" format="1">
  <advance width="474"/>
  <unicode hex="0071"/>
  <outline>
    <contour>
      <point x="237" y="60" type="curve" smooth="yes" name="hr00"/>
      <point x="206" y="60"/>
      <point x="178" y="75"/>
      <point x="155" y="106" type="curve" smooth="yes"/>
      <point x="132" y="138"/>
      <point x="120" y="176"/>
      <point x="120" y="221" type="curve" smooth="yes"/>
      <point x="120" y="268"/>
      <point x="133" y="307"/>
      <point x="159" y="339" type="curve" smooth="yes"/>
      <point x="186" y="372"/>
      <point x="219" y="389"/>
      <point x="256" y="389" type="curve" smooth="yes"/>
      <point x="269" y="389"/>
      <point x="282" y="385"/>
      <point x="295" y="377" type="curve" smooth="yes"/>
      <point x="308" y="368"/>
      <point x="318" y="356"/>
      <point x="327" y="341" type="curve"/>
      <point x="327" y="99" type="line"/>
      <point x="316" y="87"/>
      <point x="304" y="77"/>
      <point x="289" y="70" type="curve" smooth="yes"/>
      <point x="274" y="63"/>
      <point x="256" y="60"/>
    </contour>
    <contour>
      <point x="254" y="-188" type="line"/>
      <point x="461" y="-188" type="line"/>
      <point x="461" y="-168" type="line"/>
      <point x="442" y="-168" type="line" smooth="yes"/>
      <point x="432" y="-168"/>
      <point x="423" y="-163"/>
      <point x="415" y="-153" type="curve"/>
      <point x="408" y="-142"/>
      <point x="404" y="-128"/>
      <point x="404" y="-113" type="curve" smooth="yes"/>
      <point x="404" y="419" type="line"/>
      <point x="345" y="393" type="line"/>
      <point x="336" y="400"/>
      <point x="323" y="407"/>
      <point x="306" y="412" type="curve" smooth="yes"/>
      <point x="289" y="416"/>
      <point x="270" y="418"/>
      <point x="247" y="418" type="curve" smooth="yes"/>
      <point x="191" y="418"/>
      <point x="143" y="396"/>
      <point x="102" y="351" type="curve" smooth="yes"/>
      <point x="62" y="306"/>
      <point x="42" y="251"/>
      <point x="42" y="188" type="curve" smooth="yes"/>
      <point x="42" y="136"/>
      <point x="56" y="90"/>
      <point x="87" y="53" type="curve" smooth="yes"/>
      <point x="117" y="16"/>
      <point x="156" y="-1"/>
      <point x="199" y="-1" type="curve" smooth="yes"/>
      <point x="224" y="-1"/>
      <point x="248" y="6"/>
      <point x="271" y="16" type="curve" smooth="yes"/>
      <point x="294" y="26"/>
      <point x="313" y="39"/>
      <point x="327" y="56" type="curve"/>
      <point x="327" y="-113" type="line" smooth="yes"/>
      <point x="327" y="-128"/>
      <point x="322" y="-142"/>
      <point x="311" y="-153" type="curve" smooth="yes"/>
      <point x="300" y="-163"/>
      <point x="287" y="-168"/>
      <point x="272" y="-168" type="curve" smooth="yes"/>
      <point x="254" y="-168" type="line"/>
      <point x="254" y="-187" type="line"/>
    </contour>
  </outline>
</glyph>
